<svg xmlns="http://www.w3.org/2000/svg" xmlns:xlink="http://www.w3.org/1999/xlink" width="50" zoomAndPan="magnify" viewBox="0 0 37.5 37.499999" height="50" preserveAspectRatio="xMidYMid meet" version="1.0"><defs><clipPath id="4f5c5de94a"><path d="M 0 0 L 37.007812 0 L 37.007812 37.007812 L 0 37.007812 Z M 0 0 " clip-rule="nonzero"/></clipPath><clipPath id="fa62b204d9"><path d="M 11 7 L 28 7 L 28 37.007812 L 11 37.007812 Z M 11 7 " clip-rule="nonzero"/></clipPath></defs><g clip-path="url(#4f5c5de94a)"><path fill="#1877f2" d="M 37.5 18.75 C 37.5 8.394531 29.105469 0 18.75 0 C 8.394531 0 0 8.394531 0 18.75 C 0 28.109375 6.855469 35.867188 15.820312 37.273438 L 15.820312 24.167969 L 11.058594 24.167969 L 11.058594 18.75 L 15.820312 18.75 L 15.820312 14.617188 C 15.820312 9.917969 18.621094 7.324219 22.902344 7.324219 C 24.953125 7.324219 27.097656 7.691406 27.097656 7.691406 L 27.097656 12.304688 L 24.734375 12.304688 C 22.40625 12.304688 21.679688 13.75 21.679688 15.234375 L 21.679688 18.75 L 26.878906 18.75 L 26.046875 24.167969 L 21.679688 24.167969 L 21.679688 37.273438 C 30.644531 35.867188 37.5 28.109375 37.5 18.75 " fill-opacity="1" fill-rule="nonzero"/></g><g clip-path="url(#fa62b204d9)"><path fill="#ffffff" d="M 26.046875 24.167969 L 26.878906 18.75 L 21.679688 18.75 L 21.679688 15.234375 C 21.679688 13.75 22.40625 12.304688 24.734375 12.304688 L 27.097656 12.304688 L 27.097656 7.691406 C 27.097656 7.691406 24.953125 7.324219 22.902344 7.324219 C 18.621094 7.324219 15.820312 9.917969 15.820312 14.617188 L 15.820312 18.75 L 11.058594 18.75 L 11.058594 24.167969 L 15.820312 24.167969 L 15.820312 37.273438 C 16.773438 37.421875 17.753906 37.5 18.75 37.5 C 19.746094 37.5 20.726562 37.421875 21.679688 37.273438 L 21.679688 24.167969 L 26.046875 24.167969 " fill-opacity="1" fill-rule="nonzero"/></g></svg>