<svg xmlns="http://www.w3.org/2000/svg" xmlns:xlink="http://www.w3.org/1999/xlink" width="50" zoomAndPan="magnify" viewBox="0 0 37.5 37.499999" height="50" preserveAspectRatio="xMidYMid meet" version="1.0"><defs><clipPath id="1f23f86728"><path d="M 0 0 L 37.007812 0 L 37.007812 37.007812 L 0 37.007812 Z M 0 0 " clip-rule="nonzero"/></clipPath><clipPath id="aa59077c4c"><path d="M 0 5.109375 L 37.007812 5.109375 L 37.007812 32.109375 L 0 32.109375 Z M 0 5.109375 " clip-rule="nonzero"/></clipPath><clipPath id="8b4a25d61b"><path d="M 4 11 L 19 11 L 19 32.109375 L 4 32.109375 Z M 4 11 " clip-rule="nonzero"/></clipPath><clipPath id="3e7c47bbb8"><path d="M 0 6 L 6 6 L 6 32.109375 L 0 32.109375 Z M 0 6 " clip-rule="nonzero"/></clipPath><clipPath id="24373a5749"><path d="M 0 6 L 37.007812 6 L 37.007812 32.109375 L 0 32.109375 Z M 0 6 " clip-rule="nonzero"/></clipPath><clipPath id="f5af9ae1ed"><path d="M 32 6 L 37.007812 6 L 37.007812 32.109375 L 32 32.109375 Z M 32 6 " clip-rule="nonzero"/></clipPath><clipPath id="bc7df79353"><path d="M 0 8 L 37.007812 8 L 37.007812 32.109375 L 0 32.109375 Z M 0 8 " clip-rule="nonzero"/></clipPath><clipPath id="b934410668"><path d="M 0 5.109375 L 37.007812 5.109375 L 37.007812 23 L 0 23 Z M 0 5.109375 " clip-rule="nonzero"/></clipPath></defs><g clip-path="url(#1f23f86728)"><path fill="#ffffff" d="M 0 0 L 37.5 0 L 37.5 45 L 0 45 Z M 0 0 " fill-opacity="1" fill-rule="nonzero"/><path fill="#ffffff" d="M 0 0 L 37.5 0 L 37.5 37.5 L 0 37.5 Z M 0 0 " fill-opacity="1" fill-rule="nonzero"/><path fill="#ffffff" d="M 0 0 L 37.5 0 L 37.5 37.5 L 0 37.5 Z M 0 0 " fill-opacity="1" fill-rule="nonzero"/></g><g clip-path="url(#aa59077c4c)"><path fill="#f2f2f2" d="M 34.78125 32.011719 L 2.710938 32.011719 C 1.457031 32.011719 0.410156 31.03125 0.410156 29.765625 L 0.410156 7.804688 C 0.410156 7.503906 0.46875 7.210938 0.585938 6.933594 C 0.703125 6.65625 0.871094 6.410156 1.085938 6.195312 C 1.300781 5.984375 1.550781 5.820312 1.832031 5.703125 C 2.113281 5.585938 2.40625 5.53125 2.710938 5.527344 L 34.78125 5.527344 C 36.035156 5.527344 37.082031 6.550781 37.082031 7.808594 L 37.082031 29.734375 C 37.054688 31.035156 36.035156 32.015625 34.78125 32.015625 Z M 34.78125 32.011719 " fill-opacity="1" fill-rule="nonzero"/></g><g clip-path="url(#8b4a25d61b)"><path fill="#221f1f" d="M 4.996094 32.011719 L 18.714844 22.074219 L 18.800781 21.5 L 4.652344 11.4375 L 4.621094 31.523438 Z M 4.996094 32.011719 " fill-opacity="0.098" fill-rule="nonzero"/></g><g clip-path="url(#3e7c47bbb8)"><path fill="#d44c3d" d="M 2.710938 32.011719 C 1.441406 32.011719 0.410156 31.03125 0.410156 29.765625 L 0.410156 7.773438 C 0.410156 6.507812 1.441406 6.277344 2.710938 6.277344 C 3.980469 6.277344 5.011719 6.539062 5.011719 7.773438 L 5.011719 32.011719 Z M 2.710938 32.011719 " fill-opacity="1" fill-rule="nonzero"/></g><g clip-path="url(#24373a5749)"><path fill="#d44c3d" d="M 2.710938 6.621094 C 4.34375 6.621094 4.664062 7.113281 4.664062 7.773438 L 4.664062 31.695312 L 2.710938 31.695312 C 1.632812 31.695312 0.757812 30.828125 0.757812 29.761719 L 0.757812 7.773438 C 0.730469 7.09375 1.082031 6.621094 2.710938 6.621094 Z M 2.710938 6.304688 C 1.441406 6.304688 0.410156 6.566406 0.410156 7.773438 L 0.410156 29.734375 C 0.40625 30.039062 0.460938 30.328125 0.574219 30.609375 C 0.691406 30.890625 0.855469 31.140625 1.074219 31.355469 C 1.289062 31.570312 1.542969 31.734375 1.824219 31.847656 C 2.109375 31.960938 2.40625 32.015625 2.710938 32.011719 L 5.011719 32.011719 L 5.011719 7.773438 C 4.996094 6.535156 3.992188 6.304688 2.710938 6.304688 Z M 34.78125 6.621094 C 36.265625 6.621094 36.734375 6.910156 36.734375 7.71875 L 36.734375 29.792969 C 36.734375 30.859375 35.859375 31.726562 34.78125 31.726562 L 32.828125 31.726562 L 32.828125 7.71875 C 32.800781 6.882812 33.296875 6.621094 34.78125 6.621094 Z M 34.78125 6.304688 C 33.5 6.304688 32.480469 6.476562 32.480469 7.71875 L 32.480469 32.039062 L 34.78125 32.039062 C 36.0625 32.039062 37.082031 31.019531 37.082031 29.761719 L 37.082031 7.6875 C 37.054688 6.449219 36.035156 6.304688 34.78125 6.304688 Z M 34.78125 6.304688 " fill-opacity="1" fill-rule="nonzero"/></g><g clip-path="url(#f5af9ae1ed)"><path fill="#d44c3d" d="M 34.78125 32.011719 L 32.480469 32.011719 L 32.480469 7.71875 C 32.480469 6.449219 33.511719 6.304688 34.78125 6.304688 C 36.050781 6.304688 37.082031 6.480469 37.082031 7.71875 L 37.082031 29.792969 C 37.078125 30.089844 37.015625 30.375 36.894531 30.648438 C 36.773438 30.921875 36.605469 31.160156 36.390625 31.367188 C 36.175781 31.578125 35.929688 31.734375 35.652344 31.847656 C 35.371094 31.960938 35.082031 32.015625 34.78125 32.011719 Z M 34.78125 32.011719 " fill-opacity="1" fill-rule="nonzero"/></g><g clip-path="url(#bc7df79353)"><path fill="#221f1f" d="M 24.964844 32.011719 L 0.613281 8.738281 L 1.894531 9.257812 L 18.859375 21.335938 L 37.082031 8.09375 L 37.082031 29.792969 C 37.082031 30.09375 37.023438 30.382812 36.902344 30.660156 C 36.785156 30.9375 36.621094 31.179688 36.402344 31.390625 C 36.1875 31.601562 35.9375 31.761719 35.65625 31.875 C 35.375 31.988281 35.085938 32.042969 34.78125 32.042969 Z M 24.964844 32.011719 " fill-opacity="0.0784" fill-rule="nonzero"/></g><g clip-path="url(#b934410668)"><path fill="#d44c3d" d="M 18.703125 22.101562 L 1.398438 9.679688 C 0.367188 8.929688 0.0898438 7.488281 0.847656 6.480469 C 1.605469 5.46875 3.058594 5.238281 4.109375 5.988281 L 18.730469 16.511719 L 33.441406 5.847656 C 34.472656 5.097656 35.890625 5.328125 36.644531 6.363281 C 37.402344 7.386719 37.167969 8.789062 36.121094 9.535156 Z M 18.703125 22.101562 " fill-opacity="1" fill-rule="nonzero"/><path fill="#d44c3d" d="M 34.78125 5.757812 C 35.394531 5.757812 36.003906 6.046875 36.382812 6.566406 C 36.996094 7.429688 36.820312 8.640625 35.949219 9.289062 L 18.703125 21.699219 L 1.605469 9.421875 C 0.730469 8.785156 0.496094 7.546875 1.097656 6.699219 C 1.445312 6.179688 2.058594 5.863281 2.730469 5.863281 C 3.164062 5.863281 3.574219 5.976562 3.894531 6.234375 L 18.484375 16.730469 L 18.6875 16.84375 L 18.894531 16.730469 L 33.589844 6.074219 C 33.964844 5.871094 34.34375 5.757812 34.78125 5.757812 Z M 34.78125 5.414062 C 34.316406 5.414062 33.820312 5.527344 33.441406 5.84375 L 18.730469 16.511719 L 4.078125 5.960938 C 3.703125 5.671875 3.207031 5.527344 2.710938 5.527344 C 1.984375 5.558594 1.253906 5.875 0.816406 6.480469 C 0.0898438 7.503906 0.382812 8.902344 1.398438 9.652344 L 18.703125 22.101562 L 36.121094 9.535156 C 36.367188 9.355469 36.570312 9.140625 36.726562 8.882812 C 36.886719 8.628906 36.988281 8.351562 37.039062 8.054688 C 37.089844 7.757812 37.078125 7.464844 37.011719 7.171875 C 36.941406 6.878906 36.820312 6.609375 36.644531 6.363281 C 36.179688 5.757812 35.480469 5.410156 34.78125 5.410156 Z M 34.78125 5.414062 " fill-opacity="1" fill-rule="nonzero"/></g></svg>