<svg xmlns="http://www.w3.org/2000/svg" xmlns:xlink="http://www.w3.org/1999/xlink" width="300" zoomAndPan="magnify" viewBox="0 0 224.87999 374.999991" height="500" preserveAspectRatio="xMidYMid meet" version="1.0"><defs><g/><clipPath id="7180a89511"><path d="M 26 22.589844 L 199 22.589844 L 199 282 L 26 282 Z M 26 22.589844 " clip-rule="nonzero"/></clipPath></defs><g clip-path="url(#7180a89511)"><path fill="#37160c" d="M 112.574219 276.578125 C 118.226562 276.644531 123.703125 275.707031 129.007812 273.757812 C 130.933594 278.554688 136.238281 280.132812 140.164062 277.253906 C 140.976562 277.765625 141.84375 278.160156 142.765625 278.429688 C 143.691406 278.703125 144.632812 278.839844 145.597656 278.84375 C 146.558594 278.847656 147.503906 278.722656 148.429688 278.460938 C 149.355469 278.199219 150.226562 277.816406 151.042969 277.308594 C 155.792969 280.277344 159.714844 278.800781 161.742188 275.421875 C 183.714844 291.53125 196.808594 270.535156 184.007812 262.792969 C 202.449219 231.089844 182.675781 224.472656 176.910156 223.242188 C 175.917969 204.648438 168.074219 191.859375 164.90625 187.398438 C 185.667969 177.308594 198.527344 160.042969 197.976562 136.867188 C 197.761719 127.957031 195.550781 118.296875 191.175781 108.050781 C 210.613281 51.394531 187.539062 23.472656 187.472656 23.386719 C 187.28125 23.132812 187.039062 22.945312 186.742188 22.828125 C 186.449219 22.707031 186.140625 22.675781 185.828125 22.726562 C 154.738281 23.019531 135.828125 46.394531 132.339844 51.074219 C 125.820312 49.679688 119.230469 48.980469 112.5625 48.980469 C 105.898438 48.980469 99.308594 49.679688 92.789062 51.074219 C 89.289062 46.351562 70.378906 23.019531 39.3125 22.726562 C 39 22.675781 38.695312 22.707031 38.398438 22.820312 C 38.101562 22.9375 37.859375 23.121094 37.667969 23.375 C 37.605469 23.460938 14.53125 51.382812 33.96875 108.050781 C 29.578125 118.308594 27.371094 127.96875 27.164062 136.875 C 26.59375 160.300781 39.769531 177.410156 60.222656 187.414062 C 57.054688 191.878906 49.21875 204.675781 48.226562 223.253906 C 42.457031 224.472656 22.683594 231.09375 41.125 262.792969 C 33.332031 267.503906 35.039062 277.5625 43.320312 280.53125 C 48.128906 282.257812 55.15625 281.484375 63.414062 275.414062 C 65.441406 278.796875 69.363281 280.265625 74.105469 277.296875 C 74.921875 277.804688 75.796875 278.1875 76.722656 278.449219 C 77.648438 278.710938 78.59375 278.839844 79.558594 278.835938 C 80.519531 278.828125 81.464844 278.691406 82.386719 278.421875 C 83.3125 278.148438 84.179688 277.757812 84.992188 277.242188 C 88.917969 280.121094 94.21875 278.542969 96.144531 273.746094 C 101.445312 275.699219 106.925781 276.636719 112.578125 276.566406 " fill-opacity="1" fill-rule="nonzero"/></g><path fill="#ff7c6c" d="M 185.648438 26.773438 C 189.476562 32.410156 203.671875 57.53125 189.046875 103.414062 C 184.140625 93.269531 177.144531 82.5625 167.914062 71.445312 C 159.449219 45.566406 180.109375 30.308594 185.636719 26.773438 " fill-opacity="1" fill-rule="nonzero"/><path fill="#f75c4c" d="M 194.140625 82.207031 C 192.980469 89.40625 191.28125 96.472656 189.039062 103.414062 C 184.132812 93.269531 177.140625 82.5625 167.910156 71.445312 C 159.441406 45.566406 180.105469 30.308594 185.628906 26.773438 C 185.628906 26.773438 165.355469 57.433594 194.128906 82.207031 " fill-opacity="1" fill-rule="nonzero"/><path fill="#d18722" d="M 151.929688 258.476562 C 162.972656 263.300781 161.238281 279.175781 153.164062 274.546875 C 153.628906 273.238281 153.953125 271.898438 154.136719 270.519531 C 154.320312 269.144531 154.359375 267.765625 154.253906 266.382812 C 154.144531 265 153.898438 263.640625 153.503906 262.308594 C 153.113281 260.976562 152.589844 259.699219 151.929688 258.476562 " fill-opacity="1" fill-rule="nonzero"/><path fill="#d18722" d="M 87.226562 274.625 C 87.6875 273.347656 88.011719 272.03125 88.199219 270.6875 C 88.390625 269.339844 88.441406 267.988281 88.351562 266.628906 C 88.261719 265.273438 88.035156 263.9375 87.671875 262.628906 C 87.304688 261.316406 86.8125 260.058594 86.1875 258.847656 C 90.398438 260.90625 93.394531 264.867188 93.394531 269.71875 C 93.394531 274.789062 89.628906 276.214844 87.226562 274.636719 " fill-opacity="1" fill-rule="nonzero"/><path fill="#d18722" d="M 141.359375 273.898438 C 138.164062 265.648438 142.492188 259.167969 143.925781 257.335938 L 147.09375 257.296875 C 148.515625 259.09375 152.988281 265.707031 149.609375 274.113281 C 149.003906 274.539062 148.34375 274.859375 147.632812 275.074219 C 146.921875 275.289062 146.191406 275.382812 145.449219 275.367188 C 144.707031 275.347656 143.984375 275.210938 143.285156 274.960938 C 142.585938 274.710938 141.945312 274.355469 141.359375 273.898438 " fill-opacity="1" fill-rule="nonzero"/><path fill="#d18722" d="M 49.847656 263.851562 C 52.113281 263.699219 51.898438 260.238281 49.613281 260.398438 C 47.804688 260.503906 46.039062 260.828125 44.308594 261.371094 C 28.71875 234.757812 42.609375 228.296875 48.117188 226.84375 C 48.0625 239.773438 51.40625 255.222656 61.609375 272.441406 C 40.75 287.992188 30.515625 265.199219 49.839844 263.851562 " fill-opacity="1" fill-rule="nonzero"/><path fill="#d18722" d="M 175.527344 260.398438 C 173.257812 260.246094 173.003906 263.695312 175.292969 263.851562 C 194.589844 265.164062 184.40625 288.015625 163.523438 272.441406 C 173.722656 255.222656 177.066406 239.753906 177.011719 226.84375 C 182.496094 228.296875 196.414062 234.734375 180.820312 261.371094 C 179.09375 260.832031 177.328125 260.507812 175.527344 260.398438 " fill-opacity="1" fill-rule="nonzero"/><path fill="#f5a42d" d="M 128.269531 270.328125 C 119.140625 274.0625 106 274.0625 96.871094 270.328125 C 96.871094 270.117188 96.871094 269.910156 96.871094 269.695312 C 96.878906 268.046875 96.617188 266.441406 96.082031 264.878906 C 95.550781 263.320312 94.773438 261.886719 93.757812 260.582031 C 89.792969 245.046875 95.726562 234.097656 95.742188 234.097656 C 96.796875 232.078125 93.71875 230.484375 92.660156 232.496094 C 92.660156 232.53125 87.320312 242.398438 89.441406 256.730469 C 82.5625 252.382812 73.488281 252.671875 67.113281 258.417969 C 65.898438 259.492188 64.871094 260.722656 64.042969 262.113281 C 63.210938 263.5 62.609375 264.980469 62.238281 266.558594 C 53.8125 250.785156 51.269531 236.730469 51.621094 225.035156 C 51.632812 224.910156 51.632812 224.789062 51.621094 224.664062 C 52.292969 205.414062 60.742188 192.542969 63.417969 188.917969 C 92.511719 201.683594 132.554688 201.59375 161.6875 188.917969 C 164.351562 192.515625 172.816406 205.402344 173.492188 224.675781 C 173.480469 224.800781 173.480469 224.921875 173.492188 225.046875 C 173.835938 236.761719 171.296875 250.816406 162.847656 266.558594 C 162.480469 264.980469 161.878906 263.5 161.046875 262.113281 C 160.214844 260.722656 159.191406 259.492188 157.976562 258.417969 C 151.605469 252.671875 142.527344 252.382812 135.652344 256.730469 C 137.765625 242.414062 132.445312 232.546875 132.429688 232.496094 C 131.371094 230.484375 128.292969 232.085938 129.351562 234.097656 C 129.351562 234.132812 135.269531 245.0625 131.335938 260.582031 C 130.320312 261.886719 129.542969 263.316406 129.011719 264.878906 C 128.476562 266.441406 128.214844 268.046875 128.222656 269.695312 C 128.222656 269.910156 128.222656 270.117188 128.222656 270.328125 " fill-opacity="1" fill-rule="nonzero"/><path fill="#d18722" d="M 172.765625 216.734375 C 173.164062 219.351562 173.410156 221.980469 173.503906 224.625 C 173.492188 224.75 173.492188 224.871094 173.503906 224.996094 C 173.847656 236.710938 171.308594 250.765625 162.859375 266.507812 C 162.492188 264.929688 161.890625 263.449219 161.058594 262.0625 C 160.226562 260.671875 159.203125 259.441406 157.988281 258.367188 C 151.617188 252.621094 142.539062 252.332031 135.664062 256.679688 C 135.898438 255.09375 136.039062 253.5625 136.113281 252.097656 C 146.804688 244.070312 174.976562 255.5625 172.75 216.71875 " fill-opacity="1" fill-rule="nonzero"/><path fill="#d18722" d="M 60.386719 193.578125 C 61.3125 191.960938 62.328125 190.398438 63.429688 188.894531 C 92.523438 201.660156 132.566406 201.570312 161.699219 188.894531 C 162.804688 190.402344 163.820312 191.96875 164.746094 193.589844 C 135.199219 208.953125 89.945312 208.953125 60.386719 193.589844 " fill-opacity="1" fill-rule="nonzero"/><path fill="#ffffff" d="M 92.785156 255.394531 C 91.125 242.667969 95.742188 234.109375 95.757812 234.082031 C 96.8125 232.0625 93.734375 230.46875 92.675781 232.480469 C 80.417969 219.097656 79.695312 195.335938 79.671875 194.4375 C 100.597656 199.785156 124.519531 199.75 145.453125 194.40625 C 145.453125 194.40625 144.941406 218.832031 132.457031 232.480469 C 131.398438 230.46875 128.320312 232.070312 129.378906 234.082031 C 129.378906 234.109375 133.347656 241.460938 132.621094 252.675781 C 132.558594 252.757812 116.503906 273.757812 92.785156 255.386719 " fill-opacity="1" fill-rule="nonzero"/><path fill="#cccccc" d="M 83.632812 195.375 L 84.402344 195.539062 M 80.242188 201.085938 C 79.757812 197.289062 79.675781 194.722656 79.675781 194.4375 L 79.777344 194.464844 L 81.480469 194.875 L 81.839844 194.960938 L 82.667969 195.152344 L 83.667969 195.375 L 84.4375 195.539062 L 84.894531 195.640625 L 86.4375 195.953125 L 86.6875 196.003906 L 87.542969 196.164062 L 87.898438 196.226562 C 88.464844 196.328125 88.976562 196.425781 89.519531 196.515625 L 89.742188 196.554688 L 90.648438 196.703125 L 90.917969 196.746094 C 91.488281 196.835938 92.054688 196.925781 92.621094 197.003906 L 92.816406 197.035156 L 93.742188 197.167969 L 93.996094 197.203125 L 95.695312 197.417969 L 95.976562 197.449219 L 96.871094 197.558594 L 97.1875 197.589844 L 98.757812 197.753906 L 99.152344 197.792969 C 100.09375 197.882812 101.035156 197.964844 101.988281 198.035156 L 102.257812 198.035156 C 103.210938 198.109375 104.15625 198.171875 105.09375 198.222656 L 105.4375 198.222656 C 106.394531 198.269531 107.355469 198.308594 108.3125 198.335938 L 108.542969 198.335938 C 109.148438 198.335938 109.757812 198.371094 110.363281 198.375 L 114.800781 198.375 L 116.699219 198.328125 L 116.84375 198.328125 C 117.824219 198.300781 118.8125 198.261719 119.792969 198.207031 L 120.046875 198.207031 C 121.035156 198.15625 122.015625 198.085938 122.992188 198.015625 L 123.164062 198.015625 C 124.160156 197.941406 125.160156 197.851562 126.152344 197.753906 L 126.273438 197.753906 C 127.285156 197.652344 128.285156 197.539062 129.289062 197.421875 L 129.359375 197.421875 C 131.054688 197.210938 132.738281 196.972656 134.40625 196.707031 L 134.46875 196.707031 C 135.464844 196.546875 136.449219 196.375 137.425781 196.195312 L 137.550781 196.164062 C 138.511719 195.992188 139.460938 195.800781 140.386719 195.601562 L 140.601562 195.558594 C 141.53125 195.359375 142.449219 195.152344 143.367188 194.9375 L 143.636719 194.871094 L 145.457031 194.425781 C 145.457031 194.425781 145.402344 197.066406 144.890625 201.101562 C 124.410156 206.4375 100.710938 206.4375 80.242188 201.085938 Z M 80.242188 201.085938 " fill-opacity="1" fill-rule="nonzero"/><path fill="#d18722" d="M 131.863281 271.335938 C 131.855469 271.222656 131.835938 271.113281 131.804688 271.003906 C 131.238281 267.03125 133.5625 261.351562 139.007812 258.699219 C 138.371094 259.914062 137.867188 261.175781 137.492188 262.492188 C 137.117188 263.808594 136.878906 265.148438 136.78125 266.511719 C 136.683594 267.875 136.726562 269.238281 136.910156 270.59375 C 137.097656 271.945312 137.417969 273.269531 137.875 274.558594 C 135.3125 276.355469 132.457031 274.484375 131.84375 271.335938 " fill-opacity="1" fill-rule="nonzero"/><path fill="#d18722" d="M 75.523438 274.113281 C 72.121094 265.660156 76.65625 259.0625 78.050781 257.285156 C 79.109375 257.203125 80.167969 257.226562 81.222656 257.359375 C 82.679688 259.21875 86.957031 265.683594 83.78125 273.898438 C 83.195312 274.355469 82.550781 274.710938 81.851562 274.960938 C 81.152344 275.210938 80.429688 275.34375 79.6875 275.363281 C 78.945312 275.382812 78.214844 275.285156 77.503906 275.074219 C 76.792969 274.859375 76.132812 274.539062 75.523438 274.113281 " fill-opacity="1" fill-rule="nonzero"/><path fill="#d18722" d="M 73.210938 258.515625 C 72.558594 259.734375 72.035156 261.007812 71.648438 262.335938 C 71.261719 263.664062 71.015625 265.015625 70.910156 266.394531 C 70.804688 267.773438 70.84375 269.148438 71.027344 270.519531 C 71.210938 271.890625 71.535156 273.226562 72 274.53125 C 64.246094 279.253906 61.820312 263.605469 73.210938 258.515625 " fill-opacity="1" fill-rule="nonzero"/><path fill="#f5a42d" d="M 76.140625 56.96875 C 74.117188 58.03125 75.742188 61.09375 77.765625 60.03125 C 97.035156 49.890625 128.117188 49.890625 147.371094 60.03125 C 149.390625 61.09375 151.023438 58.039062 148.992188 56.96875 C 144.851562 54.832031 140.523438 53.167969 136.015625 51.972656 C 140.550781 46.242188 155.890625 29.203125 180.003906 26.546875 C 171.554688 33.15625 156.679688 48.8125 164.730469 72.84375 C 164.796875 73.050781 164.902344 73.238281 165.042969 73.40625 C 187.964844 100.890625 202.199219 132.746094 190.195312 158.664062 C 167.773438 207.085938 57.371094 207.085938 34.925781 158.664062 C 22.929688 132.738281 37.191406 100.890625 60.085938 73.40625 C 60.226562 73.238281 60.328125 73.050781 60.398438 72.84375 C 68.449219 48.8125 53.597656 33.160156 45.125 26.546875 C 69.226562 29.195312 84.566406 46.226562 89.101562 51.96875 C 84.59375 53.160156 80.269531 54.828125 76.128906 56.96875 " fill-opacity="1" fill-rule="nonzero"/><path fill="#ffffff" d="M 194.542969 138.527344 C 194.574219 145.554688 193.121094 152.261719 190.191406 158.65625 C 167.769531 207.082031 57.367188 207.082031 34.921875 158.65625 C 31.992188 152.261719 30.542969 145.554688 30.566406 138.527344 C 35.882812 136.019531 42.804688 134.5 50.367188 134.5 C 61.191406 134.5 70.6875 137.601562 76.050781 142.28125 C 82.59375 133.335938 96.480469 122.878906 112.542969 122.878906 C 128.609375 122.878906 142.5 133.335938 149.039062 142.28125 C 154.398438 137.601562 163.898438 134.5 174.722656 134.5 C 182.292969 134.5 189.210938 136.019531 194.519531 138.527344 " fill-opacity="1" fill-rule="nonzero"/><path fill="#cccccc" d="M 194.542969 138.527344 C 194.574219 145.554688 193.121094 152.261719 190.191406 158.65625 C 167.769531 207.082031 57.367188 207.082031 34.921875 158.65625 C 31.992188 152.261719 30.542969 145.554688 30.566406 138.527344 L 31.011719 138.324219 C 31.625 143.039062 32.929688 147.558594 34.921875 151.882812 C 57.34375 200.3125 167.746094 200.3125 190.191406 151.882812 C 192.1875 147.5625 193.492188 143.042969 194.101562 138.324219 L 194.542969 138.527344 " fill-opacity="1" fill-rule="nonzero"/><path fill="#37160c" d="M 82.277344 155.445312 C 81.304688 153.382812 78.152344 154.882812 79.132812 156.921875 C 79.132812 156.957031 82.425781 164.105469 89.332031 167.261719 C 90.535156 171.402344 96.320312 187.449219 112.53125 187.761719 L 112.753906 187.761719 C 128.957031 187.25 134.601562 171.453125 135.8125 167.269531 C 142.703125 164.117188 145.984375 156.960938 146.011719 156.925781 C 146.988281 154.863281 143.84375 153.386719 142.867188 155.449219 C 142.867188 155.5 134.46875 173.789062 115.617188 159.738281 L 115.949219 156.359375 C 132.949219 155.445312 139.117188 135.035156 119.039062 130.113281 C 114.019531 128.886719 110.804688 128.9375 105.785156 130.253906 C 85.894531 135.488281 92.570312 155.460938 109.21875 156.359375 L 109.550781 159.738281 C 90.699219 173.789062 82.351562 155.5 82.304688 155.449219 " fill-opacity="1" fill-rule="nonzero"/><path fill="#ff7c6c" d="M 112.566406 184.308594 C 104.757812 184.089844 99.789062 179.613281 96.738281 175.085938 C 99.390625 171.425781 105.484375 168.886719 112.566406 168.886719 C 119.652344 168.886719 125.742188 171.445312 128.398438 175.085938 C 125.351562 179.59375 120.375 184.101562 112.566406 184.308594 " fill-opacity="1" fill-rule="nonzero"/><path fill="#37160c" d="M 88.101562 96.484375 C 76.769531 82.753906 56.988281 92.335938 56.988281 111.613281 C 56.988281 130.890625 76.746094 140.503906 88.101562 126.75 C 95.046875 118.351562 95.046875 104.878906 88.101562 96.484375 " fill-opacity="1" fill-rule="nonzero"/><path fill="#37160c" d="M 75.148438 93.5 C 88.183594 93.5 94.820312 113.191406 85.417969 124.558594 C 76.164062 135.75 60.484375 127.632812 60.484375 111.597656 C 60.484375 102.578125 66.320312 93.484375 75.160156 93.484375 " fill-opacity="1" fill-rule="nonzero"/><path fill="#000000" d="M 149.992188 93.5 C 163.023438 93.5 169.65625 113.191406 160.257812 124.558594 C 151 135.75 135.324219 127.632812 135.324219 111.597656 C 135.324219 102.578125 141.160156 93.484375 150.003906 93.484375 " fill-opacity="1" fill-rule="nonzero"/><path fill="#37160c" d="M 162.941406 96.484375 C 151.605469 82.753906 131.824219 92.335938 131.824219 111.613281 C 131.824219 130.890625 151.589844 140.476562 162.941406 126.75 C 169.886719 118.351562 169.886719 104.878906 162.941406 96.484375 " fill-opacity="1" fill-rule="nonzero"/><path fill="#ff7c6c" d="M 36.082031 103.414062 C 21.460938 57.53125 35.664062 32.410156 39.480469 26.773438 C 45 30.308594 65.667969 45.566406 57.195312 71.445312 C 47.964844 82.550781 40.976562 93.253906 36.070312 103.414062 " fill-opacity="1" fill-rule="nonzero"/><path fill="#f75c4c" d="M 31 82.207031 C 32.152344 89.40625 33.855469 96.476562 36.097656 103.414062 C 41.007812 93.269531 48 82.5625 57.226562 71.445312 C 65.695312 45.566406 45.03125 30.308594 39.511719 26.773438 C 39.511719 26.773438 59.785156 57.433594 31.011719 82.207031 " fill-opacity="1" fill-rule="nonzero"/><path fill="#d18722" d="M 52.367188 216.734375 C 51.96875 219.351562 51.722656 221.980469 51.632812 224.625 C 51.644531 224.75 51.644531 224.871094 51.632812 224.996094 C 51.28125 236.710938 53.824219 250.765625 62.269531 266.507812 C 62.636719 264.929688 63.238281 263.449219 64.070312 262.0625 C 64.902344 260.671875 65.925781 259.441406 67.140625 258.367188 C 73.515625 252.621094 82.589844 252.332031 89.46875 256.679688 C 89.242188 255.160156 89.09375 253.632812 89.019531 252.097656 C 78.3125 244.089844 50.148438 255.578125 52.367188 216.734375 " fill-opacity="1" fill-rule="nonzero"/><path fill="#ffffff" d="M 149.984375 95.917969 C 146.195312 95.917969 143.121094 99.683594 143.121094 104.328125 C 143.121094 108.96875 146.195312 112.734375 149.984375 112.734375 C 153.777344 112.734375 156.851562 108.949219 156.851562 104.328125 C 156.851562 99.707031 153.78125 95.917969 149.984375 95.917969 " fill-opacity="1" fill-rule="nonzero"/><path fill="#ffffff" d="M 75.148438 95.917969 C 71.359375 95.917969 68.28125 99.683594 68.28125 104.328125 C 68.28125 108.96875 71.359375 112.734375 75.148438 112.734375 C 78.941406 112.734375 82.015625 108.949219 82.015625 104.328125 C 82.015625 99.707031 78.941406 95.917969 75.148438 95.917969 " fill-opacity="1" fill-rule="nonzero"/><path fill="#cccccc" d="M 132.621094 252.683594 C 132.558594 252.761719 116.503906 273.765625 92.777344 255.394531 C 93.007812 257.144531 93.339844 258.871094 93.777344 260.582031 C 94.792969 261.886719 95.566406 263.320312 96.097656 264.878906 C 96.632812 266.441406 96.894531 268.046875 96.886719 269.695312 C 96.886719 269.910156 96.886719 270.117188 96.886719 270.328125 C 106.015625 274.0625 119.15625 274.0625 128.285156 270.328125 C 128.285156 270.117188 128.285156 269.910156 128.285156 269.695312 C 128.277344 268.046875 128.539062 266.441406 129.074219 264.878906 C 129.605469 263.316406 130.378906 261.886719 131.398438 260.582031 C 132.054688 257.992188 132.476562 255.363281 132.65625 252.695312 " fill-opacity="1" fill-rule="nonzero"/><g fill="#37160c" fill-opacity="1"><g transform="translate(0.881909, 346.531872)"><g><path d="M 1.734375 -9.78125 C 3.765625 -12.757812 5.929688 -14.285156 8.234375 -14.359375 C 10.234375 -14.234375 12.117188 -13.179688 13.890625 -11.203125 C 15.765625 -9.035156 17.78125 -7.953125 19.9375 -7.953125 C 21.632812 -7.953125 22.820312 -8.304688 23.5 -9.015625 C 24.1875 -9.734375 24.546875 -10.671875 24.578125 -11.828125 C 24.546875 -12.890625 24.160156 -13.71875 23.421875 -14.3125 C 22.679688 -14.90625 21.046875 -15.609375 18.515625 -16.421875 C 14.273438 -17.847656 10.753906 -19.46875 7.953125 -21.28125 C 5.160156 -23.101562 3.738281 -25.757812 3.6875 -29.25 C 3.738281 -32.832031 5.5 -35.820312 8.96875 -38.21875 C 12.4375 -40.625 16.109375 -41.828125 19.984375 -41.828125 C 24.046875 -41.773438 27.570312 -41.035156 30.5625 -39.609375 C 33.5625 -38.179688 35.0625 -36.425781 35.0625 -34.34375 C 35.0625 -32.289062 32.476562 -30.945312 27.3125 -30.3125 C 25.832031 -31.414062 24.578125 -32.40625 23.546875 -33.28125 C 22.515625 -34.15625 21.222656 -34.59375 19.671875 -34.59375 C 18.429688 -34.539062 17.398438 -34.128906 16.578125 -33.359375 C 15.765625 -32.597656 15.359375 -31.625 15.359375 -30.4375 C 15.359375 -29.769531 15.90625 -29.097656 17 -28.421875 C 18.09375 -27.753906 19.578125 -27.101562 21.453125 -26.46875 C 26.304688 -25.175781 30.085938 -23.453125 32.796875 -21.296875 C 35.515625 -19.148438 36.875 -16.242188 36.875 -12.578125 C 36.875 -8.910156 35.144531 -5.804688 31.6875 -3.265625 C 28.238281 -0.722656 24.320312 0.5625 19.9375 0.59375 C 13.289062 0.5625 7.222656 -2.894531 1.734375 -9.78125 Z M 1.734375 -9.78125 "/></g></g></g><g fill="#37160c" fill-opacity="1"><g transform="translate(37.234839, 346.531872)"><g><path d="M 4.78125 -39.34375 C 8.164062 -40.519531 10.503906 -41.109375 11.796875 -41.109375 C 13.054688 -41.109375 14.953125 -40.648438 17.484375 -39.734375 L 17.484375 -25.171875 L 26.59375 -25.71875 L 26.59375 -39.34375 C 29.601562 -40.519531 31.753906 -41.109375 33.046875 -41.109375 C 34.253906 -41.109375 36.351562 -40.703125 39.34375 -39.890625 L 39.34375 -0.640625 C 35.664062 0.523438 33.171875 1.109375 31.859375 1.109375 C 28.847656 1.109375 27.09375 -0.289062 26.59375 -3.09375 L 26.59375 -16.21875 L 17.484375 -15.625 L 17.484375 -0.640625 C 14.210938 0.523438 11.84375 1.109375 10.375 1.109375 C 7.550781 1.109375 5.6875 -0.25 4.78125 -2.96875 Z M 4.78125 -39.34375 "/></g></g></g><g fill="#37160c" fill-opacity="1"><g transform="translate(79.682472, 346.531872)"><g><path d="M 4.78125 -2.96875 L 4.78125 -39.65625 C 8.34375 -41.3125 10.890625 -42.140625 12.421875 -42.140625 C 15.085938 -42.015625 16.921875 -40.800781 17.921875 -38.5 L 17.921875 -2.40625 C 14.472656 -0.5625 11.890625 0.359375 10.171875 0.359375 C 7.554688 0.359375 5.757812 -0.75 4.78125 -2.96875 Z M 4.78125 -2.96875 "/></g></g></g><g fill="#37160c" fill-opacity="1"><g transform="translate(100.759062, 346.531872)"><g><path d="M 16.109375 -17.53125 L 16.109375 -8.671875 L 21.375 -8.671875 C 23.132812 -8.722656 24.304688 -9.285156 24.890625 -10.359375 C 25.472656 -11.441406 25.773438 -12.738281 25.796875 -14.25 C 25.773438 -15.0625 25.398438 -15.820312 24.671875 -16.53125 C 23.941406 -17.25 23.023438 -17.660156 21.921875 -17.765625 Z M 16.109375 -25.046875 L 21.09375 -25.328125 C 22.144531 -25.378906 22.925781 -25.8125 23.4375 -26.625 C 23.957031 -27.445312 24.21875 -28.375 24.21875 -29.40625 C 24.21875 -30.40625 23.898438 -31.125 23.265625 -31.5625 C 22.628906 -32 21.3125 -32.226562 19.3125 -32.25 L 16.109375 -32.25 Z M 4.75 -41.3125 L 19.34375 -41.3125 C 26.15625 -41.257812 30.703125 -40.003906 32.984375 -37.546875 C 35.265625 -35.097656 36.40625 -32.609375 36.40625 -30.078125 C 36.40625 -27.804688 35.992188 -25.882812 35.171875 -24.3125 C 34.359375 -22.75 33.78125 -21.875 33.4375 -21.6875 C 34.019531 -21.6875 34.992188 -20.957031 36.359375 -19.5 C 37.734375 -18.050781 38.421875 -16.023438 38.421875 -13.421875 C 38.421875 -10.828125 37.257812 -7.914062 34.9375 -4.6875 C 32.625 -1.457031 28.15625 0.207031 21.53125 0.3125 L 4.75 0.3125 Z M 4.75 -41.3125 "/></g></g></g><g fill="#37160c" fill-opacity="1"><g transform="translate(138.695036, 346.531872)"><g><path d="M 18.125 -1.78125 C 14.695312 0.644531 11.925781 1.882812 9.8125 1.9375 C 7.125 1.9375 5.195312 0.5 4.03125 -2.375 L 4.03125 -9.34375 C 7.488281 -11.738281 10.25 -12.9375 12.3125 -12.9375 C 14.96875 -12.882812 16.90625 -11.328125 18.125 -8.265625 Z M 18.125 -1.78125 "/></g></g></g><g fill="#37160c" fill-opacity="1"><g transform="translate(158.267738, 346.531872)"><g><path d="M 22.234375 -27.46875 L 18.84375 -19.78125 L 25.640625 -19.78125 Z M 26.796875 -12.75 L 17.765625 -12.234375 L 13.453125 -1.0625 C 10.679688 -0.25 8.597656 0.15625 7.203125 0.15625 C 4.960938 0.15625 2.957031 -0.953125 1.1875 -3.171875 L 15.515625 -40.09375 C 20.046875 -41.332031 23.039062 -41.953125 24.5 -41.953125 C 26.5 -41.953125 28.4375 -41.1875 30.3125 -39.65625 L 43.578125 -1.34375 C 39.222656 -0.257812 36.359375 0.28125 34.984375 0.28125 C 32.742188 0.28125 31.175781 -0.671875 30.28125 -2.578125 Z M 26.796875 -12.75 "/></g></g></g><g fill="#37160c" fill-opacity="1"><g transform="translate(200.47791, 346.531872)"><g><path d="M 4.78125 -2.96875 L 4.78125 -39.65625 C 8.34375 -41.3125 10.890625 -42.140625 12.421875 -42.140625 C 15.085938 -42.015625 16.921875 -40.800781 17.921875 -38.5 L 17.921875 -2.40625 C 14.472656 -0.5625 11.890625 0.359375 10.171875 0.359375 C 7.554688 0.359375 5.757812 -0.75 4.78125 -2.96875 Z M 4.78125 -2.96875 "/></g></g></g></svg>