<svg xmlns="http://www.w3.org/2000/svg" xmlns:xlink="http://www.w3.org/1999/xlink" width="100" zoomAndPan="magnify" viewBox="0 0 75 74.999997" height="100" preserveAspectRatio="xMidYMid meet" version="1.0"><defs><clipPath id="b3acaad6b4"><path d="M 17 7.5 L 55 7.5 L 55 30 L 17 30 Z M 17 7.5 " clip-rule="nonzero"/></clipPath></defs><g clip-path="url(#b3acaad6b4)"><path fill="#ffffff" d="M 53.746094 30 C 53.699219 30 53.65625 29.992188 53.613281 29.976562 C 53.417969 29.902344 53.320312 29.683594 53.394531 29.488281 C 53.558594 29.058594 53.671875 28.519531 53.734375 27.886719 C 53.773438 27.484375 53.796875 27.050781 53.796875 26.597656 C 53.796875 18.660156 48.9375 11.65625 41.703125 9.175781 C 39.933594 8.566406 38.078125 8.261719 36.195312 8.261719 C 26.492188 8.261719 18.59375 16.488281 18.59375 26.601562 C 18.59375 27.230469 18.625 27.863281 18.683594 28.472656 C 18.707031 28.679688 18.554688 28.867188 18.347656 28.886719 C 18.144531 28.910156 17.957031 28.757812 17.9375 28.550781 C 17.875 27.910156 17.84375 27.257812 17.84375 26.601562 C 17.84375 16.070312 26.074219 7.503906 36.195312 7.503906 C 38.164062 7.503906 40.101562 7.828125 41.945312 8.460938 C 49.480469 11.046875 54.546875 18.339844 54.546875 26.601562 C 54.546875 27.078125 54.523438 27.535156 54.484375 27.964844 C 54.414062 28.664062 54.28125 29.265625 54.097656 29.761719 C 54.042969 29.910156 53.898438 30 53.746094 30 Z M 53.746094 30 " fill-opacity="1" fill-rule="nonzero"/></g><path fill="#20a7d1" d="M 68.46875 52.929688 L 65.597656 52.550781 L 57.421875 51.46875 L 58.695312 45.492188 L 60.367188 37.65625 C 61.773438 36.667969 63.4375 36.03125 65.042969 35.847656 C 66.457031 35.691406 67.832031 35.882812 68.953125 36.503906 C 69.417969 36.761719 69.78125 37.179688 69.984375 37.671875 C 70.511719 38.929688 70.859375 40.304688 71.054688 41.707031 C 71.675781 46.152344 70.691406 50.875 68.46875 52.929688 Z M 68.46875 52.929688 " fill-opacity="1" fill-rule="nonzero"/><path fill="#b0bac6" d="M 68.46875 52.929688 L 65.597656 52.550781 C 65.71875 51.917969 65.800781 51.511719 65.800781 51.511719 C 69.015625 48.878906 68.609375 38.429688 65.042969 35.847656 C 66.457031 35.6875 67.832031 35.882812 68.953125 36.503906 C 69.417969 36.757812 69.78125 37.175781 69.984375 37.667969 C 72.171875 42.917969 71.394531 50.226562 68.46875 52.929688 Z M 68.46875 52.929688 " fill-opacity="1" fill-rule="nonzero"/><path fill="#66142e" d="M 68.492188 52.996094 L 65.527344 52.605469 L 65.539062 52.539062 C 65.660156 51.910156 65.742188 51.503906 65.746094 51.5 L 65.75 51.476562 L 65.765625 51.464844 C 67.199219 50.292969 68.019531 47.410156 67.917969 43.941406 C 67.808594 40.253906 66.664062 37.101562 65.007812 35.902344 L 64.984375 35.882812 L 64.984375 35.792969 L 65.039062 35.785156 C 66.535156 35.617188 67.898438 35.847656 68.988281 36.449219 C 69.457031 36.710938 69.835938 37.136719 70.046875 37.648438 C 71.089844 40.148438 71.511719 43.285156 71.207031 46.261719 C 70.90625 49.222656 69.925781 51.667969 68.515625 52.972656 Z M 65.671875 52.496094 L 68.449219 52.863281 C 69.824219 51.574219 70.785156 49.167969 71.082031 46.25 C 71.382812 43.292969 70.964844 40.175781 69.929688 37.699219 C 69.726562 37.210938 69.367188 36.808594 68.925781 36.558594 C 67.898438 35.988281 66.617188 35.761719 65.207031 35.894531 C 66.824219 37.179688 67.933594 40.308594 68.039062 43.9375 C 68.144531 47.429688 67.308594 50.339844 65.863281 51.546875 C 65.84375 51.632812 65.769531 51.988281 65.671875 52.496094 Z M 65.671875 52.496094 " fill-opacity="1" fill-rule="nonzero"/><path fill="#6b184e" d="M 68.46875 52.929688 L 65.597656 52.550781 L 57.421875 51.46875 L 58.695312 45.492188 L 62.503906 44.902344 C 66.277344 49.566406 69.128906 48.503906 71.058594 41.707031 C 71.675781 46.152344 70.691406 50.875 68.46875 52.929688 Z M 68.46875 52.929688 " fill-opacity="0.298" fill-rule="nonzero"/><path fill="#ffffff" d="M 31.917969 61.78125 C 25.976562 61.460938 20.148438 60.046875 14.722656 57.632812 C 13.828125 57.242188 12.949219 56.816406 12.078125 56.367188 C -2.398438 48.878906 -1.25 40.132812 14.722656 33.148438 C 15.316406 32.886719 15.929688 32.628906 16.566406 32.375 C 17.523438 31.992188 18.527344 31.613281 19.578125 31.242188 C 20.367188 31.191406 21 31.636719 21.613281 32.40625 L 21.617188 32.40625 C 22.640625 33.691406 23.621094 35.890625 25.214844 38.226562 C 30.445312 45.304688 48.007812 49.214844 56.0625 33.722656 C 56.0625 33.71875 56.066406 33.710938 56.070312 33.710938 C 56.367188 33.902344 56.652344 34.097656 56.929688 34.300781 C 56.996094 34.347656 57.058594 34.390625 57.121094 34.4375 C 57.183594 34.488281 57.246094 34.53125 57.308594 34.582031 C 58.5625 35.535156 59.578125 36.566406 60.367188 37.648438 C 60.554688 37.90625 60.726562 38.160156 60.890625 38.421875 C 67.292969 48.722656 54.511719 62.996094 31.917969 61.78125 Z M 31.917969 61.78125 " fill-opacity="1" fill-rule="nonzero"/><path fill="#ec1c24" d="M 14.722656 57.632812 C 13.828125 57.242188 12.953125 56.816406 12.082031 56.367188 C -2.398438 48.878906 -1.25 40.132812 14.722656 33.148438 C 19.113281 38.90625 19.386719 51.429688 14.722656 57.632812 Z M 14.722656 57.632812 " fill-opacity="1" fill-rule="nonzero"/><path fill="#ffffff" d="M 7.503906 53.628906 C -1.753906 46.84375 0.875 39.386719 14.847656 33.273438 C 15.015625 33.492188 15.171875 33.71875 15.324219 33.953125 C 1.960938 39.875 -0.804688 47.039062 7.503906 53.628906 Z M 7.503906 53.628906 " fill-opacity="0.549" fill-rule="nonzero"/><path fill="#6b184e" d="M 1.957031 44.871094 C 2.210938 48.480469 5.558594 52.109375 12.082031 55.484375 C 12.953125 55.933594 13.832031 56.359375 14.726562 56.75 C 20.152344 59.164062 25.984375 60.578125 31.921875 60.898438 C 50.273438 61.886719 62.152344 52.65625 62.53125 43.636719 C 62.539062 43.785156 62.542969 43.925781 62.542969 44.074219 C 62.542969 42.03125 61.949219 40.011719 60.699219 38.128906 C 60.988281 47.386719 48.960938 57.183594 30.085938 56.167969 C 24.144531 55.847656 18.316406 54.429688 12.890625 52.019531 C 12 51.628906 11.117188 51.203125 10.246094 50.753906 C 6.390625 48.757812 3.640625 46.675781 1.988281 44.558594 C 1.960938 44.78125 1.949219 45 1.945312 45.222656 C 1.945312 45.101562 1.949219 44.988281 1.957031 44.871094 Z M 1.957031 44.871094 " fill-opacity="0.298" fill-rule="nonzero"/><path fill="#ffffff" d="M 70.683594 39.777344 C 70.558594 39.382812 70.414062 38.992188 70.257812 38.617188 C 70.054688 38.125 69.691406 37.707031 69.226562 37.449219 C 68.105469 36.828125 66.730469 36.636719 65.316406 36.792969 C 63.804688 36.964844 62.246094 37.539062 60.898438 38.425781 C 60.734375 38.167969 60.558594 37.910156 60.375 37.65625 C 61.78125 36.667969 63.441406 36.03125 65.050781 35.847656 C 66.464844 35.691406 67.839844 35.882812 68.960938 36.503906 C 69.425781 36.761719 69.785156 37.179688 69.992188 37.671875 C 70.269531 38.347656 70.5 39.050781 70.683594 39.777344 Z M 70.683594 39.777344 " fill-opacity="0.549" fill-rule="nonzero"/><path fill="#6b184e" d="M 34.582031 62.257812 C 33.695312 62.257812 32.800781 62.230469 31.894531 62.183594 C 24.992188 61.8125 18.078125 59.925781 11.894531 56.726562 C 8.414062 54.921875 5.765625 53.015625 4.027344 51.050781 C 2.28125 49.078125 1.445312 47.039062 1.542969 44.996094 C 1.765625 40.308594 6.910156 35.816406 16.417969 32 C 17.382812 31.613281 18.402344 31.230469 19.445312 30.859375 C 19.480469 30.847656 19.515625 30.839844 19.554688 30.835938 C 21.269531 30.730469 22.25 32.445312 23.601562 34.816406 C 24.152344 35.78125 24.777344 36.878906 25.539062 37.996094 C 28.042969 41.375 34.097656 44.515625 40.835938 43.976562 C 47.191406 43.46875 52.472656 39.761719 55.710938 33.527344 C 55.761719 33.425781 55.855469 33.351562 55.964844 33.320312 C 56.074219 33.292969 56.1875 33.3125 56.285156 33.371094 C 57.832031 34.375 59.136719 35.507812 60.164062 36.742188 C 63.261719 40.464844 63.78125 45.125 61.589844 49.53125 C 59.707031 53.320312 55.960938 56.660156 51.046875 58.929688 C 46.304688 61.121094 40.660156 62.257812 34.582031 62.257812 Z M 19.660156 31.640625 C 18.644531 32.003906 17.65625 32.375 16.71875 32.75 C 7.523438 36.441406 2.554688 40.6875 2.351562 45.035156 C 2.171875 48.765625 5.601562 52.558594 12.265625 56.007812 C 18.347656 59.15625 25.152344 61.011719 31.941406 61.375 C 47.320312 62.203125 57.554688 55.839844 60.875 49.164062 C 62.945312 45 62.476562 40.773438 59.550781 37.257812 C 58.65625 36.183594 57.535156 35.1875 56.214844 34.292969 C 54.449219 37.5625 52.160156 40.125 49.40625 41.917969 C 46.871094 43.570312 44.007812 44.535156 40.898438 44.78125 C 37.730469 45.035156 34.480469 44.519531 31.492188 43.292969 C 28.679688 42.140625 26.332031 40.425781 24.886719 38.46875 C 24.886719 38.464844 24.882812 38.460938 24.878906 38.457031 C 24.097656 37.308594 23.464844 36.195312 22.902344 35.214844 C 21.714844 33.128906 20.851562 31.613281 19.660156 31.640625 Z M 19.660156 31.640625 " fill-opacity="1" fill-rule="nonzero"/><path fill="#ec1c24" d="M 56.070312 33.710938 C 48.023438 49.21875 30.449219 45.308594 25.21875 38.230469 C 22.667969 34.488281 21.6875 31.109375 19.582031 31.242188 C 18.53125 31.613281 17.527344 31.992188 16.566406 32.375 C 16.339844 30.84375 17.066406 29.335938 18.308594 28.550781 C 19.617188 27.71875 21.5 27.683594 23.441406 29.257812 C 24.4375 30.058594 25.191406 31.113281 25.710938 32.28125 C 26.167969 33.308594 26.707031 34.234375 27.3125 35.0625 C 29.730469 38.371094 33.238281 40.109375 36.933594 40.46875 C 40.28125 40.792969 43.785156 39.984375 46.785156 38.191406 C 49.882812 36.335938 52.449219 33.429688 53.742188 29.625 C 55.394531 27.5 58.308594 28.902344 56.070312 33.710938 Z M 56.070312 33.710938 " fill-opacity="1" fill-rule="nonzero"/><path fill="#ffffff" d="M 56.882812 30.535156 C 56.335938 29.390625 54.941406 29.429688 53.980469 30.667969 C 52.679688 34.472656 50.121094 37.378906 47.023438 39.230469 C 44.023438 41.027344 40.519531 41.832031 37.171875 41.507812 C 33.476562 41.148438 29.96875 39.414062 27.546875 36.105469 C 26.941406 35.277344 26.402344 34.351562 25.949219 33.324219 C 25.429688 32.15625 24.671875 31.101562 23.679688 30.296875 C 21.734375 28.730469 19.851562 28.761719 18.546875 29.589844 C 17.652344 30.15625 17.023438 31.09375 16.824219 32.148438 C 16.742188 32.179688 16.65625 32.214844 16.570312 32.25 C 16.34375 30.71875 17.070312 29.210938 18.3125 28.425781 C 19.617188 27.59375 21.5 27.558594 23.445312 29.128906 C 24.4375 29.933594 25.195312 30.988281 25.714844 32.15625 C 26.171875 33.183594 26.707031 34.109375 27.316406 34.9375 C 29.734375 38.246094 33.242188 39.984375 36.9375 40.339844 C 40.285156 40.667969 43.789062 39.859375 46.789062 38.0625 C 49.886719 36.210938 52.449219 33.304688 53.746094 29.5 C 54.96875 27.925781 56.882812 28.289062 56.882812 30.535156 Z M 56.882812 30.535156 " fill-opacity="0.549" fill-rule="nonzero"/><path fill="#6b184e" d="M 39.328125 44.847656 C 36.667969 44.847656 33.988281 44.320312 31.496094 43.296875 C 28.683594 42.140625 26.335938 40.425781 24.890625 38.472656 C 24.886719 38.46875 24.886719 38.464844 24.882812 38.460938 C 24.101562 37.3125 23.464844 36.199219 22.902344 35.21875 C 21.710938 33.128906 20.847656 31.613281 19.65625 31.644531 C 18.644531 32.003906 17.652344 32.378906 16.714844 32.753906 C 16.601562 32.800781 16.472656 32.792969 16.367188 32.730469 C 16.261719 32.667969 16.1875 32.558594 16.167969 32.4375 C 15.921875 30.792969 16.699219 29.09375 18.097656 28.210938 C 19.742188 27.164062 21.835938 27.4375 23.695312 28.941406 C 24.703125 29.753906 25.503906 30.824219 26.082031 32.117188 C 26.515625 33.09375 27.039062 34.003906 27.636719 34.824219 C 29.839844 37.832031 33.15625 39.695312 36.976562 40.0625 C 40.246094 40.382812 43.660156 39.589844 46.582031 37.839844 C 49.816406 35.90625 52.164062 33.019531 53.367188 29.492188 C 53.382812 29.449219 53.402344 29.410156 53.429688 29.375 C 54.246094 28.324219 55.433594 27.96875 56.3125 28.511719 C 57.296875 29.117188 57.847656 30.851562 56.433594 33.882812 C 56.433594 33.890625 56.429688 33.894531 56.425781 33.898438 C 54.632812 37.355469 52.273438 40.054688 49.410156 41.917969 C 46.875 43.574219 44.011719 44.539062 40.90625 44.785156 C 40.378906 44.824219 39.855469 44.847656 39.328125 44.847656 Z M 25.542969 37.996094 C 28.046875 41.375 34.101562 44.515625 40.84375 43.976562 C 47.195312 43.472656 52.472656 39.761719 55.710938 33.535156 C 56.820312 31.144531 56.601562 29.632812 55.890625 29.199219 C 55.386719 28.886719 54.660156 29.144531 54.105469 29.820312 C 52.832031 33.5 50.375 36.511719 46.996094 38.535156 C 43.925781 40.375 40.339844 41.199219 36.902344 40.867188 C 32.851562 40.476562 29.328125 38.5 26.992188 35.300781 C 26.355469 34.4375 25.804688 33.476562 25.347656 32.445312 C 24.824219 31.269531 24.101562 30.304688 23.195312 29.570312 C 21.589844 28.273438 19.890625 28.027344 18.527344 28.894531 C 17.542969 29.515625 16.941406 30.640625 16.929688 31.796875 C 17.742188 31.480469 18.585938 31.164062 19.449219 30.859375 C 19.484375 30.847656 19.519531 30.839844 19.554688 30.835938 C 21.273438 30.730469 22.25 32.445312 23.605469 34.816406 C 24.160156 35.78125 24.78125 36.875 25.542969 37.996094 Z M 56.070312 33.710938 Z M 56.070312 33.710938 " fill-opacity="1" fill-rule="nonzero"/><path fill="#ec1c24" d="M 63.28125 24.699219 C 63.121094 25.648438 62.910156 26.636719 62.664062 27.617188 C 61.691406 31.511719 60.246094 35.371094 59.859375 37 C 58.882812 35.824219 57.621094 34.714844 56.070312 33.710938 C 56.492188 32.808594 56.730469 32.027344 56.828125 31.367188 C 57.261719 28.496094 55.085938 27.898438 53.746094 29.621094 C 53.941406 29.121094 54.050781 28.550781 54.109375 27.980469 C 55.695312 25.5 59.152344 22.910156 62.140625 23.207031 C 62.875 23.285156 63.40625 23.964844 63.28125 24.699219 Z M 63.28125 24.699219 " fill-opacity="1" fill-rule="nonzero"/><path fill="#ffffff" d="M 63.296875 24.589844 C 63.09375 24.296875 62.761719 24.09375 62.375 24.054688 C 59.390625 23.753906 55.933594 26.34375 54.34375 28.824219 C 54.335938 28.902344 54.328125 28.980469 54.316406 29.058594 C 54.117188 29.203125 53.921875 29.390625 53.746094 29.621094 C 53.941406 29.121094 54.050781 28.550781 54.109375 27.980469 C 55.695312 25.5 59.152344 22.910156 62.140625 23.207031 C 62.839844 23.28125 63.351562 23.898438 63.296875 24.589844 Z M 63.296875 24.589844 " fill-opacity="0.549" fill-rule="nonzero"/><path fill="#6b184e" d="M 38.402344 40.941406 C 37.902344 40.941406 37.398438 40.917969 36.902344 40.867188 C 33.421875 40.53125 30.375 39.058594 28.082031 36.613281 C 27.695312 36.203125 27.328125 35.761719 26.992188 35.300781 C 26.355469 34.433594 25.804688 33.472656 25.347656 32.445312 C 24.824219 31.265625 24.101562 30.300781 23.195312 29.570312 C 21.589844 28.273438 19.890625 28.027344 18.527344 28.890625 C 18.339844 29.007812 18.089844 28.953125 17.972656 28.765625 C 17.855469 28.574219 17.910156 28.324219 18.097656 28.207031 C 19.746094 27.164062 21.835938 27.433594 23.699219 28.9375 C 24.707031 29.75 25.507812 30.820312 26.082031 32.113281 C 26.515625 33.089844 27.042969 34 27.640625 34.820312 C 27.960938 35.253906 28.304688 35.671875 28.667969 36.058594 C 30.824219 38.359375 33.699219 39.742188 36.980469 40.0625 C 40.25 40.378906 43.664062 39.589844 46.585938 37.839844 C 49.820312 35.90625 52.167969 33.015625 53.367188 29.492188 C 53.371094 29.484375 53.375 29.480469 53.375 29.472656 C 53.535156 29.0625 53.648438 28.546875 53.710938 27.941406 C 53.734375 27.71875 53.933594 27.558594 54.152344 27.582031 C 54.375 27.605469 54.535156 27.804688 54.511719 28.027344 C 54.441406 28.699219 54.3125 29.285156 54.125 29.761719 C 52.863281 33.46875 50.394531 36.5 46.996094 38.53125 C 44.367188 40.105469 41.367188 40.941406 38.402344 40.941406 Z M 38.402344 40.941406 " fill-opacity="1" fill-rule="nonzero"/><path fill="#6b184e" d="M 14.722656 58.039062 C 14.636719 58.039062 14.550781 58.011719 14.480469 57.960938 C 14.300781 57.828125 14.265625 57.570312 14.402344 57.390625 C 18.816406 51.515625 18.816406 39.179688 14.40625 33.394531 C 14.269531 33.21875 14.300781 32.964844 14.480469 32.828125 C 14.65625 32.691406 14.910156 32.722656 15.042969 32.902344 C 17.183594 35.710938 18.484375 40.316406 18.523438 45.222656 C 18.558594 50.273438 17.292969 54.890625 15.046875 57.878906 C 14.964844 57.984375 14.84375 58.039062 14.722656 58.039062 Z M 14.722656 58.039062 " fill-opacity="1" fill-rule="nonzero"/><path fill="#6b184e" d="M 59.859375 37.40625 C 59.742188 37.40625 59.628906 37.351562 59.550781 37.261719 C 58.574219 36.089844 57.332031 35.007812 55.851562 34.054688 C 55.683594 33.945312 55.621094 33.726562 55.703125 33.542969 C 56.816406 31.148438 56.597656 29.632812 55.890625 29.199219 C 55.375 28.878906 54.621094 29.15625 54.0625 29.875 C 53.941406 30.03125 53.71875 30.074219 53.546875 29.976562 C 53.375 29.875 53.296875 29.664062 53.371094 29.476562 C 53.53125 29.066406 53.644531 28.550781 53.710938 27.945312 C 53.71875 27.882812 53.738281 27.820312 53.773438 27.769531 C 55.484375 25.089844 59.097656 22.503906 62.179688 22.8125 C 62.644531 22.859375 63.078125 23.101562 63.359375 23.472656 C 63.644531 23.847656 63.761719 24.304688 63.683594 24.769531 C 63.144531 27.96875 61.996094 31.523438 61.15625 34.121094 C 60.757812 35.367188 60.40625 36.441406 60.253906 37.097656 C 60.21875 37.246094 60.105469 37.363281 59.957031 37.398438 C 59.921875 37.402344 59.890625 37.40625 59.859375 37.40625 Z M 56.578125 33.5625 C 57.761719 34.359375 58.796875 35.230469 59.667969 36.167969 C 59.847656 35.550781 60.097656 34.773438 60.390625 33.867188 C 61.222656 31.292969 62.363281 27.769531 62.890625 24.628906 C 62.929688 24.390625 62.867188 24.152344 62.722656 23.960938 C 62.574219 23.761719 62.351562 23.636719 62.101562 23.613281 C 59.394531 23.339844 56.070312 25.726562 54.503906 28.121094 C 54.488281 28.253906 54.46875 28.378906 54.449219 28.503906 C 55.082031 28.179688 55.761719 28.160156 56.316406 28.503906 C 57.261719 29.09375 57.808594 30.726562 56.578125 33.5625 Z M 63.28125 24.699219 Z M 63.28125 24.699219 " fill-opacity="1" fill-rule="nonzero"/><path fill="#ec1c24" d="M 68.613281 53.609375 L 68.613281 53.667969 C 68.613281 54.46875 68.058594 55.164062 67.28125 55.332031 C 62.285156 56.410156 57.84375 56.359375 54.109375 55.5 C 54.109375 55.5 54.109375 55.5 54.105469 55.496094 C 51.269531 54.84375 48.839844 53.726562 46.878906 52.289062 C 46.238281 51.820312 46.03125 50.9375 46.4375 50.25 C 47.609375 48.238281 52.15625 48.078125 59.355469 48.414062 C 61.785156 49.929688 64.378906 51.207031 67.328125 51.964844 C 67.582031 52.03125 67.816406 52.152344 68.011719 52.316406 C 68.382812 52.625 68.613281 53.09375 68.613281 53.609375 Z M 68.613281 53.609375 " fill-opacity="1" fill-rule="nonzero"/><path fill="#ffffff" d="M 59.355469 48.410156 C 59.785156 48.675781 60.214844 48.9375 60.660156 49.1875 C 53.558594 48.863281 48.453125 48.980469 47.285156 50.96875 C 46.976562 51.496094 47.027344 52.140625 47.355469 52.621094 C 47.195312 52.511719 47.035156 52.398438 46.878906 52.285156 C 46.238281 51.8125 46.035156 50.929688 46.4375 50.246094 C 47.613281 48.238281 52.15625 48.074219 59.355469 48.410156 Z M 59.355469 48.410156 " fill-opacity="0.549" fill-rule="nonzero"/><path fill="#6b184e" d="M 59.859375 37.40625 C 59.636719 37.40625 59.457031 37.226562 59.457031 37 C 59.457031 36.773438 59.640625 36.59375 59.859375 36.59375 C 60.082031 36.59375 60.261719 36.777344 60.261719 37 C 60.261719 37.222656 60.082031 37.40625 59.859375 37.40625 Z M 59.859375 37.40625 " fill-opacity="1" fill-rule="nonzero"/><path fill="#6b184e" d="M 60.03125 56.546875 C 58.441406 56.546875 56.90625 56.417969 55.417969 56.167969 C 52.074219 55.605469 49.039062 54.375 46.640625 52.613281 C 45.820312 52.011719 45.582031 50.90625 46.089844 50.039062 C 47.359375 47.871094 51.738281 47.648438 59.375 48.003906 C 59.441406 48.007812 59.507812 48.027344 59.566406 48.066406 C 62.3125 49.78125 64.8125 50.894531 67.425781 51.566406 C 68.363281 51.804688 69.015625 52.644531 69.015625 53.605469 L 69.015625 53.664062 C 69.015625 54.652344 68.320312 55.511719 67.363281 55.71875 C 64.832031 56.269531 62.378906 56.546875 60.03125 56.546875 Z M 54.480469 48.679688 C 50.273438 48.679688 47.566406 49.109375 46.785156 50.449219 C 46.492188 50.945312 46.640625 51.605469 47.117188 51.957031 C 52.078125 55.597656 59.210938 56.65625 67.195312 54.929688 C 67.785156 54.800781 68.210938 54.273438 68.210938 53.664062 L 68.210938 53.605469 C 68.210938 53.015625 67.808594 52.5 67.226562 52.351562 C 64.558594 51.664062 62.019531 50.539062 59.234375 48.808594 C 57.488281 48.730469 55.902344 48.679688 54.480469 48.679688 Z M 54.480469 48.679688 " fill-opacity="1" fill-rule="nonzero"/><path fill="#6b184e" d="M 48.847656 50.460938 C 49.105469 50.589844 49.359375 50.722656 49.617188 50.84375 C 49.878906 50.964844 50.136719 51.085938 50.398438 51.199219 C 50.925781 51.429688 51.457031 51.640625 52 51.820312 C 53.074219 52.203125 54.179688 52.492188 55.296875 52.707031 C 56.414062 52.921875 57.535156 53.085938 58.671875 53.203125 C 59.804688 53.320312 60.945312 53.378906 62.097656 53.421875 C 62.121094 53.421875 62.140625 53.441406 62.140625 53.464844 C 62.140625 53.484375 62.125 53.5 62.105469 53.503906 C 60.960938 53.683594 59.796875 53.734375 58.636719 53.691406 C 57.476562 53.644531 56.316406 53.492188 55.183594 53.222656 C 54.050781 52.953125 52.941406 52.59375 51.867188 52.152344 C 51.332031 51.925781 50.808594 51.675781 50.296875 51.410156 C 50.035156 51.277344 49.789062 51.128906 49.539062 50.988281 C 49.289062 50.839844 49.046875 50.679688 48.800781 50.53125 C 48.78125 50.515625 48.773438 50.492188 48.785156 50.472656 C 48.800781 50.460938 48.828125 50.453125 48.847656 50.460938 Z M 48.847656 50.460938 " fill-opacity="1" fill-rule="nonzero"/><path fill="#6b184e" d="M 33.359375 52.847656 C 28.011719 52.847656 22.777344 52.195312 17.546875 50.890625 C 17.332031 50.835938 17.203125 50.617188 17.253906 50.402344 C 17.308594 50.183594 17.527344 50.050781 17.742188 50.105469 C 26.992188 52.417969 36.292969 52.652344 46.171875 50.828125 C 46.390625 50.789062 46.601562 50.933594 46.640625 51.152344 C 46.679688 51.371094 46.535156 51.585938 46.316406 51.625 C 41.902344 52.4375 37.59375 52.847656 33.359375 52.847656 Z M 33.359375 52.847656 " fill-opacity="1" fill-rule="nonzero"/><path fill="#6b184e" d="M 68.472656 53.335938 C 68.363281 53.335938 68.257812 53.292969 68.175781 53.203125 C 68.027344 53.039062 68.035156 52.78125 68.199219 52.628906 C 71.011719 50.03125 71.703125 42.835938 69.617188 37.828125 C 69.441406 37.414062 69.140625 37.066406 68.761719 36.859375 C 66.601562 35.664062 63.246094 36.125 60.601562 37.984375 C 60.417969 38.113281 60.167969 38.070312 60.042969 37.882812 C 59.914062 37.699219 59.957031 37.449219 60.140625 37.320312 C 63.03125 35.292969 66.734375 34.8125 69.152344 36.148438 C 69.6875 36.445312 70.121094 36.929688 70.363281 37.515625 C 72.601562 42.886719 71.828125 50.375 68.746094 53.226562 C 68.664062 53.300781 68.566406 53.335938 68.472656 53.335938 Z M 68.472656 53.335938 " fill-opacity="1" fill-rule="nonzero"/><path fill="#6b184e" d="M 65.804688 51.917969 C 65.6875 51.917969 65.570312 51.867188 65.492188 51.769531 C 65.351562 51.59375 65.378906 51.339844 65.550781 51.199219 C 66.882812 50.109375 67.675781 47.265625 67.578125 43.953125 C 67.46875 40.367188 66.382812 37.316406 64.8125 36.179688 C 64.628906 36.046875 64.589844 35.796875 64.722656 35.613281 C 64.851562 35.433594 65.101562 35.390625 65.28125 35.523438 C 67.429688 37.078125 68.292969 40.886719 68.382812 43.929688 C 68.46875 46.757812 67.902344 50.320312 66.0625 51.828125 C 65.984375 51.886719 65.894531 51.917969 65.804688 51.917969 Z M 65.804688 51.917969 " fill-opacity="1" fill-rule="nonzero"/><path fill="#f9a528" d="M 44.484375 32.320312 C 44.484375 32.320312 44.613281 32.464844 44.808594 32.734375 C 44.917969 32.882812 45.046875 33.070312 45.1875 33.292969 C 45.832031 34.300781 46.6875 36.035156 46.785156 38.191406 C 45.164062 39.160156 43.394531 39.839844 41.582031 40.210938 C 41.574219 40.214844 41.570312 40.214844 41.566406 40.214844 C 41.566406 40.21875 41.566406 40.21875 41.5625 40.214844 C 41.5625 40.21875 41.558594 40.21875 41.558594 40.21875 C 40.027344 40.53125 38.464844 40.617188 36.933594 40.46875 C 36.921875 40.464844 36.90625 40.464844 36.894531 40.460938 C 33.914062 40.164062 31.0625 38.972656 28.804688 36.78125 L 28.800781 36.777344 C 28.269531 36.261719 27.769531 35.691406 27.308594 35.058594 L 28.507812 33.625 L 29.332031 32.640625 L 29.359375 32.609375 C 29.238281 32.515625 29.125 32.417969 29.015625 32.316406 C 28.507812 31.878906 28.054688 31.425781 27.65625 30.953125 C 27.148438 30.359375 26.726562 29.738281 26.402344 29.09375 C 26.390625 29.070312 26.382812 29.050781 26.371094 29.035156 C 26.296875 28.886719 26.226562 28.734375 26.164062 28.582031 C 26.160156 28.574219 26.15625 28.5625 26.152344 28.550781 C 25.5625 27.140625 25.402344 25.601562 25.738281 23.921875 L 25.738281 23.917969 C 26.054688 22.351562 26.796875 20.660156 28.023438 18.828125 C 28.160156 18.621094 28.304688 18.410156 28.457031 18.203125 C 28.488281 18.15625 28.523438 18.113281 28.550781 18.070312 C 29.105469 17.351562 29.828125 16.792969 30.664062 16.453125 C 30.773438 16.402344 30.890625 16.363281 31.007812 16.324219 C 32.347656 15.890625 33.769531 15.621094 35.273438 15.492188 C 37.039062 15.34375 38.910156 15.390625 40.863281 15.59375 C 43.03125 9.21875 44.59375 10.367188 45.671875 17.59375 C 45.742188 17.707031 45.8125 17.820312 45.878906 17.933594 L 45.964844 18.085938 L 45.964844 18.089844 C 47.023438 19.976562 47.703125 22.585938 48.238281 25.464844 C 48.371094 26.183594 48.304688 26.925781 48.035156 27.605469 C 47.230469 29.679688 46.027344 31.230469 44.484375 32.320312 Z M 44.484375 32.320312 " fill-opacity="1" fill-rule="nonzero"/><path fill="#ffffff" d="M 29.371094 33.1875 C 29.480469 33.285156 29.597656 33.386719 29.714844 33.480469 L 29.6875 33.511719 L 27.835938 35.726562 C 27.652344 35.511719 27.480469 35.292969 27.316406 35.0625 L 29.089844 32.941406 C 29.179688 33.023438 29.273438 33.105469 29.371094 33.1875 Z M 29.371094 33.1875 " fill-opacity="0.698" fill-rule="nonzero"/><path fill="#ffffff" d="M 44.730469 13.214844 C 43.796875 11.347656 42.640625 12.296875 41.21875 16.46875 C 39.265625 16.269531 37.398438 16.21875 35.628906 16.367188 C 34.128906 16.496094 32.703125 16.765625 31.363281 17.199219 C 31.246094 17.238281 31.132812 17.28125 31.019531 17.328125 C 30.1875 17.667969 29.460938 18.226562 28.910156 18.945312 C 28.875 18.988281 28.84375 19.03125 28.8125 19.078125 C 28.664062 19.285156 28.515625 19.496094 28.378906 19.703125 C 27.152344 21.535156 26.410156 23.222656 26.09375 24.792969 L 26.09375 24.796875 C 25.800781 26.269531 25.882812 27.632812 26.3125 28.902344 C 25.597656 27.394531 25.378906 25.742188 25.742188 23.929688 L 25.742188 23.925781 C 26.058594 22.359375 26.800781 20.667969 28.027344 18.835938 C 28.164062 18.628906 28.3125 18.417969 28.460938 18.210938 C 28.496094 18.164062 28.527344 18.121094 28.558594 18.078125 C 29.109375 17.359375 29.835938 16.800781 30.667969 16.460938 C 30.78125 16.410156 30.894531 16.371094 31.011719 16.332031 C 32.351562 15.898438 33.777344 15.628906 35.277344 15.5 C 37.046875 15.351562 38.914062 15.398438 40.867188 15.601562 C 42.472656 10.886719 43.742188 10.289062 44.730469 13.214844 Z M 44.730469 13.214844 " fill-opacity="0.698" fill-rule="nonzero"/><path fill="#ffffff" d="M 46.023438 18.46875 C 46.003906 18.34375 45.988281 18.21875 45.964844 18.09375 C 46.292969 18.667969 46.578125 19.3125 46.839844 20.007812 C 46.59375 19.445312 46.324219 18.929688 46.023438 18.46875 Z M 46.023438 18.46875 " fill-opacity="0.698" fill-rule="nonzero"/><path fill="#ffffff" d="M 45.671875 17.597656 C 45.390625 15.714844 45.078125 14.246094 44.730469 13.214844 C 45.195312 14.148438 45.609375 15.789062 45.964844 18.089844 C 45.875 17.921875 45.777344 17.757812 45.671875 17.597656 Z M 45.671875 17.597656 " fill-opacity="0.698" fill-rule="nonzero"/><path fill="#ffffff" d="M 41.65625 33.710938 L 40.542969 34.019531 C 39.828125 37.027344 38.464844 38.921875 36.898438 40.460938 C 36.871094 40.488281 36.847656 40.511719 36.824219 40.535156 C 33.34375 40 30.503906 38.898438 28.808594 36.78125 L 28.804688 36.777344 L 30.402344 33.710938 L 29.335938 32.640625 L 29.019531 32.320312 L 27.660156 30.957031 L 26.375 29.035156 C 25.609375 27.492188 25.367188 25.796875 25.742188 23.925781 L 25.742188 23.921875 C 26.410156 22.191406 27.917969 21.925781 30.023438 22.722656 C 32.253906 21.542969 36.191406 23.058594 37.632812 24.566406 C 38.050781 25.007812 38.691406 25.152344 39.246094 24.910156 C 46.089844 21.949219 47.984375 29.820312 41.65625 33.710938 Z M 41.65625 33.710938 " fill-opacity="1" fill-rule="nonzero"/><path fill="#ffffff" d="M 30.667969 19.792969 C 30.449219 20.175781 29.65625 20.128906 28.898438 19.6875 C 28.414062 19.40625 28.058594 19.035156 27.925781 18.703125 C 28.066406 18.496094 28.210938 18.285156 28.359375 18.074219 C 28.394531 18.03125 28.425781 17.988281 28.457031 17.945312 C 28.800781 17.929688 29.253906 18.050781 29.691406 18.304688 C 30.449219 18.746094 30.886719 19.410156 30.667969 19.792969 Z M 30.667969 19.792969 " fill-opacity="1" fill-rule="nonzero"/><path fill="#6b184e" d="M 39.167969 34.664062 C 38.96875 34.664062 38.792969 34.515625 38.765625 34.308594 C 38.738281 34.089844 38.894531 33.886719 39.113281 33.855469 C 41.144531 33.589844 42.871094 32.964844 44.246094 31.988281 C 44.429688 31.859375 44.679688 31.902344 44.808594 32.085938 C 44.941406 32.269531 44.894531 32.519531 44.710938 32.648438 C 43.226562 33.699219 41.378906 34.375 39.214844 34.660156 C 39.203125 34.664062 39.183594 34.664062 39.167969 34.664062 Z M 39.167969 34.664062 " fill-opacity="1" fill-rule="nonzero"/><path fill="#6b184e" d="M 30.851562 34.117188 C 30.773438 34.117188 30.699219 34.09375 30.628906 34.046875 C 30.082031 33.683594 29.566406 33.304688 29.105469 32.921875 C 28.9375 32.78125 28.910156 32.527344 29.050781 32.351562 C 29.191406 32.179688 29.445312 32.152344 29.617188 32.296875 C 30.058594 32.660156 30.550781 33.023438 31.078125 33.375 C 31.261719 33.5 31.3125 33.75 31.1875 33.933594 C 31.109375 34.054688 30.980469 34.117188 30.851562 34.117188 Z M 30.851562 34.117188 " fill-opacity="1" fill-rule="nonzero"/><path fill="#f9a528" d="M 35.277344 15.5 C 33.777344 15.628906 32.351562 15.898438 31.011719 16.332031 C 30.894531 16.371094 30.78125 16.414062 30.667969 16.460938 C 31.472656 10.746094 32.84375 9.21875 35.277344 15.5 Z M 35.277344 15.5 " fill-opacity="1" fill-rule="nonzero"/><path fill="#ffffff" d="M 33.242188 11.742188 C 32.394531 11.660156 31.777344 13.339844 31.332031 16.230469 C 31.222656 16.261719 31.117188 16.296875 31.011719 16.332031 C 30.894531 16.371094 30.78125 16.414062 30.667969 16.460938 C 31.210938 12.585938 32.019531 10.636719 33.242188 11.742188 Z M 33.242188 11.742188 " fill-opacity="0.698" fill-rule="nonzero"/><path fill="#6b184e" d="M 30.664062 16.863281 C 30.578125 16.863281 30.488281 16.835938 30.417969 16.78125 C 30.304688 16.691406 30.246094 16.546875 30.265625 16.402344 C 30.78125 12.761719 31.441406 11.15625 32.480469 11.035156 C 33.472656 10.921875 34.453125 12.253906 35.652344 15.355469 C 35.695312 15.476562 35.683594 15.609375 35.617188 15.71875 C 35.550781 15.828125 35.4375 15.898438 35.308594 15.90625 C 33.804688 16.03125 32.402344 16.308594 31.132812 16.722656 C 31.019531 16.757812 30.914062 16.796875 30.820312 16.835938 C 30.769531 16.851562 30.71875 16.863281 30.664062 16.863281 Z M 32.59375 11.835938 C 32.585938 11.835938 32.578125 11.835938 32.574219 11.835938 C 32.4375 11.851562 31.757812 12.125 31.160156 15.859375 C 32.257812 15.523438 33.445312 15.285156 34.703125 15.148438 C 33.449219 12.058594 32.765625 11.835938 32.59375 11.835938 Z M 32.59375 11.835938 " fill-opacity="1" fill-rule="nonzero"/><path fill="#6b184e" d="M 53.371094 29.476562 C 53.296875 29.664062 53.371094 29.871094 53.535156 29.96875 C 49.375 41.425781 32.667969 44.222656 27.167969 34.332031 C 33.171875 40.609375 53.746094 40.050781 49.761719 15.464844 C 52.292969 18.550781 53.769531 22.492188 53.769531 26.707031 C 53.769531 27.144531 53.746094 27.558594 53.707031 27.945312 C 53.648438 28.546875 53.53125 29.066406 53.371094 29.476562 Z M 53.371094 29.476562 " fill-opacity="0.2471" fill-rule="nonzero"/><path fill="#ffffff" d="M 31.988281 16.003906 C 32.238281 13.355469 32.746094 12.367188 33.921875 15.65625 Z M 31.988281 16.003906 " fill-opacity="1" fill-rule="nonzero"/><path fill="#6b184e" d="M 38.402344 40.941406 C 37.902344 40.941406 37.398438 40.917969 36.902344 40.867188 C 32.851562 40.476562 29.328125 38.5 26.992188 35.300781 C 26.878906 35.148438 26.886719 34.945312 27.007812 34.800781 L 28.796875 32.664062 C 26.628906 30.785156 25.421875 28.679688 25.203125 26.402344 C 24.957031 23.859375 25.945312 21.023438 28.132812 17.976562 C 28.738281 17.128906 29.5625 16.476562 30.515625 16.089844 C 30.628906 16.039062 30.753906 15.996094 30.886719 15.953125 C 32.214844 15.519531 33.679688 15.234375 35.246094 15.101562 C 36.886719 14.960938 38.640625 14.984375 40.59375 15.171875 C 41.625 12.226562 42.523438 10.949219 43.492188 11.035156 C 44.25 11.105469 45.226562 11.898438 46.0625 17.460938 C 47.144531 19.179688 47.941406 21.632812 48.640625 25.398438 C 48.785156 26.203125 48.710938 27.019531 48.417969 27.765625 C 47.65625 29.707031 46.53125 31.265625 45.0625 32.402344 C 45.671875 33.199219 47.0625 35.324219 47.195312 38.175781 C 47.199219 38.324219 47.125 38.46875 46.996094 38.542969 C 44.367188 40.105469 41.367188 40.941406 38.402344 40.941406 Z M 27.828125 35.074219 C 30.03125 37.9375 33.265625 39.703125 36.976562 40.0625 C 40.171875 40.375 43.496094 39.628906 46.371094 37.964844 C 46.140625 34.808594 44.203125 32.617188 44.183594 32.59375 C 44.105469 32.507812 44.070312 32.390625 44.085938 32.277344 C 44.097656 32.164062 44.15625 32.058594 44.253906 31.992188 C 45.761719 30.929688 46.910156 29.40625 47.667969 27.464844 C 47.90625 26.859375 47.964844 26.195312 47.847656 25.542969 C 47.160156 21.832031 46.386719 19.449219 45.335938 17.820312 C 45.304688 17.773438 45.285156 17.71875 45.277344 17.664062 C 44.464844 12.207031 43.585938 11.855469 43.417969 11.839844 C 43.277344 11.828125 42.53125 11.957031 41.25 15.734375 C 41.1875 15.914062 41.011719 16.027344 40.828125 16.007812 C 38.796875 15.796875 36.992188 15.765625 35.3125 15.910156 C 33.804688 16.035156 32.402344 16.3125 31.136719 16.722656 C 31.019531 16.761719 30.917969 16.800781 30.824219 16.839844 C 30.011719 17.171875 29.308594 17.726562 28.789062 18.453125 C 24.789062 24.027344 25.0625 28.558594 29.617188 32.304688 C 29.703125 32.375 29.753906 32.472656 29.765625 32.582031 C 29.773438 32.6875 29.742188 32.792969 29.671875 32.878906 Z M 27.828125 35.074219 " fill-opacity="1" fill-rule="nonzero"/><path fill="#6b184e" d="M 36.9375 40.871094 C 36.832031 40.871094 36.726562 40.828125 36.648438 40.746094 C 36.492188 40.585938 36.496094 40.332031 36.65625 40.175781 C 38.3125 38.570312 39.53125 36.054688 39.542969 36.03125 C 39.640625 35.828125 39.878906 35.746094 40.078125 35.839844 C 40.28125 35.9375 40.363281 36.179688 40.269531 36.382812 C 40.214844 36.488281 38.976562 39.050781 37.214844 40.753906 C 37.140625 40.832031 37.039062 40.871094 36.9375 40.871094 Z M 36.9375 40.871094 " fill-opacity="1" fill-rule="nonzero"/><path fill="#6b184e" d="M 35.898438 22.257812 C 36.003906 21.921875 36.191406 21.621094 36.464844 21.371094 L 36.566406 21.277344 L 36.683594 21.195312 C 36.726562 21.171875 36.761719 21.140625 36.808594 21.121094 L 36.941406 21.058594 C 37.027344 21.011719 37.128906 20.992188 37.230469 20.964844 C 37.328125 20.941406 37.433594 20.9375 37.539062 20.929688 C 37.640625 20.9375 37.746094 20.9375 37.847656 20.964844 C 37.945312 20.992188 38.046875 21.011719 38.132812 21.058594 L 38.265625 21.121094 C 38.308594 21.144531 38.347656 21.171875 38.386719 21.199219 C 38.425781 21.226562 38.464844 21.25 38.503906 21.277344 L 38.605469 21.371094 C 38.875 21.621094 39.066406 21.921875 39.171875 22.257812 C 39.183594 22.292969 39.164062 22.332031 39.128906 22.34375 C 39.109375 22.347656 39.089844 22.347656 39.074219 22.339844 C 38.773438 22.175781 38.511719 22.003906 38.253906 21.882812 C 38 21.757812 37.761719 21.691406 37.535156 21.6875 C 37.308594 21.691406 37.074219 21.761719 36.816406 21.882812 C 36.5625 22.003906 36.300781 22.175781 35.996094 22.339844 C 35.960938 22.355469 35.921875 22.34375 35.902344 22.308594 C 35.894531 22.292969 35.894531 22.273438 35.898438 22.257812 Z M 35.898438 22.257812 " fill-opacity="1" fill-rule="nonzero"/><path fill="#6b184e" d="M 28.164062 21.355469 C 28.222656 21.101562 28.355469 20.898438 28.542969 20.730469 C 28.640625 20.644531 28.753906 20.574219 28.886719 20.523438 C 28.957031 20.503906 29.023438 20.476562 29.101562 20.46875 C 29.140625 20.464844 29.175781 20.460938 29.21875 20.457031 C 29.257812 20.457031 29.296875 20.460938 29.335938 20.460938 C 29.496094 20.46875 29.660156 20.53125 29.789062 20.617188 C 29.917969 20.703125 30.019531 20.808594 30.085938 20.925781 C 30.226562 21.15625 30.277344 21.398438 30.25 21.648438 C 30.246094 21.691406 30.207031 21.71875 30.164062 21.71875 C 30.152344 21.714844 30.144531 21.710938 30.132812 21.707031 L 30.128906 21.703125 C 29.925781 21.570312 29.769531 21.441406 29.625 21.363281 C 29.554688 21.320312 29.488281 21.300781 29.433594 21.28125 C 29.40625 21.277344 29.378906 21.269531 29.359375 21.265625 C 29.332031 21.269531 29.3125 21.257812 29.285156 21.265625 C 29.1875 21.265625 29.054688 21.28125 28.882812 21.328125 C 28.710938 21.367188 28.515625 21.429688 28.261719 21.457031 L 28.257812 21.457031 C 28.214844 21.460938 28.171875 21.429688 28.167969 21.382812 C 28.164062 21.375 28.164062 21.363281 28.164062 21.355469 Z M 28.164062 21.355469 " fill-opacity="1" fill-rule="nonzero"/><path fill="#6b184e" d="M 33.078125 25.066406 C 32.964844 25.613281 32.769531 26.019531 32.542969 26.296875 C 31.917969 27.050781 31.027344 26.828125 30.738281 25.75 C 30.65625 25.449219 30.625 25.085938 30.65625 24.660156 C 31.167969 24.734375 31.75 24.429688 31.984375 23.511719 C 31.804688 24.445312 32.359375 24.949219 33.078125 25.066406 Z M 33.078125 25.066406 " fill-opacity="1" fill-rule="nonzero"/><path fill="#ff6c6c" d="M 32.699219 26.253906 C 32.222656 27.109375 31.308594 27.054688 30.824219 26.050781 C 31.292969 25.195312 32.214844 25.246094 32.699219 26.253906 Z M 32.699219 26.253906 " fill-opacity="1" fill-rule="nonzero"/><path fill="#6b184e" d="M 33.832031 22.8125 C 33.816406 23.269531 33.035156 23.613281 32.089844 23.578125 C 31.144531 23.546875 30.390625 23.148438 30.40625 22.6875 C 30.421875 22.230469 31.195312 22.121094 32.140625 22.152344 C 33.085938 22.1875 33.847656 22.351562 33.832031 22.8125 Z M 33.832031 22.8125 " fill-opacity="1" fill-rule="nonzero"/><path fill="#6b184e" d="M 31.730469 27.078125 C 31.675781 27.078125 31.625 27.074219 31.574219 27.066406 C 30.871094 26.96875 30.210938 26.175781 30.320312 24.636719 C 30.328125 24.542969 30.375 24.457031 30.445312 24.398438 C 30.515625 24.339844 30.609375 24.316406 30.703125 24.328125 C 31.144531 24.390625 31.5 24.054688 31.660156 23.429688 C 31.703125 23.25 31.878906 23.144531 32.058594 23.179688 C 32.234375 23.222656 32.347656 23.394531 32.3125 23.574219 C 32.253906 23.890625 32.289062 24.152344 32.425781 24.347656 C 32.5625 24.546875 32.816406 24.679688 33.128906 24.730469 C 33.21875 24.746094 33.300781 24.796875 33.351562 24.871094 C 33.40625 24.949219 33.421875 25.042969 33.40625 25.132812 C 33.125 26.496094 32.386719 27.078125 31.730469 27.078125 Z M 30.980469 24.992188 C 30.988281 25.855469 31.316406 26.347656 31.667969 26.398438 C 32.007812 26.445312 32.433594 26.085938 32.667969 25.308594 C 32.335938 25.191406 32.058594 24.992188 31.878906 24.730469 C 31.847656 24.683594 31.816406 24.636719 31.789062 24.585938 C 31.542969 24.832031 31.253906 24.957031 30.980469 24.992188 Z M 30.980469 24.992188 " fill-opacity="1" fill-rule="nonzero"/><path fill="#6b184e" d="M 33.128906 24.730469 C 33.300781 24.722656 33.460938 24.722656 33.628906 24.703125 C 33.792969 24.683594 33.964844 24.664062 34.132812 24.617188 C 34.472656 24.519531 34.800781 24.339844 35.105469 24.0625 C 35.125 24.042969 35.160156 24.042969 35.175781 24.0625 C 35.1875 24.074219 35.191406 24.09375 35.1875 24.109375 C 35.089844 24.535156 34.785156 24.917969 34.386719 25.164062 C 34.191406 25.289062 33.96875 25.386719 33.734375 25.429688 C 33.5 25.46875 33.25 25.46875 33.023438 25.398438 C 32.84375 25.34375 32.746094 25.148438 32.804688 24.972656 C 32.84375 24.832031 32.972656 24.742188 33.105469 24.734375 Z M 33.128906 24.730469 " fill-opacity="1" fill-rule="nonzero"/><path fill="#6b184e" d="M 48.042969 27.609375 C 47.230469 29.679688 46.027344 31.230469 44.484375 32.320312 C 44.484375 32.320312 44.613281 32.464844 44.808594 32.734375 C 44.917969 32.882812 45.046875 33.070312 45.1875 33.292969 C 42.03125 37.785156 32.851562 37.359375 28.511719 33.628906 L 29.335938 32.644531 L 29.359375 32.613281 C 29.242188 32.515625 29.128906 32.421875 29.015625 32.320312 C 28.511719 31.882812 28.058594 31.429688 27.660156 30.957031 C 27.148438 30.359375 26.730469 29.742188 26.402344 29.09375 L 26.167969 28.585938 L 26.152344 28.546875 C 26.152344 28.550781 26.15625 28.550781 26.15625 28.554688 C 31.261719 36.605469 47.402344 31.753906 45.964844 18.089844 C 47.027344 19.980469 47.707031 22.589844 48.238281 25.464844 C 48.375 26.1875 48.308594 26.929688 48.042969 27.609375 Z M 48.042969 27.609375 " fill-opacity="0.298" fill-rule="nonzero"/><path fill="#6b184e" d="M 31.984375 23.847656 C 31.960938 23.847656 31.941406 23.84375 31.914062 23.839844 C 31.734375 23.800781 31.621094 23.628906 31.652344 23.449219 C 31.664062 23.394531 31.675781 23.34375 31.6875 23.285156 C 31.734375 23.109375 31.910156 23 32.085938 23.042969 C 32.265625 23.082031 32.378906 23.257812 32.339844 23.4375 C 32.332031 23.492188 32.320312 23.542969 32.308594 23.589844 C 32.273438 23.742188 32.136719 23.847656 31.984375 23.847656 Z M 31.984375 23.847656 " fill-opacity="1" fill-rule="nonzero"/><path fill="#6b184e" d="M 30.605469 24.992188 C 30.390625 25 30.179688 24.917969 30.003906 24.800781 C 29.828125 24.679688 29.6875 24.511719 29.589844 24.316406 C 29.496094 24.125 29.457031 23.90625 29.476562 23.707031 C 29.503906 23.5 29.585938 23.320312 29.707031 23.183594 C 29.722656 23.164062 29.757812 23.160156 29.777344 23.179688 C 29.789062 23.1875 29.796875 23.199219 29.796875 23.214844 L 29.796875 23.21875 C 29.800781 23.390625 29.824219 23.542969 29.875 23.671875 C 29.925781 23.796875 30.003906 23.898438 30.09375 23.980469 C 30.179688 24.0625 30.285156 24.121094 30.386719 24.175781 C 30.488281 24.230469 30.59375 24.273438 30.703125 24.324219 L 30.746094 24.347656 C 30.914062 24.429688 30.984375 24.632812 30.90625 24.800781 C 30.851562 24.921875 30.734375 24.992188 30.605469 24.992188 Z M 30.605469 24.992188 " fill-opacity="1" fill-rule="nonzero"/><path fill="#ffffff" d="M 39.15625 18.738281 C 39.191406 18.839844 39.1875 18.949219 39.140625 19.066406 C 39.097656 19.1875 39.015625 19.304688 38.902344 19.425781 C 38.785156 19.542969 38.640625 19.65625 38.472656 19.757812 C 38.300781 19.859375 38.117188 19.945312 37.917969 20.015625 C 37.71875 20.082031 37.519531 20.132812 37.324219 20.15625 C 37.128906 20.183594 36.945312 20.183594 36.78125 20.164062 C 36.617188 20.140625 36.480469 20.097656 36.371094 20.03125 C 36.265625 19.964844 36.195312 19.882812 36.160156 19.78125 C 36.125 19.683594 36.128906 19.574219 36.175781 19.457031 C 36.21875 19.335938 36.296875 19.21875 36.414062 19.097656 C 36.53125 18.976562 36.675781 18.867188 36.84375 18.765625 C 37.015625 18.664062 37.199219 18.578125 37.398438 18.507812 C 37.597656 18.4375 37.792969 18.390625 37.992188 18.367188 C 38.1875 18.339844 38.367188 18.339844 38.535156 18.359375 C 38.699219 18.382812 38.835938 18.425781 38.941406 18.492188 C 39.050781 18.558594 39.121094 18.640625 39.15625 18.738281 Z M 39.15625 18.738281 " fill-opacity="1" fill-rule="nonzero"/><path fill="#ffffff" d="M 41.851562 16.21875 C 42.878906 13.550781 43.777344 12.785156 44.300781 17.5 Z M 41.851562 16.21875 " fill-opacity="1" fill-rule="nonzero"/><path fill="#6b184e" d="M 62.664062 27.617188 C 61.691406 31.511719 60.246094 35.371094 59.859375 37 C 58.882812 35.824219 57.621094 34.714844 56.070312 33.710938 C 56.492188 32.808594 56.730469 32.027344 56.828125 31.367188 C 56.828125 31.363281 56.828125 31.363281 56.828125 31.363281 C 58.964844 33.691406 60.890625 32.117188 62.664062 27.617188 Z M 62.664062 27.617188 " fill-opacity="0.298" fill-rule="nonzero"/><path fill="#6b184e" d="M 57.3125 34.582031 C 55.117188 50.355469 31.761719 56.140625 21.617188 32.40625 L 21.621094 32.40625 C 22.644531 33.691406 23.625 35.890625 25.21875 38.226562 C 30.449219 45.304688 48.015625 49.214844 56.066406 33.722656 C 56.363281 33.90625 56.652344 34.097656 56.933594 34.300781 C 56.996094 34.347656 57.058594 34.390625 57.121094 34.4375 C 57.183594 34.488281 57.246094 34.539062 57.3125 34.582031 Z M 57.3125 34.582031 " fill-opacity="0.298" fill-rule="nonzero"/><path fill="#ffffff" d="M 11.261719 39.492188 C 11.890625 40.242188 10.804688 41.386719 9.332031 42.632812 C 7.863281 43.882812 6.5625 44.765625 5.929688 44.019531 C 5.300781 43.269531 5.984375 41.648438 7.457031 40.398438 C 8.925781 39.148438 10.628906 38.746094 11.261719 39.492188 Z M 11.261719 39.492188 " fill-opacity="0.2" fill-rule="nonzero"/><path fill="#ffffff" d="M 31.011719 14.972656 C 32.21875 15.824219 30.464844 18.105469 28.4375 21.019531 C 26.410156 23.933594 24.882812 26.375 23.671875 25.527344 C 22.460938 24.675781 22.683594 21.316406 24.710938 18.402344 C 26.734375 15.484375 29.800781 14.125 31.011719 14.972656 Z M 31.011719 14.972656 " fill-opacity="0.498" fill-rule="nonzero"/><path fill="#ffffff" d="M 39.160156 13.183594 C 39.269531 14.132812 38.289062 14.347656 36.769531 14.527344 C 35.25 14.703125 33.765625 14.773438 33.652344 13.828125 C 33.542969 12.875 34.6875 11.960938 36.207031 11.785156 C 37.726562 11.605469 39.046875 12.230469 39.160156 13.183594 Z M 39.160156 13.183594 " fill-opacity="0.498" fill-rule="nonzero"/><path fill="#6b184e" d="M 68.613281 53.609375 L 68.613281 53.667969 C 68.613281 54.46875 68.058594 55.164062 67.28125 55.332031 C 62.285156 56.410156 57.84375 56.359375 54.109375 55.5 C 54.109375 55.5 54.109375 55.5 54.105469 55.496094 C 54.0625 55.414062 52.574219 52.714844 55.851562 53.097656 C 60.761719 53.742188 65.492188 54.199219 68.007812 52.3125 C 68.382812 52.625 68.613281 53.09375 68.613281 53.609375 Z M 68.613281 53.609375 " fill-opacity="0.298" fill-rule="nonzero"/><path fill="#ffffff" d="M 32.835938 22.617188 C 32.832031 22.746094 32.464844 22.910156 32.019531 22.894531 C 31.574219 22.878906 31.21875 22.691406 31.222656 22.558594 C 31.230469 22.425781 31.589844 22.425781 32.035156 22.445312 C 32.480469 22.460938 32.84375 22.484375 32.835938 22.617188 Z M 32.835938 22.617188 " fill-opacity="0.298" fill-rule="nonzero"/></svg>