<svg xmlns="http://www.w3.org/2000/svg" xmlns:xlink="http://www.w3.org/1999/xlink" width="500" zoomAndPan="magnify" viewBox="0 0 375 374.999991" height="500" preserveAspectRatio="xMidYMid meet" version="1.0"><defs><clipPath id="8a59e61fa8"><path d="M 14 8.511719 L 369 8.511719 L 369 366.261719 L 14 366.261719 Z M 14 8.511719 " clip-rule="nonzero"/></clipPath></defs><path fill="#fcce5d" d="M 328.722656 120.484375 L 246.113281 77.894531 C 242.859375 76.214844 241.582031 72.21875 243.261719 68.964844 L 271.117188 14.960938 C 272.796875 11.707031 276.792969 10.429688 280.050781 12.109375 L 362.65625 54.695312 C 365.910156 56.375 367.1875 60.371094 365.511719 63.625 L 337.652344 117.632812 C 335.976562 120.886719 331.976562 122.160156 328.722656 120.484375 " fill-opacity="1" fill-rule="nonzero"/><path fill="#fabd42" d="M 333.761719 110.710938 L 251.15625 68.125 C 247.898438 66.445312 246.621094 62.449219 248.300781 59.191406 L 243.261719 68.964844 C 241.582031 72.21875 242.859375 76.214844 246.113281 77.894531 L 328.722656 120.484375 C 331.976562 122.160156 335.976562 120.886719 337.652344 117.632812 L 342.695312 107.859375 C 341.019531 111.113281 337.015625 112.390625 333.761719 110.710938 " fill-opacity="1" fill-rule="nonzero"/><path fill="#fde398" d="M 298.789062 67.851562 C 300.03125 70.820312 303.226562 72.46875 306.363281 71.757812 L 365.851562 58.34375 C 365.300781 56.824219 364.207031 55.496094 362.65625 54.695312 L 280.050781 12.109375 C 278.5 11.304688 276.78125 11.1875 275.226562 11.621094 L 298.789062 67.851562 " fill-opacity="1" fill-rule="nonzero"/><path fill="#fbc78a" d="M 293.34375 83.734375 C 282.835938 81.496094 272.476562 86.652344 267.667969 95.6875 C 257.984375 77.414062 244.144531 59.4375 244.144531 59.4375 C 244.144531 59.4375 246.226562 20.953125 239.390625 17.273438 C 232.554688 13.597656 202.835938 35.382812 202.835938 35.382812 C 202.835938 35.382812 192.785156 31.75 177.082031 31.75 C 161.382812 31.75 151.332031 35.382812 151.332031 35.382812 C 151.332031 35.382812 121.613281 13.597656 114.777344 17.273438 C 107.941406 20.953125 110.023438 59.4375 110.023438 59.4375 C 110.023438 59.4375 71.589844 109.355469 78.003906 127.382812 C 83.285156 142.226562 91.207031 153.621094 100.304688 162.363281 C 87.546875 176.480469 66.054688 205.175781 63.953125 240.132812 C 62.9375 257.054688 67.714844 267.722656 74.488281 274.441406 C 70.925781 274.835938 67.222656 274.621094 63.398438 273.613281 C 49.296875 269.90625 40.191406 260.523438 37.757812 248.980469 C 36.796875 244.425781 30.851562 243.285156 28.277344 247.164062 C 17.425781 263.515625 5.652344 292.230469 40.621094 309.453125 C 53.347656 315.71875 68.164062 315.925781 81.605469 310.539062 C 85.714844 323.933594 97.382812 341.300781 123.824219 345.898438 C 162.921875 352.695312 170.886719 318.105469 170.886719 318.101562 C 174.863281 318.546875 178.984375 318.398438 182.957031 317.96875 C 182.613281 331.375 184.0625 343.410156 185.351562 351.191406 C 186.300781 356.941406 190.320312 361.460938 196.472656 362.539062 C 207.636719 364.488281 225.269531 364.589844 231.882812 355.730469 C 245.75 337.148438 261.664062 280.050781 256.914062 242.945312 C 255.835938 234.515625 253.265625 225.667969 250.003906 217.105469 C 254.625 213.320312 259.746094 208.675781 265.042969 203.050781 C 287.792969 178.894531 303.84375 147.289062 311.445312 111.648438 C 314.15625 98.941406 306.050781 86.445312 293.34375 83.734375 " fill-opacity="1" fill-rule="nonzero"/><path fill="#ffffff" d="M 293.34375 83.734375 C 282.835938 81.496094 272.476562 86.652344 267.667969 95.6875 C 270.546875 101.125 273.0625 106.585938 274.730469 111.609375 C 300.886719 119.285156 307.742188 125.808594 307.878906 125.9375 C 309.21875 121.253906 310.414062 116.488281 311.445312 111.648438 C 314.15625 98.941406 306.050781 86.445312 293.34375 83.734375 " fill-opacity="1" fill-rule="nonzero"/><path fill="#f9ac61" d="M 244.507812 204.195312 C 246.453125 208.355469 248.320312 212.695312 250.003906 217.105469 C 254.625 213.320312 259.746094 208.675781 265.042969 203.050781 C 277.183594 190.164062 287.410156 175.15625 295.464844 158.546875 C 287.09375 169.046875 270.257812 188.84375 244.507812 204.195312 " fill-opacity="1" fill-rule="nonzero"/><path fill="#ffffff" d="M 82.554688 262.238281 C 73.746094 262.238281 67.417969 254.234375 63.925781 248.261719 C 65.449219 274.855469 83.460938 282.683594 96.175781 284.875 C 98.136719 285.070312 99.933594 285.089844 101.589844 284.972656 C 96.527344 276.953125 94.761719 266.722656 94.339844 258.105469 C 90.875 260.140625 86.039062 262.238281 82.554688 262.238281 " fill-opacity="1" fill-rule="nonzero"/><path fill="#ffffff" d="M 113.082031 295.726562 C 113.082031 295.726562 108.488281 292.660156 109.109375 293.105469 C 106.683594 291.433594 104.355469 289.726562 102.394531 288.238281 C 98.472656 285.265625 93.1875 284.757812 88.804688 286.996094 C 85.035156 288.925781 81.15625 291.828125 80.113281 295.886719 C 79.179688 299.507812 79.886719 307.898438 84.027344 316.859375 C 91.464844 309.601562 102.433594 300.164062 113.082031 295.726562 " fill-opacity="1" fill-rule="nonzero"/><path fill="#f9ac61" d="M 154.386719 314.363281 C 158.199219 315.8125 163.226562 317.257812 169.199219 317.933594 C 169.53125 317.972656 169.867188 318.007812 170.203125 318.039062 C 170.429688 318.0625 170.660156 318.074219 170.886719 318.101562 C 170.886719 318.105469 162.921875 352.695312 123.824219 345.898438 C 113.535156 344.105469 105.484375 340.382812 99.246094 335.714844 C 152.550781 338.148438 154.386719 314.363281 154.386719 314.363281 " fill-opacity="1" fill-rule="nonzero"/><path fill="#f9ac61" d="M 174.386719 318.304688 C 172.652344 318.257812 170.917969 318.128906 169.199219 317.933594 C 163.226562 317.257812 158.199219 315.8125 154.386719 314.363281 C 149.160156 312.375 146.210938 310.390625 146.210938 310.390625 L 146.210938 310.394531 C 141.542969 307.402344 136.292969 302.574219 134.597656 295.394531 C 134.183594 293.628906 136.277344 292.375 137.625 293.582031 C 142.59375 298.046875 153.664062 304.621094 176.199219 305.445312 C 198.734375 304.621094 209.804688 298.046875 214.773438 293.582031 C 216.121094 292.375 218.214844 293.628906 217.800781 295.394531 C 214.535156 309.253906 198.015625 314.363281 198.015625 314.363281 C 198.015625 314.363281 196.628906 327.855469 197.265625 342.796875 C 197.671875 352.269531 207.628906 359.371094 214.863281 363.300781 C 208.523438 363.96875 201.769531 363.460938 196.472656 362.539062 C 190.320312 361.460938 186.300781 356.941406 185.351562 351.191406 C 184.0625 343.410156 182.613281 331.375 182.957031 317.96875 C 180.109375 318.277344 177.246094 318.390625 174.386719 318.304688 " fill-opacity="1" fill-rule="nonzero"/><path fill="#ffffff" d="M 242.679688 334.445312 C 239.195312 343.457031 235.449219 350.898438 231.84375 355.730469 C 225.230469 364.589844 207.597656 364.488281 196.433594 362.539062 C 190.28125 361.460938 186.261719 356.941406 185.3125 351.191406 C 184.847656 348.382812 184.359375 345.007812 183.945312 341.21875 C 211.910156 344.914062 231.558594 339.367188 242.679688 334.445312 " fill-opacity="1" fill-rule="nonzero"/><path fill="#f7f7f7" d="M 196.609375 342.796875 C 196.605469 342.636719 196.597656 342.476562 196.59375 342.316406 C 192.582031 342.15625 188.371094 341.804688 183.945312 341.21875 C 183.949219 341.226562 183.949219 341.234375 183.949219 341.242188 C 184.042969 342.089844 184.136719 342.914062 184.238281 343.722656 C 184.25 343.84375 184.265625 343.96875 184.28125 344.085938 C 184.328125 344.441406 184.371094 344.792969 184.417969 345.136719 C 184.4375 345.3125 184.464844 345.488281 184.488281 345.660156 C 184.542969 346.082031 184.597656 346.5 184.65625 346.90625 C 184.703125 347.234375 184.75 347.5625 184.796875 347.878906 C 184.828125 348.085938 184.855469 348.285156 184.886719 348.488281 C 184.933594 348.792969 184.976562 349.097656 185.027344 349.394531 C 185.046875 349.558594 185.074219 349.714844 185.097656 349.875 C 185.167969 350.324219 185.242188 350.765625 185.3125 351.191406 C 186.261719 356.941406 190.28125 361.460938 196.433594 362.539062 C 196.449219 362.539062 196.464844 362.542969 196.484375 362.546875 C 196.800781 362.601562 197.125 362.65625 197.457031 362.707031 C 197.585938 362.726562 197.714844 362.746094 197.847656 362.765625 C 198.066406 362.800781 198.285156 362.832031 198.507812 362.863281 C 198.671875 362.890625 198.839844 362.910156 199.003906 362.933594 C 199.195312 362.960938 199.386719 362.988281 199.578125 363.011719 C 199.769531 363.035156 199.960938 363.058594 200.152344 363.082031 C 200.324219 363.101562 200.5 363.125 200.675781 363.144531 C 200.886719 363.164062 201.097656 363.1875 201.308594 363.210938 C 201.46875 363.226562 201.628906 363.242188 201.789062 363.261719 C 202.019531 363.28125 202.25 363.300781 202.480469 363.324219 C 202.621094 363.335938 202.765625 363.351562 202.910156 363.359375 C 203.160156 363.378906 203.414062 363.398438 203.664062 363.417969 C 203.789062 363.429688 203.914062 363.4375 204.042969 363.445312 C 204.3125 363.464844 204.585938 363.480469 204.859375 363.496094 C 204.964844 363.5 205.0625 363.507812 205.167969 363.511719 C 205.464844 363.527344 205.761719 363.542969 206.0625 363.554688 C 206.136719 363.558594 206.207031 363.558594 206.277344 363.5625 C 206.613281 363.574219 206.941406 363.585938 207.273438 363.589844 C 207.296875 363.59375 207.316406 363.59375 207.339844 363.59375 C 209.652344 363.640625 212 363.574219 214.304688 363.355469 C 207.058594 359.433594 197.015625 352.308594 196.609375 342.796875 " fill-opacity="1" fill-rule="nonzero"/><path fill="#ffffff" d="M 276.71875 120.027344 C 270.226562 125.355469 259.835938 131.1875 244.679688 132.371094 C 217.84375 134.472656 201.300781 96.734375 177.082031 96.734375 C 152.867188 96.734375 136.324219 134.472656 109.488281 132.371094 C 94.332031 131.1875 83.941406 125.355469 77.449219 120.027344 C 77.128906 122.816406 77.269531 125.308594 78.003906 127.382812 C 90.179688 161.609375 116.363281 177.480469 138.753906 184.828125 C 125.609375 201.773438 117.238281 225.324219 117.238281 245.070312 C 117.238281 280.40625 144.035156 292.890625 177.082031 292.890625 C 210.132812 292.890625 236.925781 280.40625 236.925781 245.070312 C 236.925781 225.324219 228.558594 201.773438 215.414062 184.828125 C 237.804688 177.480469 263.984375 161.609375 276.164062 127.382812 C 276.902344 125.308594 277.039062 122.816406 276.71875 120.027344 " fill-opacity="1" fill-rule="nonzero"/><path fill="#f7f7f7" d="M 177.082031 169.1875 C 177.082031 169.1875 121.4375 171.019531 89.878906 150.316406 C 120.308594 192.835938 177.082031 191.125 177.082031 191.125 C 177.082031 191.125 233.855469 192.835938 264.289062 150.316406 C 232.730469 171.019531 177.082031 169.1875 177.082031 169.1875 " fill-opacity="1" fill-rule="nonzero"/><path fill="#ffffff" d="M 132.75 84.625 C 132.089844 87.898438 128.039062 90.664062 124.535156 90.664062 C 121.03125 90.664062 117.996094 86.75 117.996094 83.417969 C 117.996094 80.082031 124.460938 77.566406 127.964844 77.566406 C 131.464844 77.566406 133.628906 80.261719 132.75 84.625 " fill-opacity="1" fill-rule="nonzero"/><path fill="#ffffff" d="M 221.417969 84.625 C 222.078125 87.898438 226.128906 90.664062 229.628906 90.664062 C 233.132812 90.664062 236.171875 86.75 236.171875 83.417969 C 236.171875 80.082031 229.707031 77.566406 226.203125 77.566406 C 222.703125 77.566406 220.539062 80.261719 221.417969 84.625 " fill-opacity="1" fill-rule="nonzero"/><path fill="#ffffff" d="M 122.722656 49.125 C 126.058594 46.917969 132.480469 42.800781 136.835938 40.863281 C 137.851562 40.410156 138.042969 39.058594 137.183594 38.351562 C 133.320312 35.195312 124.980469 28.90625 122.304688 30.09375 C 119.632812 31.285156 120.242188 42.65625 120.417969 47.9375 C 120.457031 49.097656 121.753906 49.765625 122.722656 49.125 " fill-opacity="1" fill-rule="nonzero"/><path fill="#ffffff" d="M 231.445312 49.125 C 228.109375 46.917969 221.6875 42.800781 217.332031 40.863281 C 216.316406 40.410156 216.121094 39.058594 216.980469 38.351562 C 220.847656 35.195312 229.1875 28.90625 231.859375 30.09375 C 234.535156 31.285156 233.925781 42.65625 233.75 47.9375 C 233.710938 49.097656 232.414062 49.765625 231.445312 49.125 " fill-opacity="1" fill-rule="nonzero"/><path fill="#f9ac61" d="M 130.441406 120.597656 C 130.441406 123.492188 126.554688 125.835938 121.761719 125.835938 C 116.96875 125.835938 113.082031 123.492188 113.082031 120.597656 C 113.082031 117.703125 116.96875 115.355469 121.761719 115.355469 C 126.554688 115.355469 130.441406 117.703125 130.441406 120.597656 " fill-opacity="1" fill-rule="nonzero"/><path fill="#f9ac61" d="M 221.179688 120.597656 C 221.179688 123.492188 225.066406 125.835938 229.863281 125.835938 C 234.65625 125.835938 238.539062 123.492188 238.539062 120.597656 C 238.539062 117.703125 234.65625 115.355469 229.863281 115.355469 C 225.066406 115.355469 221.179688 117.703125 221.179688 120.597656 " fill-opacity="1" fill-rule="nonzero"/><path fill="#f9ac61" d="M 79.753906 298.953125 C 66.816406 303.605469 52.769531 303.144531 40.621094 297.160156 C 26.082031 290.003906 19.628906 280.855469 17.824219 271.433594 C 15.539062 284.816406 19.765625 299.179688 40.621094 309.453125 C 53.347656 315.71875 68.164062 315.921875 81.605469 310.535156 C 80.214844 306.003906 79.691406 301.921875 79.753906 298.953125 " fill-opacity="1" fill-rule="nonzero"/><path fill="#353333" d="M 190.890625 137.796875 C 184.175781 133.839844 182.109375 128.605469 181.507812 125.179688 C 185.246094 123.855469 187.851562 121.023438 187.851562 118.519531 C 187.851562 115.113281 183.03125 113.601562 177.082031 113.601562 C 171.136719 113.601562 166.316406 115.113281 166.316406 118.519531 C 166.316406 121.023438 168.917969 123.855469 172.660156 125.179688 C 172.058594 128.605469 169.992188 133.839844 163.277344 137.796875 C 162.207031 138.429688 162.734375 140.121094 163.960938 139.964844 C 167.648438 139.5 172.722656 137.816406 177.082031 132.65625 C 181.445312 137.816406 186.519531 139.5 190.207031 139.964844 C 191.433594 140.121094 191.960938 138.429688 190.890625 137.796875 " fill-opacity="1" fill-rule="nonzero"/><path fill="#353333" d="M 139.6875 100.796875 C 132.136719 99.453125 128.691406 104.296875 127.160156 108.179688 C 126.722656 109.296875 128.027344 110.289062 128.933594 109.53125 C 131.214844 107.621094 134.664062 105.660156 138.722656 106.433594 C 142.070312 107.074219 144.523438 110.121094 146.035156 112.699219 C 146.644531 113.734375 148.183594 113.257812 148.136719 112.054688 C 147.960938 107.839844 146.460938 102 139.6875 100.796875 " fill-opacity="1" fill-rule="nonzero"/><path fill="#353333" d="M 225.234375 109.53125 C 226.136719 110.289062 227.445312 109.296875 227.003906 108.179688 C 225.476562 104.296875 222.03125 99.453125 214.480469 100.796875 C 207.707031 102 206.207031 107.839844 206.03125 112.054688 C 205.984375 113.257812 207.523438 113.734375 208.132812 112.699219 C 209.644531 110.121094 212.09375 107.074219 215.445312 106.433594 C 219.503906 105.660156 222.953125 107.621094 225.234375 109.53125 " fill-opacity="1" fill-rule="nonzero"/><g clip-path="url(#8a59e61fa8)"><path fill="#353333" d="M 335.296875 116.414062 C 334.292969 118.367188 331.886719 119.132812 329.9375 118.128906 L 314.390625 110.113281 C 315.203125 103.953125 313.820312 97.769531 310.40625 92.5 C 306.601562 86.632812 300.734375 82.601562 293.898438 81.140625 C 285.441406 79.339844 276.777344 81.90625 270.648438 87.558594 L 264.203125 84.238281 C 258.789062 75.277344 253.121094 67.191406 249.636719 62.390625 L 273.476562 16.175781 C 273.609375 15.914062 273.773438 15.671875 273.957031 15.453125 L 296.339844 68.878906 C 297.8125 72.390625 301.21875 74.574219 304.894531 74.574219 C 305.570312 74.574219 306.257812 74.5 306.945312 74.347656 L 363.464844 61.601562 C 363.390625 61.875 363.289062 62.148438 363.152344 62.410156 Z M 263.113281 201.234375 C 259.285156 205.296875 255.257812 209.140625 251.117188 212.703125 C 249.8125 209.488281 248.378906 206.195312 246.796875 202.820312 C 246.175781 201.496094 244.59375 200.925781 243.265625 201.546875 C 241.941406 202.167969 241.371094 203.746094 241.992188 205.074219 C 244.074219 209.515625 245.90625 213.808594 247.484375 217.945312 C 247.511719 218.023438 247.542969 218.101562 247.574219 218.175781 C 251.074219 227.371094 253.324219 235.777344 254.285156 243.28125 C 256.390625 259.738281 254.390625 282.472656 248.800781 305.664062 C 243.757812 326.582031 236.460938 345.160156 229.757812 354.144531 C 224.5 361.183594 209.484375 362.117188 196.929688 359.925781 C 192.128906 359.085938 188.777344 355.65625 187.964844 350.757812 C 186.777344 343.566406 185.4375 332.609375 185.566406 320.304688 C 198.941406 318.359375 207.25 312.871094 207.667969 312.589844 C 208.882812 311.773438 209.203125 310.128906 208.386719 308.914062 C 207.574219 307.699219 205.925781 307.375 204.707031 308.1875 C 204.597656 308.261719 193.285156 315.683594 176.199219 315.683594 C 159.144531 315.683594 147.839844 308.285156 147.691406 308.1875 C 146.476562 307.375 144.828125 307.695312 144.011719 308.90625 C 143.195312 310.121094 143.515625 311.769531 144.730469 312.589844 C 145.15625 312.875 153.683594 318.511719 167.378906 320.382812 C 166.253906 323.417969 163.972656 328.375 159.890625 332.953125 C 151.417969 342.441406 139.4375 345.921875 124.277344 343.285156 C 105.082031 339.949219 94.859375 329.660156 89.667969 321.621094 C 82.875 311.109375 81.765625 300.101562 82.683594 296.546875 C 83.523438 293.273438 87.132812 290.828125 90.011719 289.355469 C 93.449219 287.601562 97.679688 287.992188 100.792969 290.355469 C 102.738281 291.828125 105.082031 293.550781 107.546875 295.246094 C 107.550781 295.25 107.554688 295.253906 107.554688 295.257812 C 107.558594 295.257812 107.566406 295.257812 107.566406 295.261719 C 110.453125 297.246094 113.503906 299.199219 116.273438 300.660156 C 117.566406 301.34375 119.171875 300.84375 119.855469 299.550781 C 120.539062 298.253906 120.042969 296.648438 118.75 295.964844 C 116.199219 294.621094 113.363281 292.8125 110.652344 290.949219 C 108.03125 289.054688 105.78125 286.617188 103.894531 283.660156 C 103.855469 283.597656 103.820312 283.535156 103.777344 283.476562 C 100.914062 278.921875 98.914062 273.152344 97.816406 266.195312 C 96.140625 255.59375 97.152344 245.984375 97.5 243.289062 C 98.496094 235.59375 104.125 217.132812 109.882812 204.871094 C 110.507812 203.546875 109.9375 201.96875 108.613281 201.34375 C 107.285156 200.722656 105.707031 201.292969 105.082031 202.617188 C 99.027344 215.507812 93.308594 234.359375 92.238281 242.605469 C 91.855469 245.570312 89.53125 266.296875 97.121094 282.292969 C 96.925781 282.277344 96.734375 282.265625 96.535156 282.25 C 89.664062 281.050781 82.273438 278.359375 76.535156 272.757812 C 76.429688 272.628906 76.3125 272.511719 76.183594 272.40625 C 69.863281 266.019531 65.660156 255.976562 66.601562 240.289062 C 68.558594 207.691406 87.90625 180.539062 100.488281 166.148438 C 101.140625 166.738281 101.796875 167.324219 102.464844 167.894531 C 112.167969 176.164062 123.839844 182.625 137.160156 187.09375 C 138.546875 187.558594 140.050781 186.8125 140.519531 185.421875 C 140.984375 184.035156 140.238281 182.53125 138.847656 182.066406 C 126.171875 177.8125 115.089844 171.6875 105.90625 163.859375 C 94.375 154.023438 85.824219 141.453125 80.503906 126.492188 C 75.640625 112.828125 101.679688 74.625 112.125 61.054688 C 112.511719 60.550781 112.707031 59.929688 112.667969 59.292969 C 112.667969 59.199219 112.164062 49.722656 112.484375 39.902344 C 113.089844 21.492188 115.914062 19.675781 116.03125 19.609375 C 116.152344 19.546875 119.144531 18.132812 134.222656 27.207031 C 142.308594 32.074219 149.6875 37.46875 149.761719 37.523438 C 150.476562 38.046875 151.402344 38.179688 152.234375 37.878906 C 152.332031 37.84375 162.019531 34.402344 177.082031 34.402344 C 192.070312 34.402344 201.839844 37.84375 201.933594 37.878906 C 202.765625 38.179688 203.691406 38.046875 204.402344 37.523438 C 204.476562 37.46875 211.859375 32.074219 219.945312 27.207031 C 235.023438 18.132812 238.015625 19.546875 238.132812 19.609375 C 238.253906 19.675781 241.078125 21.492188 241.683594 39.871094 C 242.003906 49.695312 241.5 59.199219 241.5 59.292969 C 241.460938 59.929688 241.65625 60.550781 242.042969 61.054688 C 242.140625 61.179688 251.679688 73.613281 260.308594 88.050781 C 271.234375 106.339844 275.976562 119.992188 273.664062 126.492188 C 268.339844 141.457031 259.789062 154.03125 248.253906 163.863281 C 239.070312 171.691406 227.988281 177.816406 215.308594 182.070312 C 213.921875 182.535156 213.171875 184.039062 213.636719 185.425781 C 214.007812 186.535156 215.042969 187.234375 216.152344 187.234375 C 216.433594 187.234375 216.71875 187.191406 216.996094 187.097656 C 230.320312 182.628906 241.992188 176.167969 251.695312 167.898438 C 263.949219 157.453125 273.023438 144.121094 278.664062 128.269531 C 281.066406 121.511719 278.382812 110.597656 270.691406 95.75 C 275.289062 88.34375 284.171875 84.488281 292.792969 86.328125 C 298.246094 87.492188 302.921875 90.707031 305.953125 95.386719 C 308.984375 100.0625 310.015625 105.640625 308.851562 111.09375 C 308.851562 111.105469 308.847656 111.113281 308.847656 111.125 C 301.339844 146.277344 285.523438 177.4375 263.113281 201.234375 Z M 41.796875 307.070312 C 30.308594 301.414062 23.269531 294.046875 20.871094 285.167969 C 17.375 272.210938 24.167969 258.148438 30.488281 248.632812 C 31.371094 247.300781 32.726562 247.4375 33.117188 247.515625 C 33.515625 247.589844 34.828125 247.957031 35.160156 249.527344 C 37.878906 262.394531 48.183594 272.355469 62.726562 276.179688 C 66.269531 277.109375 69.890625 277.445312 73.511719 277.1875 C 77.601562 280.953125 82.253906 283.449219 86.726562 285.101562 C 81.644531 287.882812 78.558594 291.28125 77.542969 295.222656 C 76.800781 298.117188 77 302.730469 78.074219 307.570312 C 78.171875 307.992188 78.277344 308.441406 78.394531 308.910156 C 66.121094 313.179688 52.90625 312.546875 41.796875 307.070312 Z M 360.855469 56.753906 L 305.777344 69.171875 C 303.890625 69.597656 301.980469 68.613281 301.234375 66.832031 L 279.417969 14.765625 Z M 368.382812 57.570312 C 368.347656 57.457031 368.308594 57.339844 368.257812 57.234375 C 367.46875 55.195312 365.96875 53.417969 363.871094 52.339844 L 281.265625 9.75 C 279.167969 8.667969 276.851562 8.476562 274.730469 9.015625 C 274.613281 9.039062 274.5 9.070312 274.390625 9.109375 C 272.042969 9.800781 269.96875 11.402344 268.757812 13.746094 L 246.9375 56.046875 C 247.0625 52.296875 247.195312 46.039062 246.984375 39.648438 C 246.34375 20.425781 243.261719 16.347656 240.648438 14.941406 C 238.039062 13.539062 233.015625 13.148438 217.183594 22.679688 C 210.667969 26.597656 204.757812 30.746094 202.375 32.449219 C 199.050781 31.441406 189.917969 29.097656 177.082031 29.097656 C 164.25 29.097656 155.117188 31.441406 151.796875 32.449219 C 149.410156 30.746094 143.496094 26.597656 136.984375 22.679688 C 121.152344 13.148438 116.128906 13.539062 113.519531 14.941406 C 110.90625 16.347656 107.820312 20.425781 107.183594 39.648438 C 106.914062 47.871094 107.207031 55.878906 107.328125 58.601562 C 105.082031 61.582031 96.867188 72.679688 89.332031 85.289062 C 77.21875 105.554688 72.566406 120.015625 75.503906 128.269531 C 80.210938 141.5 87.316406 152.964844 96.660156 162.472656 C 83.613281 177.347656 63.363281 205.679688 61.304688 239.972656 C 60.429688 254.554688 63.691406 264.746094 68.796875 271.863281 C 67.210938 271.730469 65.632812 271.460938 64.074219 271.050781 C 51.328125 267.699219 42.679688 259.457031 40.351562 248.433594 C 39.679688 245.261719 37.292969 242.914062 34.117188 242.304688 C 30.9375 241.699219 27.859375 243 26.066406 245.699219 C 19.144531 256.125 11.738281 271.679688 15.75 286.550781 C 18.5625 296.964844 26.535156 305.46875 39.453125 311.832031 C 46.449219 315.277344 54.179688 317.007812 62.039062 317.007812 C 68.035156 317.007812 74.097656 316 79.964844 313.980469 C 81.132812 317.164062 82.808594 320.78125 85.210938 324.5 C 90.980469 333.429688 102.28125 344.84375 123.371094 348.507812 C 127.011719 349.144531 130.386719 349.429688 133.527344 349.429688 C 148.855469 349.429688 158.425781 342.628906 164.003906 336.304688 C 169.1875 330.429688 171.753906 324.136719 172.832031 320.898438 C 173.929688 320.953125 175.050781 320.984375 176.199219 320.984375 C 177.589844 320.984375 178.941406 320.9375 180.257812 320.855469 C 180.171875 333.292969 181.527344 344.335938 182.730469 351.621094 C 183.90625 358.738281 189 363.921875 196.015625 365.148438 C 197.9375 365.484375 203.027344 366.261719 209.011719 366.261719 C 217.828125 366.261719 228.589844 364.578125 234.003906 357.316406 C 241.117188 347.792969 248.761719 328.480469 253.960938 306.90625 C 259.78125 282.761719 261.761719 259.929688 259.542969 242.609375 C 258.589844 235.152344 256.441406 226.898438 253.144531 217.941406 C 257.933594 213.921875 262.578125 209.535156 266.972656 204.871094 C 289.351562 181.113281 305.324219 150.277344 313.304688 115.519531 L 327.507812 122.839844 C 328.863281 123.542969 330.3125 123.871094 331.746094 123.871094 C 335.113281 123.871094 338.367188 122.039062 340.011719 118.847656 L 367.871094 64.839844 C 369.074219 62.5 369.179688 59.882812 368.382812 57.570312 " fill-opacity="1" fill-rule="nonzero"/></g></svg>