<svg xmlns="http://www.w3.org/2000/svg" xmlns:xlink="http://www.w3.org/1999/xlink" width="500" zoomAndPan="magnify" viewBox="0 0 375 374.999991" height="500" preserveAspectRatio="xMidYMid meet" version="1.0"><defs><clipPath id="85e14d43dd"><path d="M 54 224 L 298 224 L 298 351.335938 L 54 351.335938 Z M 54 224 " clip-rule="nonzero"/></clipPath><clipPath id="ce316aedfc"><path d="M 276 62 L 369.875 62 L 369.875 146 L 276 146 Z M 276 62 " clip-rule="nonzero"/></clipPath></defs><path fill="#5e2719" d="M 76.808594 224.332031 L 275.386719 224.332031 L 254.953125 121.898438 L 97.238281 121.898438 Z M 176.089844 236.605469 L 69.316406 236.605469 C 68.917969 236.605469 68.519531 236.570312 68.117188 236.488281 C 64.792969 235.828125 62.628906 232.585938 63.296875 229.261719 L 86.140625 114.707031 C 86.636719 111.808594 89.164062 109.597656 92.195312 109.597656 L 259.984375 109.597656 C 262.851562 109.597656 265.425781 111.621094 266.003906 114.542969 L 288.847656 229.0625 C 288.953125 229.511719 289 229.980469 289 230.449219 C 289 233.84375 286.25 236.59375 282.851562 236.59375 L 176.089844 236.59375 Z M 176.089844 236.605469 " fill-opacity="1" fill-rule="nonzero"/><path fill="#de8b47" d="M 69.316406 230.472656 L 282.875 230.472656 L 259.996094 115.753906 L 92.195312 115.753906 Z M 69.316406 230.472656 " fill-opacity="1" fill-rule="evenodd"/><path fill="#5e2719" d="M 274.375 166.472656 L 317.261719 180.425781 C 318.976562 180.976562 320.269531 182.222656 320.953125 183.738281 L 345.207031 233.609375 C 346.675781 236.652344 345.394531 240.316406 342.351562 241.785156 C 341.007812 242.429688 339.5625 242.546875 338.222656 242.21875 L 291.867188 230.671875 C 289.75 230.15625 288.152344 228.582031 287.519531 226.65625 L 266.804688 174.539062 C 265.558594 171.40625 267.097656 167.84375 270.234375 166.601562 C 271.609375 166.046875 273.070312 166.046875 274.386719 166.472656 Z M 310.996094 191.277344 L 282.992188 182.164062 L 297.851562 219.550781 L 328.441406 227.171875 Z M 310.996094 191.277344 " fill-opacity="1" fill-rule="nonzero"/><path fill="#de8b47" d="M 272.480469 172.296875 L 315.367188 186.25 L 339.691406 236.277344 L 293.335938 224.730469 Z M 272.480469 172.296875 " fill-opacity="1" fill-rule="evenodd"/><path fill="#5e2719" d="M 69.199219 182.164062 L 41.195312 191.277344 L 23.75 227.160156 L 54.339844 219.539062 Z M 34.917969 180.425781 L 77.804688 166.472656 L 77.804688 166.484375 C 79.109375 166.058594 80.570312 166.070312 81.957031 166.613281 C 85.09375 167.855469 86.636719 171.417969 85.390625 174.550781 L 64.675781 226.65625 C 64.027344 228.582031 62.441406 230.15625 60.324219 230.671875 L 13.96875 242.21875 C 12.628906 242.546875 11.183594 242.429688 9.84375 241.785156 C 6.796875 240.316406 5.515625 236.652344 6.984375 233.609375 L 31.238281 183.738281 C 31.910156 182.222656 33.214844 180.988281 34.917969 180.425781 Z M 34.917969 180.425781 " fill-opacity="1" fill-rule="nonzero"/><path fill="#de8b47" d="M 79.710938 172.296875 L 36.824219 186.25 L 12.5 236.277344 L 58.855469 224.730469 Z M 79.710938 172.296875 " fill-opacity="1" fill-rule="evenodd"/><path fill="#5e2719" d="M 84.484375 178.441406 L 68.941406 224.332031 L 283.238281 224.332031 L 267.707031 178.441406 Z M 54.585938 228.5 L 74.160156 170.710938 C 74.867188 168.09375 77.253906 166.167969 80.097656 166.167969 L 272.105469 166.167969 L 272.105469 166.179688 C 274.65625 166.179688 277.042969 167.785156 277.914062 170.335938 L 297.488281 228.136719 C 297.78125 228.851562 297.945312 229.652344 297.945312 230.472656 C 297.945312 233.867188 295.195312 236.617188 291.796875 236.617188 L 60.394531 236.617188 L 60.394531 236.605469 C 59.75 236.605469 59.078125 236.5 58.429688 236.277344 C 55.222656 235.183594 53.492188 231.707031 54.585938 228.5 Z M 54.585938 228.5 " fill-opacity="1" fill-rule="nonzero"/><path fill="#b86f33" d="M 80.085938 172.296875 L 60.394531 230.472656 L 291.796875 230.472656 L 272.105469 172.296875 Z M 80.085938 172.296875 " fill-opacity="1" fill-rule="evenodd"/><path fill="#5e2719" d="M 84.035156 166.753906 L 268.15625 166.753906 C 271.222656 166.753906 273.703125 169.230469 273.703125 172.296875 C 273.703125 172.859375 273.621094 173.402344 273.46875 173.90625 L 253.824219 259.15625 C 253.234375 261.714844 250.957031 263.457031 248.425781 263.457031 L 248.425781 263.46875 L 103.765625 263.46875 C 101 263.46875 98.710938 261.445312 98.285156 258.804688 L 78.640625 173.542969 C 77.957031 170.558594 79.828125 167.597656 82.800781 166.917969 C 83.214844 166.8125 83.625 166.765625 84.035156 166.753906 Z M 176.089844 177.839844 L 90.996094 177.839844 L 108.171875 252.367188 L 244.019531 252.367188 L 261.195312 177.839844 Z M 176.089844 177.839844 " fill-opacity="1" fill-rule="nonzero"/><path fill="#b86f33" d="M 84.035156 172.296875 L 268.15625 172.296875 L 248.425781 257.910156 L 103.765625 257.910156 Z M 84.035156 172.296875 " fill-opacity="1" fill-rule="evenodd"/><path fill="#5e2719" d="M 111.453125 176.136719 C 107.03125 191.59375 106.503906 209.460938 108.609375 227.335938 C 110.984375 247.515625 116.695312 267.625 123.914062 284.28125 C 127.335938 286.488281 133.144531 287.511719 138.988281 287.167969 C 143.984375 286.875 148.757812 285.59375 151.613281 283.210938 C 149.980469 276.339844 148.863281 269.515625 148.074219 262.738281 C 147.191406 255.082031 146.746094 247.304688 146.476562 239.566406 C 146.371094 236.195312 149.027344 233.363281 152.402344 233.257812 C 152.941406 233.246094 153.46875 233.292969 153.988281 233.410156 L 153.988281 233.398438 C 157.738281 234.277344 160.832031 234.972656 164.050781 235.40625 C 167.285156 235.839844 170.976562 236.074219 176.101562 236.074219 C 181.238281 236.074219 184.929688 235.839844 188.152344 235.40625 C 191.375 234.972656 194.464844 234.277344 198.214844 233.398438 C 201.519531 232.632812 204.8125 234.679688 205.585938 237.980469 C 205.75 238.660156 205.785156 239.351562 205.714844 240.011719 C 205.445312 247.609375 204.988281 255.222656 204.128906 262.738281 C 203.351562 269.515625 202.238281 276.351562 200.589844 283.210938 C 203.449219 285.59375 208.207031 286.875 213.21875 287.167969 C 219.058594 287.511719 224.867188 286.488281 228.289062 284.292969 C 235.507812 267.636719 241.222656 247.539062 243.59375 227.347656 C 245.699219 209.484375 245.171875 191.605469 240.75 176.148438 C 240.023438 173.589844 241.03125 170.957031 243.066406 169.488281 C 247.5 165.941406 251.027344 161.914062 253.367188 157.414062 C 255.539062 153.246094 256.738281 148.570312 256.738281 143.367188 C 256.738281 132.46875 255.492188 122.144531 253 112.664062 C 250.566406 103.445312 246.957031 95 242.171875 87.597656 C 241.445312 86.472656 241.125 85.203125 241.199219 83.96875 C 241.527344 73.738281 240.421875 60.550781 238.234375 50.097656 C 236.789062 43.210938 235.296875 37.972656 234.097656 36.824219 C 233.261719 37.011719 231.015625 38.550781 228.078125 40.792969 C 222.761719 44.855469 216.753906 51 211.839844 56.933594 C 210.523438 58.777344 208.253906 59.773438 205.976562 59.433594 C 205.644531 59.386719 205.316406 59.316406 204.988281 59.210938 C 200.730469 57.835938 196.160156 56.777344 191.269531 56.050781 C 186.519531 55.347656 181.472656 54.980469 176.113281 54.980469 C 170.765625 54.980469 165.710938 55.347656 160.960938 56.050781 C 156.070312 56.765625 151.496094 57.835938 147.238281 59.210938 C 144.605469 60.054688 141.820312 59.023438 140.328125 56.859375 C 135.425781 50.953125 129.441406 44.84375 124.136719 40.792969 C 121.210938 38.550781 118.953125 37.011719 118.117188 36.824219 C 116.917969 37.984375 115.425781 43.222656 113.980469 50.097656 C 111.78125 60.585938 110.675781 73.84375 111.019531 84.074219 C 111.054688 85.367188 110.6875 86.589844 110.03125 87.597656 C 105.246094 94.988281 101.625 103.433594 99.203125 112.664062 C 96.710938 122.132812 95.464844 132.46875 95.464844 143.367188 C 95.464844 148.570312 96.664062 153.246094 98.839844 157.414062 C 101.226562 161.984375 104.835938 166.082031 109.371094 169.679688 C 111.359375 171.25 112.101562 173.824219 111.453125 176.136719 Z M 96.417969 228.722656 C 94.3125 210.8125 94.675781 192.769531 98.625 176.621094 C 94.230469 172.625 90.621094 168.105469 87.988281 163.054688 C 84.882812 157.109375 83.167969 150.53125 83.167969 143.34375 C 83.167969 131.46875 84.554688 120.101562 87.339844 109.527344 C 89.925781 99.746094 93.710938 90.664062 98.722656 82.550781 C 98.53125 71.71875 99.71875 58.292969 101.964844 47.582031 C 104.234375 36.765625 107.996094 28.085938 113.25 25.5 C 113.570312 25.335938 113.910156 25.195312 114.261719 25.089844 C 119.105469 23.597656 125.277344 26.230469 131.554688 31.03125 C 136.753906 35.003906 142.464844 40.652344 147.441406 46.347656 C 151.203125 45.316406 155.117188 44.492188 159.160156 43.894531 C 164.558594 43.09375 170.199219 42.683594 176.089844 42.683594 C 181.980469 42.683594 187.625 43.09375 193.019531 43.894531 C 197.0625 44.492188 200.976562 45.316406 204.742188 46.347656 C 209.714844 40.652344 215.425781 35.015625 220.625 31.03125 C 226.902344 26.230469 233.074219 23.585938 237.917969 25.089844 L 238.445312 25.277344 C 243.949219 27.542969 247.875 36.4375 250.214844 47.582031 C 252.460938 58.304688 253.648438 71.71875 253.460938 82.550781 C 258.46875 90.664062 262.265625 99.746094 264.839844 109.527344 C 267.625 120.101562 269.011719 131.46875 269.011719 143.34375 C 269.011719 150.53125 267.308594 157.097656 264.191406 163.054688 C 261.558594 168.105469 257.949219 172.613281 253.554688 176.621094 C 257.503906 192.757812 257.867188 210.8125 255.765625 228.722656 C 253.175781 250.734375 246.851562 272.640625 238.90625 290.5625 C 238.5625 291.351562 238.058594 292.089844 237.363281 292.703125 C 236.625 293.371094 235.789062 293.992188 234.882812 294.582031 C 229.335938 298.164062 220.71875 299.867188 212.464844 299.386719 C 203.964844 298.878906 195.5 296.039062 190.515625 290.503906 C 189.855469 289.777344 189.246094 288.976562 188.691406 288.121094 L 188.703125 288.121094 C 187.8125 286.734375 187.480469 284.996094 187.929688 283.28125 C 189.808594 276.058594 191.066406 268.71875 191.914062 261.328125 C 192.46875 256.488281 192.84375 251.722656 193.113281 247 C 192.03125 247.1875 190.925781 247.363281 189.761719 247.527344 C 185.835938 248.054688 181.628906 248.351562 176.078125 248.351562 C 170.53125 248.351562 166.320312 248.066406 162.394531 247.527344 C 161.230469 247.375 160.125 247.199219 159.042969 247 C 159.3125 251.722656 159.691406 256.488281 160.242188 261.328125 C 161.078125 268.613281 162.300781 275.859375 164.144531 282.976562 C 164.675781 284.644531 164.476562 286.523438 163.453125 288.121094 C 162.898438 288.976562 162.289062 289.777344 161.628906 290.503906 C 156.644531 296.039062 148.179688 298.878906 139.679688 299.386719 C 131.425781 299.878906 122.808594 298.164062 117.261719 294.582031 C 116.402344 294.027344 115.613281 293.441406 114.910156 292.820312 C 114.214844 292.230469 113.652344 291.492188 113.261719 290.609375 C 105.328125 272.6875 99.003906 250.757812 96.417969 228.722656 Z M 96.417969 228.722656 " fill-opacity="1" fill-rule="nonzero"/><path fill="#fcaf3a" d="M 105.550781 174.457031 C 95.523438 209.4375 104.445312 255.5625 118.90625 288.144531 C 127.207031 295.613281 151.414062 295.484375 158.3125 284.808594 C 154.351562 269.65625 153.105469 254.339844 152.589844 239.339844 C 160.289062 241.148438 165.414062 242.195312 176.101562 242.195312 C 186.789062 242.195312 191.902344 241.160156 199.613281 239.339844 C 199.085938 254.339844 197.839844 269.65625 193.890625 284.808594 C 200.789062 295.484375 224.996094 295.613281 233.296875 288.144531 C 247.757812 255.5625 256.679688 209.4375 246.652344 174.457031 C 256.691406 166.507812 262.886719 156.136719 262.886719 143.355469 C 262.886719 120.792969 257.714844 100.332031 247.300781 84.265625 C 247.96875 64.484375 243.453125 33.980469 236.117188 30.949219 C 230.179688 29.117188 216.402344 41.722656 206.820312 53.371094 L 206.84375 53.382812 C 197.722656 50.4375 187.480469 48.851562 176.101562 48.851562 C 164.722656 48.851562 154.480469 50.4375 145.359375 53.382812 L 145.382812 53.371094 C 135.800781 41.734375 122.023438 29.117188 116.085938 30.949219 C 108.75 33.980469 104.246094 64.484375 104.90625 84.265625 C 94.488281 100.332031 89.316406 120.792969 89.316406 143.355469 C 89.316406 156.136719 95.511719 166.507812 105.550781 174.457031 Z M 105.550781 174.457031 " fill-opacity="1" fill-rule="evenodd"/><path fill="#e3842b" d="M 139.328125 293.265625 C 147.214844 292.796875 154.894531 290.105469 158.324219 284.808594 C 154.363281 269.65625 153.117188 254.339844 152.601562 239.339844 C 160.289062 241.148438 165.402344 242.183594 176.03125 242.195312 L 176.171875 242.195312 C 186.800781 242.195312 191.925781 241.148438 199.601562 239.339844 C 199.074219 254.339844 197.828125 269.65625 193.878906 284.808594 C 197.296875 290.105469 204.988281 292.808594 212.875 293.265625 C 202.226562 285.582031 206.046875 258.523438 211.769531 240.1875 C 214.957031 229.957031 216.898438 222.746094 207.082031 225.941406 C 198.535156 228.722656 187.5625 230.425781 176.183594 230.085938 L 176.042969 230.085938 C 164.675781 230.425781 153.695312 228.722656 145.148438 225.941406 C 135.332031 222.746094 137.257812 229.957031 140.457031 240.1875 C 146.15625 258.523438 149.96875 285.59375 139.328125 293.265625 Z M 139.328125 293.265625 " fill-opacity="1" fill-rule="evenodd"/><path fill="#fff3e3" d="M 115.496094 279.933594 C 116.589844 282.753906 117.730469 285.488281 118.90625 288.144531 C 127.207031 295.613281 151.414062 295.484375 158.3125 284.808594 C 157.5625 281.917969 156.902344 279.03125 156.339844 276.140625 C 151.261719 273.332031 145.183594 271.6875 138.644531 271.6875 C 129.558594 271.6875 121.351562 274.847656 115.496094 279.933594 Z M 115.496094 279.933594 " fill-opacity="1" fill-rule="evenodd"/><path fill="#e6c6a6" d="M 139.328125 293.265625 L 140.054688 293.21875 L 140.421875 293.183594 L 141.148438 293.113281 L 141.480469 293.078125 L 141.515625 293.078125 L 142.242188 292.984375 L 142.609375 292.9375 L 143.335938 292.820312 L 143.347656 292.820312 L 143.6875 292.761719 L 144.054688 292.703125 L 144.078125 292.703125 L 144.40625 292.644531 L 144.757812 292.574219 L 144.792969 292.5625 L 145.113281 292.492188 L 145.464844 292.40625 L 145.535156 292.394531 L 145.816406 292.324219 L 146.167969 292.242188 L 146.242188 292.230469 L 146.511719 292.160156 L 146.851562 292.066406 L 146.921875 292.042969 L 147.191406 291.972656 L 147.203125 291.972656 L 147.546875 291.878906 L 147.59375 291.867188 L 147.886719 291.785156 L 148.214844 291.679688 L 148.25 291.667969 L 148.542969 291.574219 L 148.875 291.46875 L 148.933594 291.445312 L 149.214844 291.339844 L 149.660156 291.175781 L 149.8125 291.117188 L 150.285156 290.929688 L 150.496094 290.847656 L 150.953125 290.644531 L 151.023438 290.621094 L 151.097656 290.585938 L 151.519531 290.386719 L 151.683594 290.316406 C 151.847656 290.234375 152.011719 290.152344 152.164062 290.070312 L 152.222656 290.035156 L 152.285156 290 L 152.730469 289.753906 L 152.847656 289.695312 L 153.28125 289.4375 L 153.433594 289.34375 L 153.847656 289.082031 L 153.953125 289.023438 C 154.105469 288.929688 154.246094 288.824219 154.386719 288.730469 L 154.445312 288.683594 L 154.480469 288.660156 C 154.621094 288.554688 154.765625 288.460938 154.90625 288.355469 L 154.953125 288.320312 L 154.988281 288.296875 C 155.304688 288.050781 155.621094 287.804688 155.917969 287.535156 L 155.953125 287.5 C 156.257812 287.226562 156.539062 286.957031 156.808594 286.664062 L 156.820312 286.652344 C 156.949219 286.523438 157.066406 286.382812 157.199219 286.242188 L 157.234375 286.207031 C 157.363281 286.054688 157.492188 285.914062 157.609375 285.761719 L 157.621094 285.75 C 157.738281 285.59375 157.855469 285.429688 157.972656 285.277344 C 158.089844 285.113281 158.195312 284.960938 158.300781 284.785156 L 158.265625 284.65625 L 158.230469 284.515625 L 158.195312 284.386719 L 158.160156 284.246094 L 158.125 284.117188 L 158.113281 284.082031 L 158.089844 283.972656 L 158.019531 283.714844 L 157.984375 283.574219 L 157.949219 283.445312 L 157.925781 283.304688 L 157.890625 283.175781 L 157.855469 283.035156 L 157.820312 282.90625 L 157.785156 282.765625 L 157.761719 282.660156 L 157.75 282.625 L 157.679688 282.34375 L 157.644531 282.210938 L 157.609375 282.070312 L 157.539062 281.8125 L 157.503906 281.671875 L 157.445312 281.402344 L 157.410156 281.273438 L 157.398438 281.238281 L 157.339844 281.003906 L 157.304688 280.875 L 157.269531 280.734375 L 157.234375 280.589844 L 157.210938 280.449219 L 157.175781 280.308594 L 157.136719 280.167969 L 157.101562 280.039062 L 157.066406 279.898438 L 157.042969 279.792969 L 157.03125 279.757812 L 156.996094 279.628906 L 156.890625 279.207031 L 156.855469 279.078125 L 156.832031 278.949219 L 156.796875 278.804688 L 156.773438 278.664062 L 156.738281 278.535156 L 156.714844 278.394531 L 156.703125 278.359375 L 156.679688 278.265625 L 156.65625 278.125 L 156.632812 277.996094 L 156.574219 277.726562 L 156.5625 277.65625 L 156.550781 277.597656 L 156.527344 277.457031 L 156.421875 276.9375 L 156.410156 276.902344 L 156.363281 276.621094 L 156.339844 276.492188 L 156.292969 276.210938 L 156.269531 276.082031 C 153.164062 274.367188 149.695312 273.085938 145.980469 272.347656 C 146.144531 281.707031 144.347656 289.648438 139.328125 293.265625 Z M 139.328125 293.265625 " fill-opacity="1" fill-rule="evenodd"/><path fill="#5e2719" d="M 143.734375 94.800781 C 151.023438 94.800781 156.9375 101.660156 156.9375 110.117188 C 156.9375 118.574219 151.023438 125.433594 143.734375 125.433594 C 136.449219 125.433594 130.535156 118.574219 130.535156 110.117188 C 130.535156 101.660156 136.449219 94.800781 143.734375 94.800781 Z M 143.734375 94.800781 " fill-opacity="1" fill-rule="evenodd"/><path fill="#fff3e3" d="M 140.726562 73.976562 C 133.824219 76.371094 133.578125 82.726562 140.878906 82.9375 C 145.230469 83.066406 148.710938 83.957031 153.386719 86.085938 C 158.878906 88.574219 161.347656 84.003906 160.019531 79.777344 C 157.632812 72.164062 145.453125 72.332031 140.726562 73.976562 Z M 140.726562 73.976562 " fill-opacity="1" fill-rule="evenodd"/><path fill="#ffffff" d="M 146.933594 100.203125 C 149.921875 100.203125 152.332031 103.011719 152.332031 106.464844 C 152.332031 109.917969 149.910156 112.722656 146.933594 112.722656 C 143.949219 112.722656 141.539062 109.917969 141.539062 106.464844 C 141.539062 103.011719 143.949219 100.203125 146.933594 100.203125 Z M 146.933594 100.203125 " fill-opacity="1" fill-rule="evenodd"/><path fill="#5e2719" d="M 208.445312 94.800781 C 201.15625 94.800781 195.242188 101.660156 195.242188 110.117188 C 195.242188 118.574219 201.15625 125.433594 208.445312 125.433594 C 215.734375 125.433594 221.644531 118.574219 221.644531 110.117188 C 221.65625 101.660156 215.746094 94.800781 208.445312 94.800781 Z M 208.445312 94.800781 " fill-opacity="1" fill-rule="evenodd"/><path fill="#fff3e3" d="M 211.464844 73.976562 C 218.367188 76.371094 218.613281 82.726562 211.3125 82.9375 C 206.960938 83.066406 203.484375 83.957031 198.804688 86.085938 C 193.3125 88.574219 190.84375 84.003906 192.171875 79.777344 C 194.558594 72.164062 206.738281 72.332031 211.464844 73.976562 Z M 211.464844 73.976562 " fill-opacity="1" fill-rule="evenodd"/><path fill="#ffffff" d="M 205.257812 100.203125 C 202.273438 100.203125 199.863281 103.011719 199.863281 106.464844 C 199.863281 109.917969 202.285156 112.722656 205.257812 112.722656 C 208.242188 112.722656 210.652344 109.917969 210.652344 106.464844 C 210.652344 103.011719 208.242188 100.203125 205.257812 100.203125 Z M 205.257812 100.203125 " fill-opacity="1" fill-rule="evenodd"/><path fill="#e3842b" d="M 103.847656 98.054688 C 82.25 154.703125 99.15625 183.597656 151.484375 187.039062 C 162.230469 187.742188 160.042969 185.207031 151.378906 182.890625 C 111.628906 172.308594 99.894531 142.109375 107.480469 100.308594 C 109.558594 88.785156 108.394531 86.121094 103.847656 98.054688 Z M 103.847656 98.054688 " fill-opacity="1" fill-rule="evenodd"/><path fill="#fff3e3" d="M 89.375 139.152344 C 89.339844 140.550781 89.316406 141.945312 89.316406 143.355469 C 89.316406 168.246094 112.78125 183.972656 142.441406 190.5625 L 142.417969 190.574219 C 142.21875 209.191406 145.921875 225.246094 152.589844 239.351562 C 160.289062 241.160156 165.414062 242.207031 176.101562 242.207031 L 176.242188 242.207031 C 186.929688 242.207031 192.042969 241.171875 199.753906 239.351562 C 206.421875 225.246094 210.113281 209.191406 209.925781 190.574219 L 209.867188 190.539062 C 239.492188 183.9375 262.910156 168.222656 262.910156 143.355469 C 262.910156 141.945312 262.886719 140.550781 262.851562 139.152344 C 248.367188 132.5625 233.390625 135.96875 218.144531 144.71875 C 207.925781 134.335938 197.582031 127.535156 176.125 127.640625 C 154.667969 127.523438 144.335938 134.324219 134.109375 144.71875 C 118.835938 135.980469 103.859375 132.5625 89.375 139.152344 Z M 89.375 139.152344 " fill-opacity="1" fill-rule="evenodd"/><path fill="#e6c6a6" d="M 147.605469 226.703125 C 149.003906 231.085938 150.671875 235.300781 152.589844 239.339844 L 152.953125 239.421875 L 153.304688 239.503906 L 153.660156 239.589844 L 154.679688 239.835938 L 155.023438 239.917969 L 155.351562 239.988281 L 155.363281 239.988281 L 155.691406 240.058594 L 155.703125 240.058594 L 156.035156 240.128906 L 156.046875 240.128906 L 156.363281 240.199219 L 156.375 240.199219 L 156.691406 240.269531 L 156.703125 240.269531 L 157.019531 240.339844 L 157.03125 240.339844 L 157.351562 240.410156 L 157.363281 240.410156 L 157.679688 240.480469 L 157.691406 240.480469 L 158.007812 240.539062 L 158.019531 240.539062 L 158.335938 240.597656 L 158.347656 240.597656 L 158.65625 240.65625 L 158.667969 240.65625 L 158.972656 240.714844 L 158.984375 240.714844 L 159.019531 240.726562 L 159.3125 240.785156 L 159.621094 240.84375 L 159.632812 240.84375 L 159.9375 240.902344 L 159.949219 240.902344 L 160.253906 240.960938 L 160.265625 240.960938 L 160.570312 241.019531 L 160.59375 241.019531 L 160.902344 241.066406 L 160.925781 241.066406 L 161.230469 241.113281 L 161.253906 241.113281 L 161.558594 241.160156 L 161.582031 241.160156 L 161.886719 241.207031 L 161.910156 241.207031 L 162.21875 241.257812 L 162.242188 241.257812 L 162.546875 241.304688 L 162.570312 241.304688 L 162.875 241.351562 L 162.898438 241.351562 L 163.203125 241.398438 L 163.226562 241.398438 L 163.546875 241.445312 L 163.570312 241.445312 L 163.886719 241.480469 L 163.910156 241.480469 L 164.226562 241.515625 L 164.25 241.515625 L 164.570312 241.550781 L 164.59375 241.550781 L 164.910156 241.585938 L 164.933594 241.585938 L 165.25 241.621094 L 165.285156 241.621094 L 165.601562 241.65625 L 165.636719 241.65625 L 165.96875 241.691406 L 166.003906 241.691406 L 166.332031 241.726562 L 166.367188 241.726562 L 166.695312 241.761719 L 166.730469 241.761719 L 167.0625 241.785156 L 167.097656 241.785156 L 167.4375 241.808594 L 167.472656 241.808594 L 168.191406 241.867188 L 168.226562 241.867188 L 168.566406 241.890625 L 168.601562 241.890625 L 168.953125 241.914062 L 169 241.914062 L 169.351562 241.9375 L 169.402344 241.9375 L 169.753906 241.960938 L 169.800781 241.960938 L 170.164062 241.984375 L 170.210938 241.984375 L 170.578125 241.996094 L 170.625 241.996094 L 170.988281 242.007812 L 171.035156 242.007812 L 171.410156 242.019531 L 171.457031 242.019531 L 171.835938 242.03125 L 171.894531 242.03125 L 172.269531 242.042969 L 172.328125 242.042969 L 172.714844 242.054688 L 172.773438 242.054688 L 173.164062 242.066406 L 173.222656 242.066406 L 173.621094 242.078125 L 173.679688 242.078125 L 174.078125 242.089844 L 176.726562 242.089844 C 186.976562 242.054688 192.042969 241.019531 199.589844 239.234375 L 199.589844 239.269531 L 199.730469 239.234375 C 201.648438 235.171875 203.316406 230.953125 204.730469 226.550781 C 196.558594 228.910156 186.53125 230.285156 176.160156 229.980469 L 176.019531 229.980469 C 165.722656 230.402344 155.75 229.027344 147.605469 226.703125 Z M 147.605469 226.703125 " fill-opacity="1" fill-rule="evenodd"/><path fill="#e6c6a6" d="M 106.269531 135.722656 C 102.402344 135.617188 98.542969 136.074219 94.734375 137.167969 C 94.242188 151.472656 97.792969 161.210938 105.84375 169.347656 C 115.261719 178.863281 130.722656 185.664062 151.472656 187.027344 C 162.207031 187.730469 160.03125 185.195312 151.367188 182.878906 C 123.996094 175.597656 109.914062 159 106.269531 135.722656 Z M 106.269531 135.722656 " fill-opacity="1" fill-rule="evenodd"/><path fill="#e3842b" d="M 108.347656 181.210938 C 106.246094 188.542969 103.589844 200.957031 105.058594 216.109375 C 106.46875 230.507812 108.667969 221.828125 111.945312 214.253906 C 117.941406 200.40625 128.839844 195.128906 139.902344 191.984375 C 128.828125 190.925781 118.589844 188.28125 108.347656 181.210938 Z M 108.347656 181.210938 " fill-opacity="1" fill-rule="evenodd"/><path fill="#fff3e3" d="M 236.695312 279.933594 C 235.601562 282.753906 234.460938 285.488281 233.285156 288.144531 C 224.984375 295.613281 200.777344 295.484375 193.878906 284.808594 C 194.628906 281.917969 195.289062 279.03125 195.851562 276.140625 C 200.929688 273.332031 207.007812 271.6875 213.546875 271.6875 C 222.632812 271.6875 230.828125 274.847656 236.695312 279.933594 Z M 236.695312 279.933594 " fill-opacity="1" fill-rule="evenodd"/><path fill="#e6c6a6" d="M 212.863281 293.265625 L 212.5 293.242188 L 212.476562 293.242188 L 212.136719 293.21875 L 211.769531 293.183594 L 211.746094 293.183594 L 211.453125 293.160156 L 211.40625 293.160156 L 211.042969 293.125 L 211.007812 293.125 L 210.761719 293.101562 L 210.242188 293.042969 L 209.9375 293.007812 L 209.574219 292.960938 L 209.527344 292.949219 L 209.253906 292.914062 L 208.75 292.832031 L 208.5625 292.796875 L 208.019531 292.703125 L 207.925781 292.691406 L 207.785156 292.667969 L 207.304688 292.574219 L 207.128906 292.539062 L 206.539062 292.40625 L 206.480469 292.394531 L 205.832031 292.242188 L 205.796875 292.230469 C 205.574219 292.171875 205.351562 292.113281 205.140625 292.054688 L 205.117188 292.042969 L 204.46875 291.855469 L 204.433594 291.84375 L 203.824219 291.65625 L 203.742188 291.632812 C 199.519531 290.246094 195.96875 288.003906 193.925781 284.84375 C 194.675781 281.953125 195.335938 279.066406 195.898438 276.175781 C 198.992188 274.460938 202.460938 273.179688 206.175781 272.441406 C 206.035156 281.707031 207.84375 289.648438 212.863281 293.265625 Z M 212.863281 293.265625 " fill-opacity="1" fill-rule="evenodd"/><path fill="#5e2719" d="M 141.101562 190.019531 C 127.769531 187.203125 113.371094 180.90625 105.140625 174.128906 C 104.738281 176.421875 103.765625 179.34375 103.363281 181.636719 C 112.945312 187.835938 127.242188 193.710938 140.65625 194.121094 C 148.109375 194.34375 147.675781 191.40625 141.101562 190.019531 Z M 141.101562 190.019531 " fill-opacity="1" fill-rule="evenodd"/><path fill="#5e2719" d="M 211.089844 190.019531 C 224.421875 187.203125 238.824219 180.90625 247.050781 174.128906 C 247.453125 176.421875 248.425781 179.34375 248.828125 181.636719 C 239.246094 187.835938 224.949219 193.710938 211.535156 194.121094 C 204.082031 194.34375 204.515625 191.40625 211.089844 190.019531 Z M 211.089844 190.019531 " fill-opacity="1" fill-rule="evenodd"/><path fill="#5e2719" d="M 134.144531 53.9375 C 129.074219 48.429688 123.210938 44.082031 120.304688 45.082031 C 117.039062 46.546875 114.78125 57.90625 114.238281 67.960938 C 113.839844 75.289062 114.261719 75.21875 117.367188 71.308594 C 121.703125 65.847656 127.078125 61.6875 133.625 58.246094 C 136.753906 56.601562 136.589844 56.601562 134.144531 53.9375 Z M 134.144531 53.9375 " fill-opacity="1" fill-rule="evenodd"/><path fill="#5e2719" d="M 218.050781 53.9375 C 223.117188 48.429688 228.984375 44.082031 231.886719 45.082031 C 235.15625 46.546875 237.410156 57.90625 237.953125 67.960938 C 238.351562 75.289062 237.929688 75.21875 234.824219 71.308594 C 230.488281 65.847656 225.113281 61.6875 218.566406 58.246094 C 215.4375 56.601562 215.605469 56.601562 218.050781 53.9375 Z M 218.050781 53.9375 " fill-opacity="1" fill-rule="evenodd"/><path fill="#ffeab2" d="M 176.089844 48.839844 C 164.710938 48.839844 154.480469 50.425781 145.371094 53.371094 C 166.460938 49.4375 187.117188 49.8125 207.292969 55.710938 C 222.246094 38.574219 231.722656 31.539062 235.414062 33.488281 C 240.855469 36.363281 244.816406 63.167969 244.289062 85.894531 C 253.519531 98.933594 259.019531 113.792969 262.40625 131.738281 C 260.914062 113.78125 255.894531 97.523438 247.300781 84.265625 C 247.96875 64.484375 243.453125 33.980469 236.117188 30.949219 C 230.179688 29.117188 216.402344 41.722656 206.820312 53.371094 L 206.84375 53.382812 C 197.722656 50.425781 187.46875 48.839844 176.089844 48.839844 Z M 176.089844 48.839844 " fill-opacity="1" fill-rule="evenodd"/><path fill="#5e2719" d="M 162.042969 133.289062 C 164.734375 137.964844 169.777344 140.277344 176.160156 142.382812 C 182.53125 140.277344 187.589844 137.964844 190.28125 133.289062 C 195.875 123.566406 156.457031 123.566406 162.042969 133.289062 Z M 162.042969 133.289062 " fill-opacity="1" fill-rule="evenodd"/><path fill="#5e2719" d="M 193.878906 157.53125 C 187.976562 154.890625 182.0625 152.246094 176.160156 149.617188 C 170.257812 152.257812 164.34375 154.902344 158.445312 157.53125 C 158.445312 165.027344 164.957031 171.132812 176.160156 171.132812 C 187.363281 171.144531 193.878906 165.039062 193.878906 157.53125 Z M 193.878906 157.53125 " fill-opacity="1" fill-rule="evenodd"/><path fill="#f26d81" d="M 164.402344 163.195312 C 167.050781 165.953125 171.046875 167.691406 176.160156 167.691406 C 181.273438 167.691406 185.273438 165.964844 187.917969 163.195312 C 185.273438 160.433594 181.273438 158.695312 176.160156 158.695312 C 171.046875 158.695312 167.0625 160.433594 164.402344 163.195312 Z M 164.402344 163.195312 " fill-opacity="1" fill-rule="evenodd"/><path fill="#5e2719" d="M 195.804688 144.941406 C 199.449219 151.273438 195.945312 155.488281 188.8125 154.234375 C 184.648438 153.503906 180.417969 151.0625 178.851562 147.785156 L 178.851562 137.4375 L 173.492188 137.4375 L 173.492188 148.734375 L 173.667969 149.171875 C 175.75 154.316406 181.898438 158.121094 187.859375 159.164062 C 198.898438 161.105469 206.28125 151.777344 200.402344 143.144531 C 199.214844 141.394531 197.511719 141.207031 196.523438 142.121094 C 196.074219 142.535156 195.347656 143.320312 195.804688 144.941406 Z M 195.804688 144.941406 " fill-opacity="1" fill-rule="nonzero"/><path fill="#5e2719" d="M 156.386719 144.941406 C 152.742188 151.273438 156.246094 155.488281 163.382812 154.234375 C 167.542969 153.503906 171.777344 151.0625 173.339844 147.785156 L 173.339844 137.4375 L 178.699219 137.4375 L 178.699219 148.734375 L 178.523438 149.171875 C 176.441406 154.316406 170.292969 158.121094 164.332031 159.164062 C 153.292969 161.105469 145.910156 151.777344 151.789062 143.144531 C 152.976562 141.394531 154.679688 141.207031 155.667969 142.121094 C 156.105469 142.535156 156.84375 143.320312 156.386719 144.941406 Z M 156.386719 144.941406 " fill-opacity="1" fill-rule="nonzero"/><g clip-path="url(#85e14d43dd)"><path fill="#5e2719" d="M 60.394531 224.332031 L 291.796875 224.332031 C 295.195312 224.332031 297.945312 227.078125 297.945312 230.472656 C 297.945312 231.027344 297.875 231.554688 297.734375 232.058594 L 273 346.484375 C 272.375 349.363281 269.824219 351.335938 266.992188 351.324219 L 85.175781 351.324219 C 82.132812 351.324219 79.59375 349.105469 79.109375 346.203125 L 54.375 231.765625 C 53.660156 228.453125 55.761719 225.1875 59.078125 224.472656 C 59.535156 224.378906 59.972656 224.332031 60.394531 224.332031 Z M 176.089844 236.617188 L 68 236.617188 L 90.136719 339.050781 L 262.042969 339.050781 L 284.179688 236.617188 Z M 176.089844 236.617188 " fill-opacity="1" fill-rule="nonzero"/></g><path fill="#de8b47" d="M 60.394531 230.472656 L 291.796875 230.472656 L 267.003906 345.179688 L 85.1875 345.179688 Z M 60.394531 230.472656 " fill-opacity="1" fill-rule="evenodd"/><path fill="#e6c6a6" d="M 176.089844 201.777344 C 166.472656 201.765625 155.773438 196.894531 154.621094 199.769531 C 153.648438 202.203125 162.582031 213.996094 176.089844 213.996094 C 190.480469 213.996094 198.53125 202.214844 197.558594 199.769531 C 196.40625 196.894531 185.707031 201.753906 176.089844 201.777344 Z M 176.089844 201.777344 " fill-opacity="1" fill-rule="evenodd"/><path fill="#b86f33" d="M 63.804688 232.363281 C 111.992188 288.015625 168.296875 317.777344 239.386719 335.292969 C 262.804688 341.058594 266.4375 343.289062 243.042969 343.289062 C 191.28125 343.289062 139.527344 343.289062 87.777344 343.289062 C 79.792969 306.316406 71.796875 269.339844 63.804688 232.363281 Z M 63.804688 232.363281 " fill-opacity="1" fill-rule="evenodd"/><path fill="#ffbf7f" d="M 88.808594 230.472656 L 286.117188 234.890625 L 267.003906 345.179688 L 291.796875 230.472656 Z M 88.808594 230.472656 " fill-opacity="1" fill-rule="evenodd"/><path fill="#5e2719" d="M 56.855469 273.519531 C 137.105469 272.699219 215.097656 272.699219 295.335938 273.519531 L 286.707031 236.605469 L 65.472656 236.605469 Z M 176.089844 284.527344 L 49.671875 285.832031 C 49.050781 285.890625 48.414062 285.84375 47.78125 285.691406 C 44.511719 284.925781 42.476562 281.625 43.242188 278.324219 L 54.679688 229.382812 C 55.1875 226.503906 57.679688 224.332031 60.664062 224.332031 L 291.515625 224.332031 C 294.277344 224.332031 296.78125 226.246094 297.429688 229.074219 L 308.9375 278.324219 L 308.925781 278.324219 C 309.03125 278.78125 309.089844 279.265625 309.078125 279.757812 C 309.054688 283.128906 306.316406 285.855469 302.976562 285.832031 Z M 176.089844 284.527344 " fill-opacity="1" fill-rule="nonzero"/><path fill="#de8b47" d="M 49.167969 279.710938 L 176.089844 278.40625 L 303.023438 279.710938 L 291.515625 230.472656 L 60.675781 230.472656 Z M 49.167969 279.710938 " fill-opacity="1" fill-rule="evenodd"/><path fill="#b86f33" d="M 155.011719 230.472656 L 84.144531 230.472656 C 83.683594 235.042969 84.320312 238.929688 85.671875 242.101562 C 87.246094 245.8125 89.796875 248.539062 92.855469 250.277344 C 97.6875 253.035156 105.328125 252.988281 110.429688 251.226562 C 112.015625 254.550781 126.488281 255.621094 130.429688 250.933594 C 135.25 253.070312 140.785156 253.082031 145.535156 250.6875 C 148.589844 249.136719 151.214844 246.648438 152.964844 243.183594 C 154.667969 239.835938 155.515625 235.570312 155.011719 230.472656 Z M 155.011719 230.472656 " fill-opacity="1" fill-rule="evenodd"/><path fill="#b86f33" d="M 62.546875 231.765625 C 77.710938 256.253906 99.003906 264.195312 145.96875 269.726562 C 178.851562 273.589844 196.097656 276.445312 161.347656 276.691406 C 124.855469 276.960938 88.351562 277.234375 51.859375 277.492188 C 55.421875 262.257812 58.984375 247.011719 62.546875 231.765625 Z M 62.546875 231.765625 " fill-opacity="1" fill-rule="evenodd"/><path fill="#b86f33" d="M 261.453125 230.472656 L 190.585938 230.472656 C 190.128906 235.042969 190.761719 238.929688 192.113281 242.101562 C 193.691406 245.8125 196.242188 248.539062 199.296875 250.277344 C 204.128906 253.035156 211.769531 252.988281 216.875 251.226562 C 218.460938 254.550781 232.933594 255.621094 236.871094 250.933594 C 241.691406 253.070312 247.226562 253.082031 251.976562 250.6875 C 255.035156 249.136719 257.65625 246.648438 259.40625 243.183594 C 261.125 239.835938 261.960938 235.570312 261.453125 230.472656 Z M 261.453125 230.472656 " fill-opacity="1" fill-rule="evenodd"/><path fill="#5e2719" d="M 121.917969 208.144531 C 114.570312 208.144531 109.21875 209.824219 105.539062 212.761719 C 101.554688 215.945312 99.273438 220.84375 98.320312 226.855469 C 97.804688 230.15625 98.132812 232.585938 98.992188 234.242188 C 99.507812 235.253906 100.238281 235.957031 101.035156 236.359375 C 101.847656 236.757812 102.800781 236.898438 103.777344 236.78125 C 105.140625 236.617188 106.527344 235.96875 107.644531 234.855469 C 109.488281 233.011719 112.476562 232.859375 114.507812 234.433594 C 116.039062 235.605469 118.894531 236.195312 121.90625 236.195312 C 124.914062 236.195312 127.769531 235.605469 129.300781 234.417969 C 131.390625 232.8125 134.414062 233.035156 136.222656 234.890625 C 137.339844 235.96875 138.691406 236.605469 140.042969 236.769531 C 141.019531 236.886719 141.972656 236.746094 142.785156 236.347656 C 143.59375 235.945312 144.3125 235.242188 144.828125 234.230469 C 145.6875 232.574219 146.015625 230.132812 145.5 226.84375 C 144.558594 220.832031 142.277344 215.945312 138.28125 212.75 C 134.613281 209.824219 129.265625 208.144531 121.917969 208.144531 Z M 99.027344 205.253906 C 104.539062 200.851562 112.039062 198.335938 121.917969 198.335938 C 131.78125 198.335938 139.292969 200.851562 144.804688 205.253906 C 150.90625 210.128906 154.316406 217.09375 155.609375 225.398438 C 156.457031 230.824219 155.703125 235.21875 153.976562 238.578125 C 152.4375 241.574219 150.132812 243.722656 147.453125 245.0625 C 144.769531 246.390625 141.761719 246.871094 138.796875 246.519531 C 136.460938 246.246094 134.121094 245.449219 132.003906 244.144531 C 128.992188 245.390625 125.40625 246.011719 121.90625 246.011719 C 118.390625 246.011719 114.816406 245.390625 111.804688 244.144531 C 109.691406 245.449219 107.351562 246.234375 105.011719 246.519531 C 102.046875 246.871094 99.039062 246.390625 96.359375 245.0625 C 93.675781 243.734375 91.371094 241.574219 89.832031 238.578125 C 88.105469 235.21875 87.351562 230.824219 88.199219 225.398438 C 89.515625 217.082031 92.925781 210.117188 99.027344 205.253906 Z M 99.027344 205.253906 " fill-opacity="1" fill-rule="nonzero"/><path fill="#fff3e3" d="M 121.917969 203.234375 C 103.871094 203.234375 95.417969 212.433594 93.265625 226.117188 C 90.808594 241.832031 104.246094 245.273438 111.324219 238.238281 C 116.285156 242.054688 127.546875 242.054688 132.507812 238.238281 C 139.585938 245.273438 153.023438 241.820312 150.566406 226.117188 C 148.414062 212.445312 139.960938 203.234375 121.917969 203.234375 Z M 121.917969 203.234375 " fill-opacity="1" fill-rule="evenodd"/><path fill="#e6c6a6" d="M 95.277344 226.210938 C 93.664062 239.941406 105.703125 242.851562 112.113281 236.5 C 116.695312 240.035156 127.125 240.035156 131.710938 236.5 C 138.257812 243.007812 150.683594 239.8125 148.414062 225.28125 C 148.039062 222.851562 147.535156 224.09375 146.289062 225.316406 C 142.773438 228.757812 134.894531 227.890625 131.863281 223.71875 C 130.191406 228.839844 113.886719 229.371094 111.699219 223.71875 C 109.136719 227.265625 101.261719 229.886719 97.449219 225.480469 C 96.039062 223.824219 95.617188 223.273438 95.277344 226.210938 Z M 95.277344 226.210938 " fill-opacity="1" fill-rule="evenodd"/><path fill="#5e2719" d="M 108.890625 221.042969 C 109.628906 219.84375 111.207031 219.480469 112.40625 220.21875 C 113.605469 220.960938 113.96875 222.535156 113.226562 223.730469 C 112.113281 225.527344 111.640625 227.914062 111.628906 230.449219 C 111.617188 233.609375 112.335938 236.992188 113.40625 239.90625 C 113.898438 241.230469 113.214844 242.699219 111.898438 243.183594 C 110.570312 243.675781 109.101562 242.996094 108.621094 241.679688 C 107.363281 238.273438 106.527344 234.265625 106.539062 230.449219 C 106.539062 227.007812 107.234375 223.695312 108.890625 221.042969 Z M 108.890625 221.042969 " fill-opacity="1" fill-rule="nonzero"/><path fill="#5e2719" d="M 127.664062 223.742188 C 126.925781 222.546875 127.289062 220.972656 128.488281 220.230469 C 129.6875 219.492188 131.261719 219.855469 132.003906 221.054688 C 133.660156 223.707031 134.355469 227.019531 134.367188 230.460938 C 134.378906 234.277344 133.542969 238.285156 132.285156 241.691406 C 131.792969 243.019531 130.320312 243.6875 129.003906 243.195312 C 127.675781 242.699219 127.007812 241.230469 127.5 239.917969 C 128.582031 237.003906 129.289062 233.621094 129.289062 230.460938 C 129.265625 227.914062 128.78125 225.539062 127.664062 223.742188 Z M 127.664062 223.742188 " fill-opacity="1" fill-rule="nonzero"/><path fill="#5e2719" d="M 230.277344 198.335938 C 240.140625 198.335938 247.652344 200.851562 253.164062 205.253906 C 259.265625 210.128906 262.675781 217.09375 263.980469 225.398438 C 264.828125 230.824219 264.074219 235.21875 262.347656 238.578125 C 260.808594 241.574219 258.503906 243.722656 255.824219 245.0625 C 253.140625 246.390625 250.132812 246.871094 247.167969 246.519531 C 244.832031 246.246094 242.492188 245.449219 240.375 244.144531 C 237.363281 245.390625 233.777344 246.011719 230.277344 246.011719 C 226.761719 246.011719 223.1875 245.390625 220.175781 244.144531 C 218.050781 245.449219 215.722656 246.234375 213.382812 246.519531 C 210.417969 246.871094 207.410156 246.386719 204.730469 245.0625 C 202.046875 243.734375 199.742188 241.574219 198.203125 238.578125 C 196.476562 235.21875 195.722656 230.824219 196.570312 225.398438 C 197.875 217.09375 201.285156 210.128906 207.375 205.253906 C 212.898438 200.851562 220.410156 198.335938 230.277344 198.335938 Z M 246.652344 212.761719 C 242.972656 209.824219 237.625 208.144531 230.277344 208.144531 C 222.929688 208.144531 217.578125 209.824219 213.898438 212.761719 C 209.914062 215.945312 207.632812 220.84375 206.679688 226.855469 C 206.164062 230.15625 206.492188 232.585938 207.351562 234.242188 C 207.867188 235.253906 208.597656 235.957031 209.394531 236.359375 C 210.207031 236.757812 211.160156 236.898438 212.136719 236.78125 C 213.488281 236.628906 214.839844 235.992188 215.957031 234.902344 C 217.765625 233.046875 220.789062 232.8125 222.878906 234.433594 C 224.410156 235.605469 227.265625 236.207031 230.277344 236.207031 C 233.285156 236.207031 236.140625 235.617188 237.671875 234.433594 C 239.703125 232.859375 242.691406 233.011719 244.535156 234.855469 C 245.652344 235.96875 247.039062 236.617188 248.402344 236.78125 C 249.378906 236.898438 250.332031 236.757812 251.144531 236.359375 C 251.953125 235.957031 252.671875 235.253906 253.1875 234.242188 C 254.046875 232.585938 254.375 230.144531 253.859375 226.855469 C 252.929688 220.84375 250.636719 215.945312 246.652344 212.761719 Z M 246.652344 212.761719 " fill-opacity="1" fill-rule="nonzero"/><path fill="#fff3e3" d="M 230.277344 203.234375 C 248.320312 203.234375 256.773438 212.433594 258.925781 226.117188 C 261.382812 241.832031 247.945312 245.273438 240.867188 238.238281 C 235.90625 242.054688 224.644531 242.054688 219.683594 238.238281 C 212.605469 245.273438 199.167969 241.820312 201.625 226.117188 C 203.777344 212.445312 212.230469 203.234375 230.277344 203.234375 Z M 230.277344 203.234375 " fill-opacity="1" fill-rule="evenodd"/><path fill="#e6c6a6" d="M 256.914062 226.210938 C 258.527344 239.941406 246.488281 242.851562 240.082031 236.5 C 235.496094 240.035156 225.066406 240.035156 220.484375 236.5 C 213.933594 243.007812 201.507812 239.8125 203.777344 225.28125 C 204.152344 222.851562 204.660156 224.09375 205.90625 225.316406 C 209.417969 228.757812 217.296875 227.890625 220.328125 223.71875 C 222 228.839844 238.304688 229.371094 240.492188 223.71875 C 243.054688 227.265625 250.933594 229.886719 254.742188 225.480469 C 256.152344 223.824219 256.5625 223.273438 256.914062 226.210938 Z M 256.914062 226.210938 " fill-opacity="1" fill-rule="evenodd"/><path fill="#5e2719" d="M 238.964844 223.742188 C 238.222656 222.546875 238.585938 220.972656 239.785156 220.230469 C 240.984375 219.492188 242.5625 219.855469 243.300781 221.054688 C 244.960938 223.707031 245.652344 227.019531 245.664062 230.460938 C 245.675781 234.277344 244.84375 238.285156 243.582031 241.691406 C 243.089844 243.019531 241.621094 243.6875 240.304688 243.195312 C 238.976562 242.699219 238.304688 241.230469 238.800781 239.917969 C 239.878906 237.003906 240.585938 233.621094 240.574219 230.460938 C 240.5625 227.914062 240.09375 225.539062 238.964844 223.742188 Z M 238.964844 223.742188 " fill-opacity="1" fill-rule="nonzero"/><path fill="#5e2719" d="M 220.1875 221.042969 C 220.929688 219.84375 222.503906 219.480469 223.703125 220.21875 C 224.902344 220.960938 225.265625 222.535156 224.527344 223.730469 C 223.410156 225.527344 222.929688 227.914062 222.929688 230.449219 C 222.917969 233.609375 223.632812 236.992188 224.714844 239.90625 C 225.207031 241.230469 224.527344 242.699219 223.210938 243.183594 C 221.882812 243.675781 220.410156 242.996094 219.929688 241.679688 C 218.671875 238.273438 217.835938 234.265625 217.847656 230.449219 C 217.835938 227.007812 218.53125 223.695312 220.1875 221.042969 Z M 220.1875 221.042969 " fill-opacity="1" fill-rule="nonzero"/><g clip-path="url(#ce316aedfc)"><path fill="#5e2719" d="M 324.84375 62.371094 C 336.847656 62.371094 347.816406 65.988281 355.835938 71.847656 C 364.417969 78.121094 369.730469 86.964844 369.730469 96.890625 C 369.730469 106.816406 364.417969 115.660156 355.835938 121.933594 C 347.816406 127.792969 336.847656 131.410156 324.84375 131.410156 C 321.90625 131.410156 319.53125 131.210938 317.132812 130.800781 C 315.511719 130.519531 313.945312 130.152344 312.207031 129.683594 L 284.917969 144.378906 C 282.074219 145.90625 278.570312 144.777344 277.089844 141.839844 C 276.125 139.925781 276.253906 137.730469 277.253906 136.003906 L 288.257812 116.964844 C 286.238281 114.777344 284.53125 112.394531 283.214844 109.859375 C 281.121094 105.828125 279.96875 101.460938 279.96875 96.878906 C 279.96875 86.953125 285.285156 78.109375 293.867188 71.835938 C 301.871094 65.988281 312.839844 62.371094 324.84375 62.371094 Z M 349.085938 81.597656 C 342.972656 77.132812 334.402344 74.375 324.84375 74.375 C 315.273438 74.375 306.714844 77.132812 300.601562 81.597656 C 295.054688 85.648438 291.621094 91.066406 291.621094 96.878906 C 291.621094 99.4375 292.265625 101.90625 293.453125 104.183594 C 294.785156 106.734375 296.769531 109.082031 299.296875 111.148438 C 301.542969 112.992188 302.179688 116.304688 300.660156 118.914062 L 297.722656 123.988281 L 308.632812 118.113281 C 309.9375 117.339844 311.523438 117.09375 313.078125 117.527344 C 315.390625 118.183594 317.214844 118.679688 318.988281 118.972656 C 320.648438 119.253906 322.433594 119.394531 324.84375 119.394531 C 334.414062 119.394531 342.972656 116.632812 349.085938 112.171875 C 354.636719 108.121094 358.070312 102.703125 358.070312 96.890625 C 358.070312 91.078125 354.636719 85.648438 349.085938 81.597656 Z M 349.085938 81.597656 " fill-opacity="1" fill-rule="nonzero"/></g><path fill="#fff3e3" d="M 324.878906 67.902344 C 346.933594 67.902344 364.816406 80.953125 364.816406 97.054688 C 364.816406 113.15625 346.933594 126.207031 324.878906 126.207031 C 319.414062 126.207031 316.390625 125.527344 311.265625 124.058594 L 281.308594 140.183594 L 295.054688 116.433594 C 288.765625 111.277344 284.953125 104.488281 284.953125 97.054688 C 284.953125 80.953125 302.824219 67.902344 324.878906 67.902344 Z M 324.878906 67.902344 " fill-opacity="1" fill-rule="evenodd"/><path fill="#5e2719" d="M 320.046875 90.710938 C 319.472656 88.585938 318.25 87.46875 316.945312 87.1875 C 316.378906 87.058594 315.769531 87.070312 315.167969 87.210938 C 314.570312 87.351562 313.992188 87.609375 313.511719 87.988281 C 312.347656 88.902344 311.628906 90.59375 312.066406 92.957031 C 312.523438 95.457031 313.945312 98.359375 316.519531 101.355469 C 318.507812 103.667969 321.152344 105.957031 324.503906 108.09375 C 327.855469 105.957031 330.5 103.667969 332.484375 101.355469 C 335.0625 98.371094 336.484375 95.46875 336.941406 92.957031 C 337.363281 90.59375 336.660156 88.890625 335.496094 87.988281 C 335.015625 87.609375 334.449219 87.351562 333.839844 87.210938 C 333.238281 87.070312 332.628906 87.058594 332.0625 87.1875 C 330.757812 87.480469 329.523438 88.609375 328.949219 90.746094 C 328.289062 93.203125 325.773438 94.660156 323.316406 94 C 321.660156 93.554688 320.449219 92.261719 320.046875 90.710938 Z M 318.929688 78.226562 C 320.941406 78.671875 322.859375 79.589844 324.503906 81 C 326.148438 79.589844 328.078125 78.671875 330.089844 78.226562 C 332.015625 77.792969 334.015625 77.816406 335.894531 78.25 C 337.777344 78.683594 339.574219 79.53125 341.152344 80.75 C 344.796875 83.59375 347.097656 88.386719 345.984375 94.578125 C 345.242188 98.640625 343.148438 103.09375 339.480469 107.355469 C 336.4375 110.890625 332.25 114.367188 326.820312 117.421875 C 325.457031 118.207031 323.738281 118.277344 322.269531 117.457031 C 316.804688 114.390625 312.605469 110.902344 309.550781 107.355469 C 305.882812 103.09375 303.777344 98.640625 303.046875 94.578125 C 301.929688 88.386719 304.234375 83.605469 307.878906 80.75 C 309.445312 79.53125 311.253906 78.683594 313.136719 78.25 C 315.003906 77.816406 316.992188 77.792969 318.929688 78.226562 Z M 318.929688 78.226562 " fill-opacity="1" fill-rule="nonzero"/><path fill="#f26d81" d="M 324.503906 89.550781 C 321.375 77.886719 305.363281 81.667969 307.550781 93.753906 C 308.667969 99.910156 313.898438 107.472656 324.503906 113.429688 C 335.109375 107.472656 340.339844 99.910156 341.457031 93.753906 C 343.644531 81.679688 327.632812 77.886719 324.503906 89.550781 Z M 324.503906 89.550781 " fill-opacity="1" fill-rule="evenodd"/></svg>