<svg xmlns="http://www.w3.org/2000/svg" xmlns:xlink="http://www.w3.org/1999/xlink" width="100" zoomAndPan="magnify" viewBox="0 0 75 74.999997" height="100" preserveAspectRatio="xMidYMid meet" version="1.0"><defs><clipPath id="71359f4253"><path d="M 53 1.3125 L 72 1.3125 L 72 17 L 53 17 Z M 53 1.3125 " clip-rule="nonzero"/></clipPath></defs><path fill="#38a1f4" d="M 16.378906 64.542969 C 10.484375 62.210938 6.417969 55.949219 3.964844 49.210938 C -2.265625 24.773438 17.933594 12.207031 29.796875 9.851562 C 41.660156 7.496094 62.339844 11.277344 67.511719 30.523438 C 72.6875 49.765625 61.75 57.3125 61.75 57.3125 C 42.925781 70.402344 22.277344 66.875 16.378906 64.542969 Z M 16.378906 64.542969 C 10.484375 62.210938 6.417969 55.949219 3.964844 49.210938 C -2.265625 24.773438 17.933594 12.207031 29.796875 9.851562 C 41.660156 7.496094 62.339844 11.277344 67.511719 30.523438 C 72.6875 49.765625 61.75 57.3125 61.75 57.3125 C 46.433594 70.511719 22.277344 66.875 16.378906 64.542969 Z M 16.378906 64.542969 " fill-opacity="0.2" fill-rule="nonzero"/><path fill="#f4f7f0" d="M 14.5625 48.996094 C 8.988281 39.152344 14.890625 23.886719 17.125 23.53125 C 19.1875 23.914062 25.292969 28.355469 28.988281 33.992188 C 32.792969 32.496094 37.867188 30.875 40.867188 32.101562 C 41.695312 28.21875 44.246094 21.699219 49.308594 18.398438 C 53.621094 21.707031 61.007812 30.398438 59.203125 41.882812 C 61.316406 43.582031 62.128906 47.90625 62.445312 47.804688 C 63.847656 51.273438 63.753906 55.367188 60.894531 58.253906 C 58.035156 61.140625 48.652344 64.421875 43.226562 65.722656 C 37.800781 67.023438 29.921875 67.71875 20.867188 65.914062 C 11.8125 64.109375 13.265625 55.410156 13.265625 55.410156 C 13.386719 54.285156 13.839844 49.902344 14.5625 48.996094 Z M 14.5625 48.996094 C 8.988281 39.152344 14.890625 23.886719 17.125 23.53125 C 19.1875 23.914062 25.292969 28.355469 28.988281 33.992188 C 32.792969 32.496094 37.867188 30.875 40.867188 32.101562 C 41.695312 28.21875 44.246094 21.699219 49.308594 18.398438 C 53.621094 21.707031 61.007812 30.398438 59.203125 41.882812 C 61.316406 43.582031 62.128906 47.90625 62.445312 47.804688 C 63.847656 51.273438 63.753906 55.367188 60.894531 58.253906 C 58.035156 61.140625 48.652344 64.421875 43.226562 65.722656 C 37.800781 67.023438 29.921875 67.71875 20.867188 65.914062 C 11.8125 64.109375 13.265625 55.410156 13.265625 55.410156 C 13.386719 54.285156 13.839844 49.902344 14.5625 48.996094 Z M 14.5625 48.996094 " fill-opacity="1" fill-rule="nonzero"/><path fill="#e49d5b" d="M 59.203125 41.882812 C 59.886719 28.664062 53.097656 21.101562 48.929688 18.460938 C 42.421875 24.777344 41.660156 28.714844 40.867188 32.101562 C 38.800781 31.664062 35.8125 32.203125 34.828125 32.40625 C 33.828125 32.519531 30.820312 32.9375 28.988281 33.992188 C 27.191406 31.019531 25.253906 27.511719 17.125 23.53125 C 13.972656 27.335938 9.84375 36.640625 14.5625 48.996094 C 13.480469 53.074219 13.230469 55.183594 13.265625 55.410156 C 13.300781 55.636719 13.300781 55.636719 13.300781 55.636719 C 13.300781 55.636719 16.957031 59.769531 24.296875 56.125 C 31.46875 52.566406 32.800781 49.917969 37.453125 49.0625 C 42.144531 48.429688 44.222656 50.53125 52.140625 51.6875 C 60.242188 52.871094 62.445312 47.804688 62.445312 47.804688 C 62.445312 47.804688 62.445312 47.804688 62.410156 47.578125 C 62.371094 47.351562 61.488281 45.421875 59.203125 41.882812 Z M 22.324219 37.335938 C 20.445312 38.566406 17.71875 42.789062 17.347656 44.460938 C 14.847656 42.832031 15.035156 38.828125 15.035156 38.828125 C 15.035156 38.828125 15.636719 38.953125 15.949219 39.359375 C 14.941406 32.480469 17.980469 27.859375 17.980469 27.859375 C 19.585938 29.363281 22.042969 34.597656 22.324219 37.335938 Z M 55.527344 38.378906 C 54.660156 36.902344 50.769531 33.730469 48.601562 33.148438 C 48.027344 30.457031 48.753906 24.714844 49.816406 22.785156 C 49.816406 22.785156 54.128906 26.234375 55.289062 33.089844 C 55.460938 32.609375 55.992188 32.300781 55.992188 32.300781 C 55.992188 32.300781 57.402344 36.050781 55.527344 38.378906 Z M 46.121094 38.648438 C 46.234375 39.566406 44.867188 40.421875 43.460938 40.601562 C 42.058594 40.785156 40.601562 40.199219 40.488281 39.28125 C 40.375 38.359375 41.648438 37.457031 43.054688 37.277344 C 44.460938 37.09375 46.011719 37.730469 46.121094 38.648438 Z M 28.503906 39.636719 C 29.894531 39.363281 31.386719 39.816406 31.566406 40.726562 C 31.746094 41.632812 30.546875 42.648438 29.15625 42.921875 C 27.765625 43.191406 26.199219 42.8125 26.019531 41.90625 C 25.839844 41 27.113281 39.90625 28.503906 39.636719 Z M 28.503906 39.636719 " fill-opacity="1" fill-rule="nonzero"/><path fill="#38a1f4" d="M 41.28125 69.96875 C 19.421875 74.074219 20.867188 65.914062 20.867188 65.914062 C 20.867188 65.914062 27.324219 68.558594 40.722656 66.441406 C 55.125 63.851562 58.527344 60.027344 58.527344 60.027344 C 58.527344 60.027344 63.140625 65.867188 41.28125 69.96875 Z M 41.28125 69.96875 C 19.421875 74.074219 20.867188 65.914062 20.867188 65.914062 C 20.867188 65.914062 27.324219 68.558594 40.722656 66.441406 C 55.125 63.851562 58.527344 60.027344 58.527344 60.027344 C 58.527344 60.027344 63.140625 65.867188 41.28125 69.96875 Z M 41.28125 69.96875 " fill-opacity="1" fill-rule="nonzero"/><path fill="#180447" d="M 58.527344 60.027344 C 59.152344 64.492188 53.488281 68.101562 39.03125 70.097656 C 24.574219 72.089844 21.636719 68.375 21.636719 68.375 C 21.636719 68.375 26.042969 69.773438 34.210938 69.296875 C 52.761719 68.222656 53.984375 62.453125 53.984375 62.453125 C 53.984375 62.453125 56.992188 61.046875 58.527344 60.027344 Z M 58.527344 60.027344 C 59.152344 64.492188 53.488281 68.101562 39.03125 70.097656 C 24.574219 72.089844 21.636719 68.375 21.636719 68.375 C 21.636719 68.375 26.042969 69.773438 34.210938 69.296875 C 52.761719 68.222656 53.984375 62.453125 53.984375 62.453125 C 53.984375 62.453125 56.992188 61.046875 58.527344 60.027344 Z M 58.527344 60.027344 " fill-opacity="0.4" fill-rule="nonzero"/><path fill="#180447" d="M 59.203125 41.882812 C 65.824219 48.722656 62.425781 56.128906 62.425781 56.128906 C 62.425781 56.128906 60.605469 60.277344 47.953125 64.507812 C 35.304688 68.738281 26.574219 66.976562 20.867188 65.914062 C 15.160156 64.851562 13.71875 60.09375 14.074219 58.472656 C 17.359375 63.695312 27.707031 65.617188 42.191406 63.308594 C 58.628906 60.6875 59 47.191406 56.777344 43.136719 C 60.113281 37.734375 57.195312 29.148438 57.195312 29.148438 C 59.820312 31.167969 60.105469 38.359375 59.203125 41.882812 Z M 59.203125 41.882812 C 65.824219 48.722656 62.425781 56.128906 62.425781 56.128906 C 62.425781 56.128906 60.605469 60.277344 47.953125 64.507812 C 35.304688 68.738281 26.574219 66.976562 20.867188 65.914062 C 15.160156 64.851562 13.71875 60.09375 14.074219 58.472656 C 17.359375 63.695312 27.707031 65.617188 42.191406 63.308594 C 58.628906 60.6875 59 47.191406 56.777344 43.136719 C 60.113281 37.734375 57.195312 29.148438 57.195312 29.148438 C 59.820312 31.167969 60.105469 38.359375 59.203125 41.882812 Z M 59.203125 41.882812 " fill-opacity="0.298" fill-rule="nonzero"/><path fill="#f4f7f0" d="M 29.503906 15.273438 C 29.960938 16.242188 29.015625 17.652344 27.394531 18.421875 C 25.773438 19.191406 24.089844 19.03125 23.632812 18.0625 C 23.179688 17.09375 24.125 15.683594 25.746094 14.914062 C 27.367188 14.144531 29.050781 14.304688 29.503906 15.273438 Z M 53.164062 13.519531 C 46.949219 10.164062 39.335938 8.847656 31.222656 10.140625 C 13.367188 12.988281 1.703125 27.101562 3.484375 43.703125 C 3.90625 47.644531 5.0625 51.320312 6.769531 54.5 C 6.636719 54.105469 2.421875 41.472656 6.792969 29.910156 C 6.871094 30.476562 7.085938 30.941406 7.453125 31.265625 C 9.128906 32.757812 13.332031 30.742188 16.835938 26.765625 C 20.34375 22.785156 21.824219 18.347656 20.144531 16.851562 C 19.761719 16.511719 19.242188 16.355469 18.632812 16.363281 C 36.542969 5.65625 52.675781 13.285156 53.164062 13.519531 Z M 42.496094 33.640625 C 43.253906 25.832031 46.511719 21.699219 46.519531 21.6875 C 43.554688 25.214844 41.671875 29.445312 41.496094 32.117188 C 41.484375 32.253906 41.421875 32.382812 41.316406 32.472656 C 41.210938 32.5625 41.070312 32.605469 40.933594 32.589844 C 37.65625 32.261719 36.457031 32.453125 34.933594 32.695312 C 33.679688 32.894531 32.640625 33.0625 30.625 33.859375 C 37.722656 31.933594 42.46875 34.441406 42.496094 33.640625 Z M 42.496094 33.640625 " fill-opacity="0.698" fill-rule="nonzero"/><path fill="#180447" d="M 69.144531 33.171875 C 67.433594 24.988281 62.644531 18.035156 55.660156 13.589844 C 48.6875 9.152344 39.941406 7.492188 31.03125 8.914062 C 30.9375 8.929688 30.839844 8.945312 30.746094 8.960938 C 21.957031 10.425781 14.25 14.707031 9.046875 21.019531 C 3.773438 27.417969 1.359375 35.519531 2.25 43.835938 C 3.496094 55.429688 10.84375 64.835938 20.125 66.71875 C 20.195312 67.296875 20.433594 68.089844 21.140625 68.863281 C 22.90625 70.796875 27.769531 72.664062 40.90625 70.570312 C 41.144531 70.535156 41.378906 70.496094 41.613281 70.457031 C 54.214844 68.355469 58.121094 65.132812 59.179688 62.800781 C 59.636719 61.789062 59.597656 60.925781 59.460938 60.332031 C 61.414062 59.179688 63.152344 57.640625 64.636719 55.753906 C 66.121094 53.875 67.3125 51.691406 68.1875 49.269531 C 69.058594 46.847656 69.589844 44.25 69.757812 41.546875 C 69.933594 38.777344 69.726562 35.960938 69.144531 33.171875 Z M 57.839844 62.226562 C 57.078125 63.863281 53.921875 66.921875 41.375 69.011719 C 41.144531 69.050781 40.914062 69.085938 40.679688 69.125 C 34.898438 70.046875 30.285156 70.269531 26.960938 69.789062 C 24.128906 69.378906 22.832031 68.535156 22.238281 67.898438 C 21.921875 67.558594 21.75 67.222656 21.65625 66.941406 C 24.003906 67.589844 29.917969 68.640625 40.339844 66.980469 C 40.550781 66.949219 40.761719 66.914062 40.96875 66.878906 C 51.234375 65.167969 56.203125 62.460938 58.097656 61.167969 C 58.09375 61.457031 58.03125 61.816406 57.839844 62.226562 Z M 62.382812 53.972656 C 61.910156 56.335938 60.503906 58.113281 58.210938 59.257812 C 58.195312 59.261719 58.1875 59.269531 58.175781 59.277344 C 58.164062 59.285156 58.152344 59.289062 58.140625 59.296875 C 58.109375 59.320312 58.082031 59.335938 58.0625 59.355469 C 58.054688 59.363281 58.042969 59.371094 58.035156 59.378906 C 57.992188 59.417969 53.707031 63.269531 40.71875 65.4375 C 40.515625 65.46875 40.316406 65.503906 40.113281 65.535156 C 27.101562 67.609375 21.207031 65.261719 21.148438 65.238281 L 21.132812 65.234375 L 21.121094 65.230469 C 21.09375 65.21875 21.066406 65.214844 21.046875 65.207031 L 21.039062 65.207031 C 21.023438 65.203125 21.011719 65.199219 21 65.195312 C 20.992188 65.195312 20.980469 65.191406 20.972656 65.191406 C 18.4375 64.816406 16.554688 63.5625 15.378906 61.464844 C 13.40625 57.949219 13.8125 52.675781 15.234375 49.28125 C 15.320312 49.078125 15.308594 48.851562 15.207031 48.65625 C 12.199219 42.890625 12.761719 36.714844 13.761719 32.550781 C 14.792969 28.257812 16.546875 25.148438 17.234375 24.363281 C 22.523438 26.574219 27.09375 31.203125 28.3125 34.265625 C 28.386719 34.449219 28.53125 34.597656 28.714844 34.671875 C 28.839844 34.722656 28.976562 34.738281 29.109375 34.714844 C 29.167969 34.707031 29.226562 34.6875 29.28125 34.664062 C 31.988281 33.464844 33.230469 33.199219 34.464844 32.992188 C 34.628906 32.964844 34.796875 32.9375 34.964844 32.910156 C 36.472656 32.671875 37.664062 32.480469 40.914062 32.808594 C 40.976562 32.816406 41.042969 32.8125 41.105469 32.804688 C 41.234375 32.78125 41.355469 32.726562 41.457031 32.640625 C 41.605469 32.511719 41.699219 32.328125 41.710938 32.128906 C 41.929688 28.839844 44.847656 23.015625 49.199219 19.269531 C 50.09375 19.800781 52.71875 22.210938 55.023438 25.972656 C 57.257812 29.621094 59.691406 35.320312 58.601562 41.738281 C 58.566406 41.957031 58.628906 42.175781 58.769531 42.339844 C 61.167969 45.128906 63.175781 50.019531 62.382812 53.972656 Z M 63.757812 54.515625 C 63.777344 54.429688 63.792969 54.347656 63.8125 54.261719 C 64.230469 52.179688 64.015625 49.785156 63.191406 47.332031 C 62.492188 45.25 61.394531 43.238281 60.09375 41.648438 C 61.617188 31.628906 55.222656 23.34375 53.21875 21.035156 C 52.53125 20.246094 50.203125 17.671875 49.023438 17.710938 C 48.992188 17.710938 48.960938 17.714844 48.929688 17.71875 C 48.804688 17.738281 48.683594 17.792969 48.585938 17.875 C 44.46875 21.273438 40.960938 26.996094 40.339844 31.285156 C 37.425781 31.039062 36.179688 31.238281 34.738281 31.464844 C 34.566406 31.492188 34.398438 31.519531 34.230469 31.546875 C 33.046875 31.746094 31.78125 32.007812 29.359375 33.035156 C 27.449219 29.148438 22.351562 24.796875 17.390625 22.847656 C 17.265625 22.800781 17.132812 22.785156 17.003906 22.808594 C 16.976562 22.8125 16.949219 22.816406 16.921875 22.824219 C 15.789062 23.15625 14.367188 26.328125 13.957031 27.292969 C 12.761719 30.109375 9.230469 39.980469 13.761719 49.03125 C 13.015625 50.949219 12.589844 53.207031 12.566406 55.402344 C 12.539062 57.988281 13.070312 60.335938 14.109375 62.183594 C 14.234375 62.40625 14.367188 62.625 14.507812 62.835938 C 8.679688 59.058594 4.574219 51.835938 3.699219 43.679688 C 1.945312 27.328125 13.417969 13.332031 30.976562 10.40625 C 31.074219 10.386719 31.164062 10.375 31.257812 10.359375 C 48.996094 7.53125 64.328125 17.253906 67.71875 33.472656 C 69.355469 41.300781 67.875 49.070312 63.757812 54.515625 Z M 23.039062 37.195312 C 22.886719 36.40625 22.691406 35.488281 22.394531 34.597656 C 22.15625 33.820312 21.835938 33.007812 21.425781 32.117188 C 21.074219 31.355469 20.644531 30.570312 20.148438 29.785156 C 19.601562 28.929688 19.09375 28.246094 18.546875 27.636719 C 18.421875 27.496094 18.234375 27.429688 18.046875 27.460938 C 17.949219 27.476562 17.859375 27.519531 17.78125 27.582031 C 17.550781 27.78125 17.523438 28.128906 17.71875 28.363281 L 17.730469 28.375 C 18.011719 28.710938 18.285156 29.09375 18.46875 29.355469 C 18.730469 29.75 18.945312 30.085938 19.132812 30.410156 C 19.574219 31.167969 19.953125 31.917969 20.257812 32.644531 C 20.617188 33.496094 20.886719 34.265625 21.085938 34.996094 C 21.300781 35.730469 21.441406 36.464844 21.546875 37.09375 C 21.402344 37.257812 21.257812 37.421875 21.113281 37.582031 C 20.855469 37.871094 20.589844 38.171875 20.328125 38.472656 C 19.792969 39.097656 19.335938 39.675781 18.9375 40.246094 C 18.496094 40.875 18.101562 41.527344 17.757812 42.1875 C 17.425781 42.828125 17.117188 43.523438 16.839844 44.253906 C 16.730469 44.539062 16.867188 44.859375 17.144531 44.976562 C 17.242188 45.019531 17.351562 45.03125 17.457031 45.015625 C 17.648438 44.984375 17.808594 44.855469 17.882812 44.679688 C 18.171875 43.996094 18.484375 43.355469 18.820312 42.773438 C 19.160156 42.171875 19.550781 41.582031 19.980469 41.015625 C 20.375 40.496094 20.824219 39.964844 21.351562 39.394531 C 21.609375 39.121094 21.878906 38.839844 22.140625 38.570312 C 22.375 38.324219 22.621094 38.070312 22.859375 37.8125 L 22.871094 37.800781 C 23.019531 37.636719 23.082031 37.410156 23.039062 37.195312 Z M 26.589844 44.636719 C 24.460938 45.226562 23.140625 47.316406 23.640625 49.296875 C 24.140625 51.28125 26.273438 52.410156 28.402344 51.820312 C 30.53125 51.226562 31.851562 49.140625 31.351562 47.15625 C 30.851562 45.171875 28.71875 44.042969 26.589844 44.636719 Z M 46.464844 41.367188 C 44.257812 41.488281 42.59375 43.238281 42.75 45.28125 C 42.90625 47.320312 44.820312 48.875 47.027344 48.753906 C 49.230469 48.632812 50.894531 46.878906 50.738281 44.839844 C 50.585938 42.800781 48.667969 41.242188 46.464844 41.367188 Z M 54.425781 36.34375 C 53.898438 35.820312 53.320312 35.324219 52.707031 34.863281 C 52.152344 34.445312 51.542969 34.035156 50.839844 33.609375 C 50.5 33.40625 50.152344 33.203125 49.820312 33.007812 C 49.628906 32.898438 49.441406 32.789062 49.257812 32.679688 C 49.164062 32.046875 49.070312 31.308594 49.050781 30.542969 C 49.011719 29.78125 49.035156 28.964844 49.113281 28.042969 C 49.179688 27.257812 49.308594 26.425781 49.496094 25.570312 C 49.574219 25.203125 49.675781 24.820312 49.804688 24.359375 C 49.898438 24.058594 50.039062 23.605469 50.203125 23.199219 L 50.210938 23.183594 C 50.324219 22.90625 50.199219 22.589844 49.921875 22.46875 C 49.824219 22.425781 49.71875 22.410156 49.609375 22.429688 C 49.425781 22.460938 49.273438 22.578125 49.199219 22.75 C 48.867188 23.5 48.59375 24.308594 48.339844 25.292969 C 48.109375 26.191406 47.941406 27.074219 47.84375 27.910156 C 47.722656 28.882812 47.671875 29.753906 47.683594 30.574219 C 47.675781 31.507812 47.773438 32.445312 47.867188 33.238281 C 47.894531 33.460938 48.027344 33.65625 48.21875 33.761719 L 48.230469 33.769531 C 48.539062 33.9375 48.847656 34.105469 49.148438 34.265625 C 49.480469 34.441406 49.820312 34.621094 50.148438 34.804688 C 50.828125 35.183594 51.417969 35.546875 51.953125 35.917969 C 52.539062 36.324219 53.089844 36.765625 53.597656 37.226562 C 54.09375 37.679688 54.589844 38.191406 55.070312 38.746094 C 55.203125 38.898438 55.398438 38.96875 55.59375 38.9375 C 55.6875 38.921875 55.777344 38.878906 55.851562 38.820312 C 56.09375 38.625 56.132812 38.265625 55.9375 38.023438 C 55.449219 37.414062 54.941406 36.847656 54.425781 36.34375 Z M 44.222656 51.835938 C 43.984375 51.683594 43.671875 51.753906 43.519531 51.992188 C 43.507812 52.007812 42.601562 53.398438 41.195312 53.484375 C 39.976562 53.558594 39.261719 53.074219 38.851562 52.605469 C 39.820312 51.578125 40.949219 49.472656 40.683594 49.140625 C 40.339844 48.710938 38.1875 48.742188 37.371094 48.875 C 36.550781 49.011719 34.5 49.664062 34.308594 50.179688 C 34.160156 50.582031 35.910156 52.234375 37.15625 52.894531 C 36.898438 53.472656 36.355469 54.152344 35.191406 54.464844 C 33.832031 54.832031 32.53125 53.800781 32.519531 53.789062 C 32.300781 53.613281 31.980469 53.644531 31.800781 53.863281 C 31.625 54.085938 31.65625 54.40625 31.875 54.585938 C 31.929688 54.628906 32.941406 55.4375 34.269531 55.554688 C 34.414062 56.507812 35.144531 58.859375 38.832031 58.261719 C 42.480469 57.664062 42.332031 55.382812 42.070312 54.355469 C 43.507812 53.898438 44.335938 52.609375 44.378906 52.542969 C 44.527344 52.304688 44.457031 51.988281 44.222656 51.835938 Z M 44.222656 51.835938 " fill-opacity="1" fill-rule="nonzero"/><path fill="#fc615f" d="M 57.089844 47.894531 C 57.316406 48.769531 56.316406 49.792969 54.855469 50.175781 C 53.394531 50.558594 52.023438 50.15625 51.796875 49.277344 C 51.570312 48.398438 52.570312 47.378906 54.03125 46.996094 C 55.492188 46.613281 56.863281 47.015625 57.089844 47.894531 Z M 18.089844 54.261719 C 18.148438 55.167969 19.417969 55.820312 20.925781 55.714844 C 22.433594 55.613281 23.605469 54.796875 23.542969 53.890625 C 23.484375 52.988281 22.210938 52.335938 20.707031 52.441406 C 19.199219 52.542969 18.027344 53.359375 18.089844 54.261719 Z M 39.261719 57.300781 C 41.246094 56.769531 41.628906 55.664062 41.402344 54.496094 C 41.355469 54.5 41.304688 54.503906 41.253906 54.507812 C 40.679688 54.542969 40.175781 54.476562 39.738281 54.34375 C 38.464844 54.898438 37.152344 55.625 36.09375 57.078125 C 36.53125 57.628906 37.761719 57.703125 39.261719 57.300781 Z M 39.261719 57.300781 " fill-opacity="1" fill-rule="nonzero"/><path fill="#f4f7f0" d="M 60.941406 65.601562 C 63.046875 66.382812 66.613281 62.308594 68.617188 57.445312 C 70.621094 52.585938 72.085938 45.746094 68.707031 44.863281 C 64.765625 43.832031 61.085938 54.078125 60.753906 55.109375 C 58.828125 61.113281 58.839844 64.824219 60.941406 65.601562 Z M 60.941406 65.601562 C 63.046875 66.382812 66.613281 62.308594 68.617188 57.445312 C 70.621094 52.585938 72.085938 45.746094 68.707031 44.863281 C 64.765625 43.832031 61.085938 54.078125 60.753906 55.109375 C 58.828125 61.113281 58.839844 64.824219 60.941406 65.601562 Z M 60.941406 65.601562 " fill-opacity="1" fill-rule="nonzero"/><path fill="#180447" d="M 61.722656 65.351562 C 65.867188 65.652344 69.777344 54.363281 69.386719 53.171875 C 63.984375 61.183594 60.394531 57.964844 60.394531 57.964844 C 60.394531 57.964844 57.578125 65.050781 61.722656 65.351562 Z M 61.722656 65.351562 C 65.867188 65.652344 69.777344 54.363281 69.386719 53.171875 C 63.984375 61.183594 60.394531 57.964844 60.394531 57.964844 C 60.394531 57.964844 57.578125 65.050781 61.722656 65.351562 Z M 61.722656 65.351562 " fill-opacity="0.298" fill-rule="nonzero"/><path fill="#180447" d="M 69.011719 44.597656 C 64.152344 43.207031 60.652344 53.242188 59.429688 57.378906 C 59.253906 57.9375 59.097656 58.507812 58.964844 59.070312 C 58.960938 59.089844 58.957031 59.105469 58.957031 59.105469 C 58.949219 59.132812 58.941406 59.160156 58.9375 59.191406 C 58.230469 62.300781 58.363281 65.269531 61.046875 66.035156 C 64.804688 67.113281 68.039062 60.609375 69.84375 55.464844 C 69.84375 55.464844 69.84375 55.460938 69.84375 55.460938 C 70.5625 53.636719 71.242188 51.5 71.433594 49.589844 C 71.433594 49.589844 71.433594 49.585938 71.433594 49.585938 C 71.433594 49.585938 71.433594 49.582031 71.433594 49.582031 C 71.667969 47.21875 71.148438 45.210938 69.011719 44.597656 Z M 68.1875 56.808594 C 66.46875 60.753906 63.921875 65.257812 61.476562 64.796875 C 58.625 64.257812 60.316406 58.082031 61.871094 53.824219 C 63.589844 49.878906 66.136719 45.230469 68.582031 45.691406 C 71.433594 46.230469 69.742188 52.546875 68.1875 56.808594 Z M 68.1875 56.808594 " fill-opacity="1" fill-rule="nonzero"/><path fill="#f4f7f0" d="M 25.164062 47.199219 C 24.960938 46.90625 25.167969 46.40625 25.632812 46.078125 C 26.09375 45.75 26.632812 45.722656 26.839844 46.015625 C 27.042969 46.308594 26.835938 46.808594 26.375 47.136719 C 25.910156 47.464844 25.371094 47.492188 25.164062 47.199219 Z M 45.683594 43.707031 C 46.144531 43.382812 46.351562 42.878906 46.148438 42.585938 C 45.941406 42.292969 45.402344 42.320312 44.941406 42.648438 C 44.476562 42.976562 44.269531 43.476562 44.476562 43.769531 C 44.679688 44.0625 45.21875 44.035156 45.683594 43.707031 Z M 45.683594 43.707031 " fill-opacity="1" fill-rule="nonzero"/><g clip-path="url(#71359f4253)"><path fill="#180447" d="M 62.097656 5.347656 C 61.210938 7.101562 60.324219 8.851562 59.433594 10.605469 C 58.976562 11.511719 57.46875 10.988281 57.933594 10.070312 C 58.183594 9.570312 58.4375 9.074219 58.6875 8.574219 C 57.753906 8.078125 56.820312 7.582031 55.882812 7.085938 C 55.59375 7.753906 55.296875 8.414062 54.988281 9.074219 C 54.554688 10 53.050781 9.472656 53.488281 8.539062 C 53.898438 7.660156 54.285156 6.777344 54.667969 5.890625 C 54.6875 5.804688 54.726562 5.722656 54.773438 5.644531 C 55.253906 4.519531 55.726562 3.390625 56.203125 2.261719 C 56.601562 1.316406 58.105469 1.847656 57.703125 2.800781 C 57.304688 3.738281 56.914062 4.683594 56.515625 5.621094 C 57.480469 6.132812 58.445312 6.644531 59.40625 7.15625 C 59.804688 6.375 60.199219 5.59375 60.597656 4.808594 C 61.054688 3.902344 62.5625 4.429688 62.097656 5.347656 Z M 63.550781 8.976562 C 62.789062 10.183594 62.027344 11.390625 61.265625 12.601562 C 60.714844 13.472656 62.027344 14.378906 62.578125 13.507812 C 63.339844 12.300781 64.101562 11.089844 64.863281 9.882812 C 65.414062 9.011719 64.101562 8.101562 63.550781 8.976562 Z M 66.3125 6.574219 C 66.253906 6.507812 66.195312 6.4375 66.140625 6.371094 C 66.074219 6.289062 65.992188 6.226562 65.894531 6.1875 C 65.804688 6.132812 65.703125 6.101562 65.59375 6.097656 C 65.484375 6.085938 65.382812 6.101562 65.28125 6.144531 C 65.183594 6.167969 65.09375 6.21875 65.015625 6.289062 C 64.96875 6.339844 64.925781 6.390625 64.878906 6.441406 C 64.796875 6.5625 64.75 6.691406 64.742188 6.835938 C 64.746094 6.910156 64.75 6.980469 64.753906 7.050781 C 64.78125 7.191406 64.839844 7.3125 64.933594 7.417969 C 64.992188 7.488281 65.046875 7.554688 65.105469 7.621094 C 65.171875 7.703125 65.253906 7.765625 65.351562 7.804688 C 65.441406 7.863281 65.542969 7.890625 65.652344 7.894531 C 65.761719 7.90625 65.863281 7.894531 65.960938 7.847656 C 66.0625 7.824219 66.152344 7.777344 66.230469 7.703125 C 66.273438 7.652344 66.320312 7.601562 66.367188 7.550781 C 66.445312 7.429688 66.492188 7.300781 66.503906 7.15625 C 66.5 7.082031 66.496094 7.011719 66.492188 6.941406 C 66.460938 6.800781 66.402344 6.679688 66.3125 6.574219 Z M 70.515625 9.1875 C 69.089844 10.394531 67.734375 11.675781 66.378906 12.964844 C 65.632812 13.671875 66.671875 14.886719 67.421875 14.175781 C 68.777344 12.886719 70.132812 11.609375 71.554688 10.398438 C 72.339844 9.730469 71.296875 8.519531 70.515625 9.1875 Z M 64.433594 14.917969 C 63.410156 14.84375 63.292969 16.441406 64.316406 16.515625 C 65.339844 16.589844 65.457031 14.992188 64.433594 14.917969 Z M 64.433594 14.917969 " fill-opacity="1" fill-rule="nonzero"/></g></svg>