<svg xmlns="http://www.w3.org/2000/svg" xmlns:xlink="http://www.w3.org/1999/xlink" width="500" zoomAndPan="magnify" viewBox="0 0 375 374.999991" height="500" preserveAspectRatio="xMidYMid meet" version="1.0"><defs><clipPath id="2fa412d660"><path d="M 27.792969 27.792969 L 347.292969 27.792969 L 347.292969 347.292969 L 27.792969 347.292969 Z M 27.792969 27.792969 " clip-rule="nonzero"/></clipPath></defs><g clip-path="url(#2fa412d660)"><path fill="#49494a" d="M 187.542969 335.746094 C 105.824219 335.746094 39.34375 269.261719 39.34375 187.542969 C 39.34375 105.824219 105.824219 39.34375 187.542969 39.34375 C 269.261719 39.34375 335.746094 105.824219 335.746094 187.542969 C 335.746094 269.261719 269.261719 335.746094 187.542969 335.746094 Z M 187.542969 27.792969 C 99.460938 27.792969 27.792969 99.460938 27.792969 187.542969 C 27.792969 275.628906 99.460938 347.292969 187.542969 347.292969 C 275.628906 347.292969 347.292969 275.628906 347.292969 187.542969 C 347.292969 99.460938 275.628906 27.792969 187.542969 27.792969 " fill-opacity="1" fill-rule="nonzero"/></g><path fill="#49494a" d="M 251.824219 185.566406 L 187.542969 239.609375 L 123.265625 185.566406 C 120.824219 183.515625 117.179688 183.828125 115.128906 186.273438 C 113.078125 188.714844 113.390625 192.355469 115.835938 194.40625 L 183.828125 251.574219 C 184.902344 252.480469 186.222656 252.929688 187.542969 252.929688 C 188.863281 252.929688 190.1875 252.476562 191.257812 251.574219 L 259.253906 194.40625 C 261.695312 192.355469 262.011719 188.714844 259.957031 186.273438 C 257.90625 183.828125 254.261719 183.515625 251.824219 185.566406 " fill-opacity="1" fill-rule="nonzero"/><path fill="#49494a" d="M 251.824219 137.128906 L 187.542969 191.171875 L 123.265625 137.128906 C 120.824219 135.078125 117.179688 135.390625 115.128906 137.832031 C 113.078125 140.273438 113.390625 143.917969 115.835938 145.96875 L 183.828125 203.132812 C 184.902344 204.039062 186.222656 204.492188 187.542969 204.492188 C 188.863281 204.492188 190.1875 204.035156 191.257812 203.132812 L 259.253906 145.96875 C 261.695312 143.917969 262.011719 140.273438 259.957031 137.832031 C 257.90625 135.390625 254.261719 135.074219 251.824219 137.128906 " fill-opacity="1" fill-rule="nonzero"/></svg>