<svg xmlns="http://www.w3.org/2000/svg" xmlns:xlink="http://www.w3.org/1999/xlink" width="50" zoomAndPan="magnify" viewBox="0 0 37.5 37.499999" height="50" preserveAspectRatio="xMidYMid meet" version="1.0"><defs><clipPath id="2e8c71657a"><path d="M 1.3125 4.710938 L 36.5625 4.710938 L 36.5625 32.460938 L 1.3125 32.460938 Z M 1.3125 4.710938 " clip-rule="nonzero"/></clipPath></defs><g clip-path="url(#2e8c71657a)"><path fill="#f2f2f2" d="M 36.472656 25.394531 C 36.34375 24.652344 35.84375 24.027344 35.167969 23.757812 C 35.058594 23.714844 34.941406 23.683594 34.824219 23.65625 C 35.28125 22.886719 35.503906 21.984375 35.421875 21.167969 C 35.285156 19.84375 34.46875 18.910156 33.339844 18.789062 C 33.277344 18.785156 33.210938 18.78125 33.148438 18.777344 C 33.417969 17.996094 33.625 17.203125 33.765625 16.40625 C 34.28125 13.4375 33.773438 10.726562 32.339844 8.765625 C 31.636719 7.8125 30.65625 7.089844 29.515625 6.675781 C 28.304688 5.375 26.609375 4.710938 24.855469 4.859375 C 24.59375 4.882812 24.332031 4.921875 24.074219 4.980469 C 22.695312 5.292969 20.707031 6.273438 19.042969 9.191406 C 18.4375 10.320312 17.933594 11.496094 17.539062 12.691406 C 17.234375 11.917969 16.875 11.121094 16.464844 10.3125 C 15.375 8.210938 13.980469 6.710938 12.324219 5.855469 C 11.355469 5.347656 10.246094 5.128906 9.121094 5.222656 C 7.800781 5.335938 6.582031 5.875 5.691406 6.742188 C 5.390625 7.035156 5.117188 7.359375 4.871094 7.707031 C 4.539062 7.886719 4.226562 8.09375 3.945312 8.328125 C 2.769531 9.308594 2.007812 10.683594 1.671875 12.40625 C 1.316406 14.238281 1.542969 15.972656 1.792969 17.109375 C 2.566406 20.554688 4.578125 23.84375 7.609375 26.613281 C 8.117188 27.082031 8.660156 27.554688 9.132812 27.941406 C 11.242188 29.660156 13.609375 31.171875 16.265625 31.972656 C 17.097656 32.226562 17.902344 32.449219 18.765625 32.226562 C 19.660156 31.992188 20.53125 31.667969 21.363281 31.28125 C 22.0625 30.953125 22.753906 30.574219 23.445312 30.140625 C 23.90625 30.339844 24.351562 30.425781 24.675781 30.476562 C 25.097656 30.539062 25.507812 30.660156 25.898438 30.828125 C 26.289062 30.996094 26.652344 31.210938 26.984375 31.472656 C 27.3125 31.730469 27.824219 32.09375 28.492188 32.292969 C 28.945312 32.425781 29.441406 32.464844 29.921875 32.398438 C 30.570312 32.3125 31.171875 32.042969 31.625 31.644531 C 32.300781 31.042969 32.644531 30.171875 32.570312 29.296875 C 32.824219 29.371094 33.082031 29.410156 33.339844 29.402344 C 33.425781 29.402344 33.515625 29.394531 33.601562 29.382812 C 34.207031 29.304688 34.769531 28.988281 35.28125 28.445312 C 35.664062 28.039062 35.972656 27.582031 36.199219 27.082031 C 36.472656 26.476562 36.5625 25.925781 36.472656 25.394531 Z M 31.171875 9.652344 C 31.429688 10.003906 31.648438 10.394531 31.824219 10.816406 C 33.125 13.996094 32.15625 17.363281 31.402344 19.191406 C 31.34375 18.804688 31.21875 18.453125 31.035156 18.144531 C 31.324219 17.144531 31.523438 16.136719 31.632812 15.125 C 31.847656 13.09375 31.691406 11.253906 31.171875 9.652344 Z M 19.703125 11.171875 C 20.621094 9.121094 21.796875 7.671875 23.191406 6.863281 C 23.78125 6.519531 24.417969 6.316406 25.082031 6.261719 C 25.296875 6.242188 25.519531 6.242188 25.738281 6.257812 C 25.957031 6.269531 26.171875 6.296875 26.382812 6.339844 C 25.613281 6.441406 24.875 6.675781 24.183594 7.035156 C 22.488281 7.890625 20.996094 9.371094 19.746094 11.425781 C 19.558594 11.726562 19.378906 12.027344 19.207031 12.332031 C 19.363281 11.949219 19.527344 11.5625 19.703125 11.171875 Z M 9.210938 6.652344 C 10.0625 6.582031 10.898438 6.746094 11.625 7.136719 C 13.0625 7.871094 14.3125 9.261719 15.339844 11.269531 C 15.679688 11.929688 15.988281 12.589844 16.261719 13.242188 C 15.871094 12.597656 15.4375 11.953125 14.945312 11.28125 C 13.449219 9.21875 11.648438 7.820312 9.738281 7.238281 C 9.15625 7.054688 8.542969 6.960938 7.917969 6.960938 C 8.324219 6.792969 8.757812 6.691406 9.210938 6.652344 Z M 7.554688 25.003906 C 4.925781 22.445312 3.222656 19.457031 2.632812 16.355469 C 2.207031 13.929688 2.554688 11.710938 3.609375 10.109375 C 3.679688 10 3.757812 9.894531 3.839844 9.789062 C 3.410156 11.089844 3.226562 12.621094 3.3125 14.246094 C 3.527344 17.648438 4.882812 21.113281 7.238281 24.261719 C 7.714844 24.882812 8.171875 25.453125 8.617188 25.976562 C 8.265625 25.667969 7.910156 25.34375 7.554688 25.003906 Z M 22.070312 29.074219 C 21.054688 29.835938 19.996094 30.449219 18.921875 30.84375 C 18.320312 31.0625 17.808594 31.097656 17.191406 30.914062 C 16.921875 30.835938 16.652344 30.742188 16.390625 30.640625 C 15.757812 30.398438 15.148438 30.101562 14.566406 29.757812 C 12.800781 28.71875 11.296875 27.300781 9.953125 25.800781 C 9.324219 25.097656 8.726562 24.367188 8.152344 23.625 C 5.621094 20.210938 4.363281 16.351562 4.613281 12.757812 C 4.726562 11.417969 5.109375 9.53125 6.300781 8.144531 C 6.617188 8.050781 6.933594 7.984375 7.25 7.953125 C 7.292969 7.945312 7.335938 7.941406 7.378906 7.941406 C 8.488281 7.847656 11.355469 8.042969 14.039062 11.886719 C 15.199219 13.511719 16.085938 15.144531 16.667969 16.730469 C 16.679688 16.792969 16.699219 16.855469 16.730469 16.914062 C 16.863281 17.285156 16.980469 17.652344 17.074219 18 C 17.152344 18.289062 17.429688 18.480469 17.738281 18.453125 C 17.777344 18.449219 17.820312 18.441406 17.859375 18.429688 C 18.101562 18.363281 18.277344 18.160156 18.308594 17.929688 C 18.863281 15.71875 19.960938 13.445312 21.5625 11.175781 C 23.050781 9.128906 24.96875 7.863281 26.820312 7.707031 C 27.074219 7.6875 27.332031 7.683594 27.582031 7.703125 C 28.0625 7.738281 28.523438 7.832031 28.953125 7.988281 C 29.546875 8.726562 30.015625 9.675781 30.300781 10.730469 C 30.855469 12.753906 30.820312 15.015625 30.21875 17.320312 C 29.792969 17.070312 29.289062 16.972656 28.757812 17.042969 C 28.152344 17.125 27.644531 17.402344 27.328125 17.621094 C 26.667969 18.074219 26.125 18.78125 25.816406 19.570312 C 25.722656 19.496094 25.625 19.429688 25.519531 19.375 C 25.125 19.160156 24.664062 19.078125 24.1875 19.144531 C 23.90625 19.179688 23.628906 19.269531 23.382812 19.398438 C 22.890625 19.65625 22.496094 20.0625 22.167969 20.640625 C 21.894531 21.121094 21.707031 21.636719 21.609375 22.175781 C 21.457031 23.003906 21.59375 23.699219 22.019531 24.238281 C 22.230469 24.507812 22.507812 24.730469 22.820312 24.894531 C 21.992188 25.414062 21.472656 26.300781 21.457031 27.253906 C 21.445312 27.898438 21.671875 28.542969 22.070312 29.074219 Z M 29.714844 21.621094 C 29.335938 22.058594 28.621094 22.292969 28.019531 22.234375 C 27.632812 22.195312 27.25 22.027344 27 21.75 C 26.710938 21.425781 26.621094 20.988281 26.671875 20.574219 C 26.683594 20.492188 26.699219 20.410156 26.71875 20.332031 C 26.894531 19.636719 27.339844 18.910156 27.964844 18.480469 C 28.484375 18.125 29.265625 17.859375 29.8125 18.34375 C 30.675781 19.105469 30.375 20.867188 29.714844 21.621094 Z M 25.566406 23.53125 C 25.566406 23.535156 25.566406 23.535156 25.566406 23.535156 C 25.082031 24.367188 23.519531 24.394531 22.894531 23.601562 C 22.621094 23.246094 22.613281 22.777344 22.691406 22.359375 C 22.769531 21.933594 22.917969 21.523438 23.132812 21.148438 C 23.316406 20.820312 23.558594 20.507812 23.90625 20.328125 C 24.222656 20.164062 24.644531 20.113281 24.980469 20.296875 C 25.179688 20.40625 25.328125 20.582031 25.429688 20.777344 C 25.847656 21.578125 26.023438 22.75 25.566406 23.53125 Z M 30.878906 30.867188 C 30.355469 31.332031 29.527344 31.492188 28.8125 31.28125 C 28.382812 31.152344 28.019531 30.921875 27.679688 30.652344 C 27.273438 30.332031 26.824219 30.066406 26.347656 29.863281 C 25.871094 29.65625 25.367188 29.511719 24.847656 29.429688 C 24.414062 29.363281 23.996094 29.257812 23.609375 29.035156 C 22.96875 28.660156 22.542969 27.960938 22.554688 27.273438 C 22.566406 26.640625 22.945312 26.035156 23.527344 25.71875 C 24.4375 25.226562 25.585938 25.371094 26.445312 24.746094 C 27.230469 24.175781 28.042969 23.269531 29.1875 23.765625 C 30.335938 24.257812 30.171875 25.445312 30.25 26.390625 C 30.339844 27.425781 31.214844 28.152344 31.4375 29.136719 C 31.582031 29.761719 31.363281 30.4375 30.878906 30.867188 Z M 31.351562 23.699219 C 30.910156 23.300781 30.625 22.628906 30.71875 22.066406 C 30.875 21.09375 32.054688 19.71875 33.222656 19.84375 C 33.960938 19.921875 34.265625 20.660156 34.328125 21.273438 C 34.402344 22.007812 34.125 22.808594 33.699219 23.390625 C 33.648438 23.457031 33.597656 23.523438 33.539062 23.582031 C 33.246094 23.894531 32.84375 24.117188 32.398438 24.121094 C 32.019531 24.121094 31.636719 23.957031 31.351562 23.699219 Z M 35.191406 26.65625 C 35.011719 27.050781 34.765625 27.417969 34.464844 27.734375 C 34.167969 28.050781 33.78125 28.339844 33.320312 28.347656 C 32.285156 28.367188 31.34375 27.167969 31.726562 26.289062 C 31.730469 26.289062 31.730469 26.289062 31.730469 26.289062 C 32.09375 25.460938 33.164062 24.871094 34.082031 24.695312 C 34.300781 24.652344 34.539062 24.65625 34.753906 24.738281 C 35.105469 24.878906 35.328125 25.230469 35.386719 25.570312 C 35.453125 25.941406 35.347656 26.316406 35.191406 26.65625 Z M 35.191406 26.65625 " fill-opacity="1" fill-rule="nonzero"/></g></svg>