<svg xmlns="http://www.w3.org/2000/svg" xmlns:xlink="http://www.w3.org/1999/xlink" width="80" zoomAndPan="magnify" viewBox="0 0 60 60" height="80" preserveAspectRatio="xMidYMid meet" version="1.0"><defs><filter x="0%" y="0%" width="100%" height="100%" id="f1277b2b72"><feColorMatrix values="0 0 0 0 1 0 0 0 0 1 0 0 0 0 1 0 0 0 1 0" color-interpolation-filters="sRGB"/></filter><mask id="4baea52cdb"><g filter="url(#f1277b2b72)"><rect x="-6" width="72" fill="#000000" y="-6" height="72" fill-opacity="0.2"/></g></mask><clipPath id="5d4e99bf31"><path d="M 11 14 L 27 14 L 27 31 L 11 31 Z M 11 14 " clip-rule="nonzero"/></clipPath><clipPath id="e22ea262ff"><path d="M -4.445312 21.03125 L 47.367188 -0.871094 L 64.300781 39.199219 L 12.488281 61.097656 Z M -4.445312 21.03125 " clip-rule="nonzero"/></clipPath><clipPath id="55db8502c2"><path d="M -4.445312 21.03125 L 47.367188 -0.871094 L 64.300781 39.199219 L 12.488281 61.097656 Z M -4.445312 21.03125 " clip-rule="nonzero"/></clipPath><clipPath id="6d0e87a64f"><path d="M 26 8 L 41 8 L 41 25 L 26 25 Z M 26 8 " clip-rule="nonzero"/></clipPath><clipPath id="b5c6fae9d3"><path d="M -4.445312 21.03125 L 47.367188 -0.871094 L 64.300781 39.199219 L 12.488281 61.097656 Z M -4.445312 21.03125 " clip-rule="nonzero"/></clipPath><clipPath id="6286f578fb"><path d="M -4.445312 21.03125 L 47.367188 -0.871094 L 64.300781 39.199219 L 12.488281 61.097656 Z M -4.445312 21.03125 " clip-rule="nonzero"/></clipPath><clipPath id="95f2b46143"><path d="M 3 29 L 20 29 L 20 44 L 3 44 Z M 3 29 " clip-rule="nonzero"/></clipPath><clipPath id="4f2562b1ac"><path d="M -4.445312 21.03125 L 47.367188 -0.871094 L 64.300781 39.199219 L 12.488281 61.097656 Z M -4.445312 21.03125 " clip-rule="nonzero"/></clipPath><clipPath id="030d92e829"><path d="M -4.445312 21.03125 L 47.367188 -0.871094 L 64.300781 39.199219 L 12.488281 61.097656 Z M -4.445312 21.03125 " clip-rule="nonzero"/></clipPath><clipPath id="ac435a1037"><path d="M 41 13 L 56 13 L 56 30 L 41 30 Z M 41 13 " clip-rule="nonzero"/></clipPath><clipPath id="f38b9ee66e"><path d="M -4.445312 21.03125 L 47.367188 -0.871094 L 64.300781 39.199219 L 12.488281 61.097656 Z M -4.445312 21.03125 " clip-rule="nonzero"/></clipPath><clipPath id="14e940773c"><path d="M -4.445312 21.03125 L 47.367188 -0.871094 L 64.300781 39.199219 L 12.488281 61.097656 Z M -4.445312 21.03125 " clip-rule="nonzero"/></clipPath><clipPath id="eaf70a2b3e"><path d="M 38.476562 17.292969 L 52.546875 11.34375 L 58.628906 25.734375 L 44.558594 31.683594 Z M 38.476562 17.292969 " clip-rule="nonzero"/></clipPath><clipPath id="229a14c587"><path d="M 38.476562 17.292969 L 52.53125 11.351562 L 58.613281 25.742188 L 44.558594 31.683594 Z M 38.476562 17.292969 " clip-rule="nonzero"/></clipPath><clipPath id="cf1ba2f5fe"><path d="M 22 28 L 49 28 L 49 54 L 22 54 Z M 22 28 " clip-rule="nonzero"/></clipPath><clipPath id="9643b79f2c"><path d="M -4.445312 21.03125 L 47.367188 -0.871094 L 64.300781 39.199219 L 12.488281 61.097656 Z M -4.445312 21.03125 " clip-rule="nonzero"/></clipPath><clipPath id="35393d9c7e"><path d="M -4.445312 21.03125 L 47.367188 -0.871094 L 64.300781 39.199219 L 12.488281 61.097656 Z M -4.445312 21.03125 " clip-rule="nonzero"/></clipPath><clipPath id="87faaba7a3"><path d="M 18.097656 34.601562 L 42.367188 24.339844 L 51.019531 44.808594 L 26.75 55.066406 Z M 18.097656 34.601562 " clip-rule="nonzero"/></clipPath><clipPath id="8681d2a8f4"><path d="M 18.097656 34.601562 L 42.367188 24.339844 L 51.019531 44.808594 L 26.75 55.066406 Z M 18.097656 34.601562 " clip-rule="nonzero"/></clipPath><clipPath id="48e1d8a517"><rect x="0" width="60" y="0" height="60"/></clipPath></defs><g mask="url(#4baea52cdb)"><g transform="matrix(1, 0, 0, 1, 0, -0.000000000000001443)"><g clip-path="url(#48e1d8a517)"><g clip-path="url(#5d4e99bf31)"><g clip-path="url(#e22ea262ff)"><g clip-path="url(#55db8502c2)"><path fill="#b20000" d="M 14.464844 15.675781 C 23.132812 10.476562 30.910156 26.800781 22.210938 30.003906 C 15.214844 32.582031 6.929688 20.195312 14.464844 15.675781 " fill-opacity="1" fill-rule="evenodd"/></g></g></g><g clip-path="url(#6d0e87a64f)"><g clip-path="url(#b5c6fae9d3)"><g clip-path="url(#6286f578fb)"><path fill="#b20000" d="M 29.28125 9.410156 C 38.496094 2.886719 44.992188 21.566406 35.117188 24.546875 C 27.300781 26.910156 23.390625 13.585938 29.28125 9.410156 " fill-opacity="1" fill-rule="evenodd"/></g></g></g><g clip-path="url(#95f2b46143)"><g clip-path="url(#4f2562b1ac)"><g clip-path="url(#030d92e829)"><path fill="#b20000" d="M 19.566406 37.082031 C 19.316406 46.554688 5.9375 45.59375 3.839844 37.199219 C 1.628906 28.359375 18.132812 26.367188 19.566406 37.082031 " fill-opacity="1" fill-rule="evenodd"/></g></g></g><g clip-path="url(#ac435a1037)"><g clip-path="url(#f38b9ee66e)"><g clip-path="url(#14e940773c)"><g clip-path="url(#eaf70a2b3e)"><g clip-path="url(#229a14c587)"><path fill="#b20000" d="M 45.273438 14.578125 C 47.453125 13.109375 50.78125 12.707031 52.746094 14.257812 C 58.160156 18.542969 55.40625 27.742188 49.605469 29.496094 C 46.421875 30.464844 43.558594 28.59375 42.347656 26.320312 C 39.753906 21.453125 42.003906 16.777344 45.273438 14.578125 " fill-opacity="1" fill-rule="evenodd"/></g></g></g></g></g><g clip-path="url(#cf1ba2f5fe)"><g clip-path="url(#9643b79f2c)"><g clip-path="url(#35393d9c7e)"><g clip-path="url(#87faaba7a3)"><g clip-path="url(#8681d2a8f4)"><path fill="#b20000" d="M 27.871094 30.734375 C 35.632812 25.738281 45.890625 28.570312 48.527344 39.605469 C 49.070312 41.890625 48.523438 45.679688 45.984375 46.929688 C 43.9375 47.9375 40.609375 46.914062 38 48.03125 C 34.761719 49.417969 33.429688 53.402344 29.765625 53.214844 C 26.691406 53.058594 23.546875 48.492188 22.484375 44.652344 C 20.953125 39.117188 23.195312 33.746094 27.871094 30.734375 " fill-opacity="1" fill-rule="evenodd"/></g></g></g></g></g></g></g></g></svg>