<svg xmlns="http://www.w3.org/2000/svg" xmlns:xlink="http://www.w3.org/1999/xlink" width="100" zoomAndPan="magnify" viewBox="0 0 75 74.999997" height="100" preserveAspectRatio="xMidYMid meet" version="1.0"><defs><clipPath id="428dc18878"><path d="M 1.3125 1.3125 L 74.0625 1.3125 L 74.0625 74.0625 L 1.3125 74.0625 Z M 1.3125 1.3125 " clip-rule="nonzero"/></clipPath><clipPath id="b7fc0079cf"><path d="M 5 5 L 74.0625 5 L 74.0625 74.0625 L 5 74.0625 Z M 5 5 " clip-rule="nonzero"/></clipPath></defs><g clip-path="url(#428dc18878)"><path fill="#fae15a" d="M 74.0625 37.6875 C 74.0625 38.878906 74.003906 40.066406 73.886719 41.253906 C 73.769531 42.4375 73.597656 43.617188 73.363281 44.785156 C 73.132812 45.953125 72.84375 47.105469 72.496094 48.246094 C 72.148438 49.386719 71.75 50.507812 71.292969 51.609375 C 70.835938 52.707031 70.328125 53.785156 69.765625 54.835938 C 69.207031 55.886719 68.59375 56.90625 67.933594 57.894531 C 67.269531 58.886719 66.5625 59.84375 65.804688 60.761719 C 65.050781 61.683594 64.25 62.566406 63.410156 63.410156 C 62.566406 64.25 61.683594 65.050781 60.761719 65.804688 C 59.84375 66.5625 58.886719 67.269531 57.894531 67.933594 C 56.90625 68.59375 55.886719 69.207031 54.835938 69.765625 C 53.785156 70.328125 52.707031 70.835938 51.609375 71.292969 C 50.507812 71.75 49.386719 72.148438 48.246094 72.496094 C 47.105469 72.84375 45.953125 73.132812 44.785156 73.363281 C 43.617188 73.597656 42.4375 73.769531 41.253906 73.886719 C 40.066406 74.003906 38.878906 74.0625 37.6875 74.0625 C 36.496094 74.0625 35.308594 74.003906 34.121094 73.886719 C 32.9375 73.769531 31.757812 73.597656 30.589844 73.363281 C 29.421875 73.132812 28.269531 72.84375 27.128906 72.496094 C 25.988281 72.148438 24.867188 71.75 23.765625 71.292969 C 22.667969 70.835938 21.589844 70.328125 20.539062 69.765625 C 19.488281 69.207031 18.46875 68.59375 17.480469 67.933594 C 16.488281 67.269531 15.53125 66.5625 14.613281 65.804688 C 13.691406 65.050781 12.808594 64.25 11.964844 63.410156 C 11.125 62.566406 10.324219 61.683594 9.570312 60.761719 C 8.8125 59.84375 8.105469 58.886719 7.441406 57.894531 C 6.78125 56.90625 6.167969 55.886719 5.609375 54.835938 C 5.046875 53.785156 4.539062 52.707031 4.082031 51.609375 C 3.625 50.507812 3.226562 49.386719 2.878906 48.246094 C 2.53125 47.105469 2.242188 45.953125 2.011719 44.785156 C 1.777344 43.617188 1.605469 42.4375 1.488281 41.253906 C 1.371094 40.066406 1.3125 38.878906 1.3125 37.6875 C 1.3125 36.496094 1.371094 35.308594 1.488281 34.121094 C 1.605469 32.9375 1.777344 31.757812 2.011719 30.589844 C 2.242188 29.421875 2.53125 28.269531 2.878906 27.128906 C 3.226562 25.988281 3.625 24.867188 4.082031 23.765625 C 4.539062 22.667969 5.046875 21.589844 5.609375 20.539062 C 6.167969 19.488281 6.78125 18.46875 7.441406 17.480469 C 8.105469 16.488281 8.8125 15.53125 9.570312 14.613281 C 10.324219 13.691406 11.125 12.808594 11.964844 11.964844 C 12.808594 11.125 13.691406 10.324219 14.613281 9.570312 C 15.53125 8.8125 16.488281 8.105469 17.480469 7.441406 C 18.46875 6.78125 19.488281 6.167969 20.539062 5.609375 C 21.589844 5.046875 22.667969 4.539062 23.765625 4.082031 C 24.867188 3.625 25.988281 3.226562 27.128906 2.878906 C 28.269531 2.53125 29.421875 2.242188 30.589844 2.011719 C 31.757812 1.777344 32.9375 1.605469 34.121094 1.488281 C 35.308594 1.371094 36.496094 1.3125 37.6875 1.3125 C 38.878906 1.3125 40.066406 1.371094 41.253906 1.488281 C 42.4375 1.605469 43.617188 1.777344 44.785156 2.011719 C 45.953125 2.242188 47.105469 2.53125 48.246094 2.878906 C 49.386719 3.226562 50.507812 3.625 51.609375 4.082031 C 52.707031 4.539062 53.785156 5.046875 54.835938 5.609375 C 55.886719 6.167969 56.90625 6.78125 57.894531 7.441406 C 58.886719 8.105469 59.84375 8.8125 60.761719 9.570312 C 61.683594 10.324219 62.566406 11.125 63.410156 11.964844 C 64.25 12.808594 65.050781 13.691406 65.804688 14.613281 C 66.5625 15.53125 67.269531 16.488281 67.933594 17.480469 C 68.59375 18.46875 69.207031 19.488281 69.765625 20.539062 C 70.328125 21.589844 70.835938 22.667969 71.292969 23.765625 C 71.75 24.867188 72.148438 25.988281 72.496094 27.128906 C 72.84375 28.269531 73.132812 29.421875 73.363281 30.589844 C 73.597656 31.757812 73.769531 32.9375 73.886719 34.121094 C 74.003906 35.308594 74.0625 36.496094 74.0625 37.6875 Z M 74.0625 37.6875 " fill-opacity="1" fill-rule="nonzero"/></g><g clip-path="url(#b7fc0079cf)"><path fill="#f5c115" d="M 55.089844 5.734375 C 57.910156 10.90625 59.511719 16.832031 59.511719 23.136719 C 59.511719 43.226562 43.226562 59.511719 23.136719 59.511719 C 16.832031 59.511719 10.90625 57.910156 5.734375 55.089844 C 11.902344 66.390625 23.898438 74.0625 37.6875 74.0625 C 57.777344 74.0625 74.0625 57.777344 74.0625 37.6875 C 74.0625 23.898438 66.390625 11.90625 55.089844 5.734375 Z M 55.089844 5.734375 " fill-opacity="1" fill-rule="nonzero"/></g><path fill="#efa400" d="M 69.074219 37.6875 C 69.074219 38.714844 69.023438 39.742188 68.925781 40.765625 C 68.824219 41.789062 68.671875 42.804688 68.472656 43.8125 C 68.273438 44.820312 68.023438 45.816406 67.722656 46.800781 C 67.425781 47.78125 67.078125 48.75 66.6875 49.699219 C 66.292969 50.648438 65.855469 51.578125 65.371094 52.484375 C 64.882812 53.390625 64.355469 54.269531 63.785156 55.125 C 63.214844 55.980469 62.601562 56.804688 61.949219 57.601562 C 61.296875 58.394531 60.609375 59.15625 59.882812 59.882812 C 59.15625 60.609375 58.394531 61.296875 57.601562 61.949219 C 56.804688 62.601562 55.980469 63.214844 55.125 63.785156 C 54.269531 64.355469 53.390625 64.882812 52.484375 65.371094 C 51.578125 65.855469 50.648438 66.292969 49.699219 66.6875 C 48.75 67.078125 47.78125 67.425781 46.800781 67.722656 C 45.816406 68.023438 44.820312 68.273438 43.8125 68.472656 C 42.804688 68.671875 41.789062 68.824219 40.765625 68.925781 C 39.742188 69.023438 38.714844 69.074219 37.6875 69.074219 C 36.660156 69.074219 35.632812 69.023438 34.609375 68.925781 C 33.585938 68.824219 32.570312 68.671875 31.5625 68.472656 C 30.554688 68.273438 29.558594 68.023438 28.574219 67.722656 C 27.59375 67.425781 26.625 67.078125 25.675781 66.6875 C 24.726562 66.292969 23.796875 65.855469 22.890625 65.371094 C 21.984375 64.882812 21.105469 64.355469 20.25 63.785156 C 19.394531 63.214844 18.570312 62.601562 17.773438 61.949219 C 16.980469 61.296875 16.21875 60.609375 15.492188 59.882812 C 14.765625 59.15625 14.078125 58.394531 13.425781 57.601562 C 12.773438 56.804688 12.160156 55.980469 11.589844 55.125 C 11.019531 54.269531 10.492188 53.390625 10.003906 52.484375 C 9.519531 51.578125 9.082031 50.648438 8.6875 49.699219 C 8.296875 48.75 7.949219 47.78125 7.652344 46.800781 C 7.351562 45.816406 7.101562 44.820312 6.902344 43.8125 C 6.703125 42.804688 6.550781 41.789062 6.449219 40.765625 C 6.351562 39.742188 6.300781 38.714844 6.300781 37.6875 C 6.300781 36.660156 6.351562 35.632812 6.449219 34.609375 C 6.550781 33.585938 6.703125 32.570312 6.902344 31.5625 C 7.101562 30.554688 7.351562 29.558594 7.652344 28.574219 C 7.949219 27.59375 8.296875 26.625 8.6875 25.675781 C 9.082031 24.726562 9.519531 23.796875 10.003906 22.890625 C 10.492188 21.984375 11.019531 21.105469 11.589844 20.25 C 12.160156 19.394531 12.773438 18.570312 13.425781 17.773438 C 14.078125 16.980469 14.765625 16.21875 15.492188 15.492188 C 16.21875 14.765625 16.980469 14.078125 17.773438 13.425781 C 18.570312 12.773438 19.394531 12.160156 20.25 11.589844 C 21.105469 11.019531 21.984375 10.492188 22.890625 10.003906 C 23.796875 9.519531 24.726562 9.082031 25.675781 8.6875 C 26.625 8.296875 27.59375 7.949219 28.574219 7.652344 C 29.558594 7.351562 30.554688 7.101562 31.5625 6.902344 C 32.570312 6.703125 33.585938 6.550781 34.609375 6.449219 C 35.632812 6.351562 36.660156 6.300781 37.6875 6.300781 C 38.714844 6.300781 39.742188 6.351562 40.765625 6.449219 C 41.789062 6.550781 42.804688 6.703125 43.8125 6.902344 C 44.820312 7.101562 45.816406 7.351562 46.800781 7.652344 C 47.78125 7.949219 48.75 8.296875 49.699219 8.6875 C 50.648438 9.082031 51.578125 9.519531 52.484375 10.003906 C 53.390625 10.492188 54.269531 11.019531 55.125 11.589844 C 55.980469 12.160156 56.804688 12.773438 57.601562 13.425781 C 58.394531 14.078125 59.15625 14.765625 59.882812 15.492188 C 60.609375 16.21875 61.296875 16.980469 61.949219 17.773438 C 62.601562 18.570312 63.214844 19.394531 63.785156 20.25 C 64.355469 21.105469 64.882812 21.984375 65.371094 22.890625 C 65.855469 23.796875 66.292969 24.726562 66.6875 25.675781 C 67.078125 26.625 67.425781 27.59375 67.722656 28.574219 C 68.023438 29.558594 68.273438 30.554688 68.472656 31.5625 C 68.671875 32.570312 68.824219 33.585938 68.925781 34.609375 C 69.023438 35.632812 69.074219 36.660156 69.074219 37.6875 Z M 69.074219 37.6875 " fill-opacity="1" fill-rule="nonzero"/><path fill="#e68c00" d="M 58.382812 14.117188 C 59.117188 17.003906 59.511719 20.023438 59.511719 23.136719 C 59.511719 43.226562 43.226562 59.511719 23.136719 59.511719 C 20.023438 59.511719 17 59.117188 14.117188 58.382812 C 19.875 64.929688 28.304688 69.074219 37.6875 69.074219 C 54.996094 69.074219 69.074219 54.996094 69.074219 37.6875 C 69.074219 28.304688 64.929688 19.875 58.382812 14.117188 Z M 58.382812 14.117188 " fill-opacity="1" fill-rule="nonzero"/><path fill="#f5c115" d="M 67.316406 37.6875 C 67.316406 38.65625 67.269531 39.625 67.171875 40.589844 C 67.078125 41.558594 66.933594 42.515625 66.746094 43.46875 C 66.558594 44.417969 66.320312 45.359375 66.039062 46.289062 C 65.757812 47.214844 65.429688 48.128906 65.058594 49.027344 C 64.6875 49.921875 64.273438 50.796875 63.816406 51.652344 C 63.359375 52.511719 62.863281 53.339844 62.324219 54.148438 C 61.78125 54.953125 61.207031 55.734375 60.589844 56.484375 C 59.976562 57.234375 59.324219 57.953125 58.636719 58.636719 C 57.953125 59.324219 57.234375 59.976562 56.484375 60.589844 C 55.734375 61.207031 54.953125 61.78125 54.148438 62.324219 C 53.339844 62.863281 52.511719 63.359375 51.652344 63.816406 C 50.796875 64.273438 49.921875 64.6875 49.027344 65.058594 C 48.128906 65.429688 47.214844 65.757812 46.289062 66.039062 C 45.359375 66.320312 44.417969 66.558594 43.46875 66.746094 C 42.515625 66.933594 41.558594 67.078125 40.589844 67.171875 C 39.625 67.269531 38.65625 67.316406 37.6875 67.316406 C 36.71875 67.316406 35.75 67.269531 34.785156 67.171875 C 33.816406 67.078125 32.859375 66.933594 31.90625 66.746094 C 30.957031 66.558594 30.015625 66.320312 29.085938 66.039062 C 28.160156 65.757812 27.246094 65.429688 26.347656 65.058594 C 25.453125 64.6875 24.578125 64.273438 23.722656 63.816406 C 22.863281 63.359375 22.035156 62.863281 21.226562 62.324219 C 20.421875 61.78125 19.640625 61.207031 18.890625 60.589844 C 18.140625 59.976562 17.421875 59.324219 16.738281 58.636719 C 16.050781 57.953125 15.398438 57.234375 14.785156 56.484375 C 14.167969 55.734375 13.59375 54.953125 13.050781 54.148438 C 12.511719 53.339844 12.015625 52.511719 11.558594 51.652344 C 11.101562 50.796875 10.6875 49.921875 10.316406 49.027344 C 9.945312 48.128906 9.617188 47.214844 9.335938 46.289062 C 9.054688 45.359375 8.816406 44.417969 8.628906 43.46875 C 8.441406 42.515625 8.296875 41.558594 8.203125 40.589844 C 8.105469 39.625 8.058594 38.65625 8.058594 37.6875 C 8.058594 36.71875 8.105469 35.75 8.203125 34.785156 C 8.296875 33.816406 8.441406 32.859375 8.628906 31.90625 C 8.816406 30.957031 9.054688 30.015625 9.335938 29.085938 C 9.617188 28.160156 9.945312 27.246094 10.316406 26.347656 C 10.6875 25.453125 11.101562 24.578125 11.558594 23.722656 C 12.015625 22.863281 12.511719 22.035156 13.050781 21.226562 C 13.59375 20.421875 14.167969 19.640625 14.785156 18.890625 C 15.398438 18.140625 16.050781 17.421875 16.738281 16.738281 C 17.421875 16.050781 18.140625 15.398438 18.890625 14.785156 C 19.640625 14.167969 20.421875 13.589844 21.226562 13.050781 C 22.035156 12.511719 22.863281 12.015625 23.722656 11.558594 C 24.578125 11.101562 25.453125 10.6875 26.347656 10.316406 C 27.246094 9.945312 28.160156 9.617188 29.085938 9.335938 C 30.015625 9.054688 30.957031 8.816406 31.90625 8.628906 C 32.859375 8.441406 33.816406 8.296875 34.785156 8.203125 C 35.75 8.105469 36.71875 8.058594 37.6875 8.058594 C 38.65625 8.058594 39.625 8.105469 40.589844 8.203125 C 41.558594 8.296875 42.515625 8.441406 43.46875 8.628906 C 44.417969 8.816406 45.359375 9.054688 46.289062 9.335938 C 47.214844 9.617188 48.128906 9.945312 49.027344 10.316406 C 49.921875 10.6875 50.796875 11.101562 51.652344 11.558594 C 52.511719 12.015625 53.339844 12.511719 54.148438 13.050781 C 54.953125 13.589844 55.734375 14.167969 56.484375 14.785156 C 57.234375 15.398438 57.953125 16.050781 58.636719 16.738281 C 59.324219 17.421875 59.976562 18.140625 60.589844 18.890625 C 61.207031 19.640625 61.78125 20.421875 62.324219 21.226562 C 62.863281 22.035156 63.359375 22.863281 63.816406 23.722656 C 64.273438 24.578125 64.6875 25.453125 65.058594 26.347656 C 65.429688 27.246094 65.757812 28.160156 66.039062 29.085938 C 66.320312 30.015625 66.558594 30.957031 66.746094 31.90625 C 66.933594 32.859375 67.078125 33.816406 67.171875 34.785156 C 67.269531 35.75 67.316406 36.71875 67.316406 37.6875 Z M 67.316406 37.6875 " fill-opacity="1" fill-rule="nonzero"/><path fill="#efa400" d="M 59.003906 17.140625 C 59.328125 19.09375 59.511719 21.097656 59.511719 23.136719 C 59.511719 43.226562 43.226562 59.511719 23.136719 59.511719 C 21.09375 59.511719 19.09375 59.328125 17.140625 59.003906 C 22.472656 64.144531 29.714844 67.316406 37.6875 67.316406 C 54.023438 67.316406 67.316406 54.023438 67.316406 37.6875 C 67.316406 29.710938 64.144531 22.472656 59.003906 17.140625 Z M 59.003906 17.140625 " fill-opacity="1" fill-rule="nonzero"/><path fill="#fae15a" d="M 50.71875 16.566406 C 49.21875 16.566406 47.863281 17.460938 47.273438 18.839844 L 44.726562 24.78125 C 40.160156 23.257812 35.214844 23.257812 30.648438 24.78125 L 28.101562 18.839844 C 27.511719 17.457031 26.152344 16.566406 24.65625 16.566406 C 22.726562 16.566406 21.117188 18.027344 20.921875 19.941406 L 20.085938 28.300781 L 17.898438 36.324219 C 17.023438 39.535156 16.945312 42.90625 17.664062 46.152344 L 17.695312 46.292969 C 19.777344 55.664062 28.089844 62.328125 37.6875 62.328125 C 47.285156 62.328125 55.597656 55.664062 57.679688 46.292969 L 57.710938 46.152344 C 58.429688 42.90625 58.351562 39.53125 57.476562 36.324219 L 55.289062 28.300781 L 54.453125 19.941406 C 54.257812 18.027344 52.648438 16.566406 50.71875 16.566406 Z M 50.71875 16.566406 " fill-opacity="1" fill-rule="nonzero"/><path fill="#fae15a" d="M 50.71875 16.566406 C 49.21875 16.566406 47.863281 17.460938 47.273438 18.839844 L 44.726562 24.78125 C 40.160156 23.257812 35.214844 23.257812 30.648438 24.78125 L 28.101562 18.839844 C 27.511719 17.457031 26.152344 16.566406 24.65625 16.566406 C 22.726562 16.566406 21.117188 18.027344 20.921875 19.941406 L 20.085938 28.300781 L 17.898438 36.324219 C 17.023438 39.535156 16.945312 42.90625 17.664062 46.152344 L 17.695312 46.292969 C 19.777344 55.664062 28.089844 62.328125 37.6875 62.328125 C 47.285156 62.328125 55.597656 55.664062 57.679688 46.292969 L 57.710938 46.152344 C 58.429688 42.90625 58.351562 39.53125 57.476562 36.324219 L 55.289062 28.300781 L 54.453125 19.941406 C 54.257812 18.027344 52.648438 16.566406 50.71875 16.566406 Z M 50.71875 16.566406 " fill-opacity="1" fill-rule="nonzero"/><path fill="#1b2e69" d="M 44.726562 38.273438 C 43.109375 38.273438 41.792969 39.589844 41.792969 41.207031 C 41.792969 42.828125 43.109375 44.140625 44.726562 44.140625 C 46.347656 44.140625 47.660156 42.828125 47.660156 41.207031 C 47.660156 39.589844 46.347656 38.273438 44.726562 38.273438 Z M 44.726562 38.273438 " fill-opacity="1" fill-rule="nonzero"/><path fill="#f5c115" d="M 27.007812 59.304688 C 30.144531 61.222656 33.804688 62.328125 37.6875 62.328125 C 47.285156 62.328125 55.597656 55.664062 57.679688 46.292969 L 57.710938 46.152344 C 58.429688 42.90625 58.351562 39.53125 57.476562 36.324219 L 57.292969 35.664062 C 52.617188 48.421875 40.992188 57.824219 27.007812 59.304688 Z M 27.007812 59.304688 " fill-opacity="1" fill-rule="nonzero"/><path fill="#f0ffff" d="M 55.472656 42.492188 C 52.171875 41.960938 49.160156 43.40625 47.429688 45.828125 C 46.421875 47.238281 44.496094 47.714844 42.910156 47.007812 C 41.3125 46.300781 39.550781 45.902344 37.6875 45.902344 C 35.824219 45.902344 34.0625 46.296875 32.464844 47.007812 C 30.878906 47.714844 28.953125 47.238281 27.945312 45.828125 C 26.214844 43.40625 23.203125 41.960938 19.902344 42.492188 C 18.957031 42.644531 18.070312 42.976562 17.253906 43.433594 C 17.332031 44.34375 17.460938 45.25 17.660156 46.152344 L 17.691406 46.292969 C 19.773438 55.664062 28.085938 62.328125 37.683594 62.328125 C 47.28125 62.328125 55.59375 55.664062 57.675781 46.292969 L 57.707031 46.152344 C 57.90625 45.25 58.039062 44.34375 58.113281 43.433594 C 57.296875 42.976562 56.410156 42.640625 55.464844 42.492188 Z M 55.472656 42.492188 " fill-opacity="1" fill-rule="nonzero"/><path fill="#def5f5" d="M 27.007812 59.304688 C 30.144531 61.222656 33.804688 62.328125 37.6875 62.328125 C 47.285156 62.328125 55.597656 55.664062 57.679688 46.292969 L 57.710938 46.152344 C 57.910156 45.25 58.042969 44.34375 58.117188 43.433594 C 57.300781 42.976562 56.414062 42.640625 55.46875 42.492188 C 54.96875 42.410156 54.476562 42.390625 53.988281 42.398438 C 48.207031 51.640625 38.394531 58.101562 27.007812 59.304688 Z M 27.007812 59.304688 " fill-opacity="1" fill-rule="nonzero"/><path fill="#1b2e69" d="M 42.621094 49.652344 C 42.351562 49.25 41.800781 49.136719 41.398438 49.410156 C 41.097656 49.609375 40.75 49.714844 40.390625 49.714844 C 39.386719 49.714844 38.566406 48.898438 38.566406 47.890625 L 38.566406 46.195312 C 38.566406 45.710938 38.171875 45.316406 37.6875 45.316406 C 37.203125 45.316406 36.808594 45.710938 36.808594 46.195312 L 36.808594 47.890625 C 36.808594 48.898438 35.988281 49.714844 34.984375 49.714844 C 34.625 49.714844 34.273438 49.609375 33.976562 49.410156 C 33.574219 49.140625 33.023438 49.25 32.753906 49.652344 C 32.484375 50.054688 32.59375 50.601562 32.996094 50.871094 C 33.589844 51.265625 34.277344 51.476562 34.984375 51.476562 C 36.066406 51.476562 37.03125 50.980469 37.6875 50.21875 C 38.34375 50.980469 39.308594 51.476562 40.390625 51.476562 C 41.097656 51.476562 41.785156 51.265625 42.378906 50.871094 C 42.78125 50.601562 42.890625 50.054688 42.621094 49.652344 Z M 42.621094 49.652344 " fill-opacity="1" fill-rule="nonzero"/><path fill="#f0ffff" d="M 44.726562 40.328125 C 45.210938 40.328125 45.609375 40.722656 45.609375 41.207031 C 45.609375 41.691406 45.210938 42.085938 44.726562 42.085938 C 44.242188 42.085938 43.847656 41.691406 43.847656 41.207031 C 43.847656 40.722656 44.242188 40.328125 44.726562 40.328125 " fill-opacity="1" fill-rule="nonzero"/><path fill="#1b2e69" d="M 30.648438 38.273438 C 29.027344 38.273438 27.714844 39.589844 27.714844 41.207031 C 27.714844 42.828125 29.027344 44.140625 30.648438 44.140625 C 32.265625 44.140625 33.582031 42.828125 33.582031 41.207031 C 33.582031 39.589844 32.265625 38.273438 30.648438 38.273438 Z M 30.648438 38.273438 " fill-opacity="1" fill-rule="nonzero"/><path fill="#f0ffff" d="M 45.253906 33.691406 C 45.371094 33.890625 45.425781 34.121094 45.417969 34.375 C 45.410156 34.628906 45.339844 34.886719 45.207031 35.15625 C 45.074219 35.421875 44.890625 35.675781 44.65625 35.914062 C 44.421875 36.152344 44.152344 36.359375 43.847656 36.535156 C 43.542969 36.710938 43.230469 36.839844 42.90625 36.921875 C 42.582031 37.007812 42.269531 37.039062 41.972656 37.019531 C 41.675781 37.003906 41.414062 36.933594 41.191406 36.8125 C 40.96875 36.691406 40.796875 36.53125 40.679688 36.332031 C 40.566406 36.128906 40.511719 35.898438 40.519531 35.644531 C 40.527344 35.394531 40.597656 35.132812 40.730469 34.867188 C 40.859375 34.597656 41.042969 34.347656 41.28125 34.105469 C 41.515625 33.867188 41.785156 33.660156 42.085938 33.484375 C 42.390625 33.3125 42.703125 33.179688 43.03125 33.097656 C 43.355469 33.011719 43.664062 32.980469 43.960938 33 C 44.257812 33.019531 44.519531 33.085938 44.742188 33.207031 C 44.96875 33.328125 45.136719 33.488281 45.253906 33.691406 Z M 45.253906 33.691406 " fill-opacity="1" fill-rule="nonzero"/><path fill="#f0ffff" d="M 33.289062 33.484375 C 33.59375 33.660156 33.863281 33.867188 34.097656 34.105469 C 34.332031 34.34375 34.515625 34.597656 34.648438 34.863281 C 34.78125 35.132812 34.851562 35.390625 34.859375 35.644531 C 34.867188 35.898438 34.8125 36.128906 34.695312 36.328125 C 34.578125 36.53125 34.410156 36.691406 34.183594 36.8125 C 33.960938 36.933594 33.699219 37 33.402344 37.019531 C 33.105469 37.039062 32.796875 37.007812 32.472656 36.921875 C 32.144531 36.839844 31.832031 36.707031 31.527344 36.535156 C 31.226562 36.359375 30.957031 36.152344 30.722656 35.914062 C 30.484375 35.671875 30.300781 35.421875 30.171875 35.152344 C 30.039062 34.886719 29.96875 34.625 29.960938 34.371094 C 29.953125 34.121094 30.007812 33.890625 30.121094 33.6875 C 30.238281 33.488281 30.410156 33.324219 30.632812 33.207031 C 30.859375 33.085938 31.117188 33.015625 31.414062 32.996094 C 31.710938 32.980469 32.023438 33.011719 32.347656 33.097656 C 32.671875 33.179688 32.984375 33.308594 33.289062 33.484375 Z M 33.289062 33.484375 " fill-opacity="1" fill-rule="nonzero"/><path fill="#253a84" d="M 36.222656 42.382812 L 39.152344 42.382812 C 39.804688 42.382812 40.328125 42.90625 40.328125 43.554688 L 40.328125 44.140625 C 40.328125 45.601562 39.144531 46.78125 37.6875 46.78125 C 36.230469 46.78125 35.046875 45.601562 35.046875 44.140625 L 35.046875 43.554688 C 35.046875 42.90625 35.570312 42.382812 36.222656 42.382812 Z M 36.222656 42.382812 " fill-opacity="1" fill-rule="nonzero"/><path fill="#f0ffff" d="M 30.648438 40.328125 C 31.132812 40.328125 31.527344 40.722656 31.527344 41.207031 C 31.527344 41.691406 31.132812 42.085938 30.648438 42.085938 C 30.164062 42.085938 29.765625 41.691406 29.765625 41.207031 C 29.765625 40.722656 30.164062 40.328125 30.648438 40.328125 " fill-opacity="1" fill-rule="nonzero"/></svg>