<svg xmlns="http://www.w3.org/2000/svg" xmlns:xlink="http://www.w3.org/1999/xlink" width="100" zoomAndPan="magnify" viewBox="0 0 75 74.999997" height="100" preserveAspectRatio="xMidYMid meet" version="1.0"><defs><clipPath id="0274d08a54"><path d="M 55 2.585938 L 72.335938 2.585938 L 72.335938 21 L 55 21 Z M 55 2.585938 " clip-rule="nonzero"/></clipPath><clipPath id="419dc03e31"><path d="M 41 2.585938 L 72.335938 2.585938 L 72.335938 28 L 41 28 Z M 41 2.585938 " clip-rule="nonzero"/></clipPath><clipPath id="6a13b19c7e"><path d="M 41 2.585938 L 72.335938 2.585938 L 72.335938 31 L 41 31 Z M 41 2.585938 " clip-rule="nonzero"/></clipPath><clipPath id="62c1ed3440"><path d="M 2.585938 55 L 21 55 L 21 72.335938 L 2.585938 72.335938 Z M 2.585938 55 " clip-rule="nonzero"/></clipPath><clipPath id="c7b8dd4e78"><path d="M 2.585938 41 L 28 41 L 28 72.335938 L 2.585938 72.335938 Z M 2.585938 41 " clip-rule="nonzero"/></clipPath><clipPath id="e98f03134a"><path d="M 2.585938 41 L 31 41 L 31 72.335938 L 2.585938 72.335938 Z M 2.585938 41 " clip-rule="nonzero"/></clipPath><clipPath id="941c302367"><path d="M 28 2.585938 L 71 2.585938 L 71 41 L 28 41 Z M 28 2.585938 " clip-rule="nonzero"/></clipPath></defs><path fill="#ee2479" d="M 61.882812 20.039062 C 61.328125 20.039062 60.8125 19.988281 60.351562 19.882812 C 58.230469 19.414062 56.949219 17.988281 56.542969 15.652344 C 56.316406 14.367188 56.382812 12.972656 56.46875 11.90625 C 56.667969 9.378906 57.007812 5.148438 60.304688 3.691406 C 60.902344 3.425781 61.414062 3.296875 61.867188 3.296875 C 62.496094 3.296875 63.003906 3.542969 63.34375 4.015625 C 64 4.945312 63.835938 6.578125 63.554688 7.84375 C 64.234375 7.464844 65.058594 7.121094 65.832031 7.121094 C 66.546875 7.121094 67.136719 7.410156 67.535156 7.960938 C 68.5625 9.375 67.613281 11.199219 66.800781 12.320312 C 68.851562 12.410156 71.527344 12.890625 71.683594 14.757812 C 71.730469 15.324219 71.476562 15.917969 70.925781 16.515625 C 69.199219 18.394531 64.96875 20.039062 61.882812 20.039062 " fill-opacity="1" fill-rule="nonzero"/><g clip-path="url(#0274d08a54)"><path fill="#171121" d="M 61.871094 2.683594 L 61.867188 2.683594 C 61.328125 2.683594 60.734375 2.828125 60.054688 3.125 C 56.425781 4.734375 56.070312 9.191406 55.859375 11.855469 C 55.769531 12.960938 55.699219 14.402344 55.9375 15.761719 C 56.503906 19 58.578125 20.113281 60.21875 20.480469 C 60.722656 20.59375 61.28125 20.648438 61.882812 20.648438 C 65.113281 20.648438 69.550781 18.910156 71.375 16.929688 C 72.046875 16.195312 72.355469 15.453125 72.292969 14.710938 C 72.15625 13.078125 70.640625 12.078125 67.878906 11.785156 C 68.566406 10.554688 69.023438 8.96875 68.03125 7.601562 C 67.515625 6.894531 66.738281 6.507812 65.832031 6.507812 C 65.335938 6.507812 64.832031 6.625 64.355469 6.800781 C 64.480469 5.664062 64.414062 4.472656 63.839844 3.664062 C 63.390625 3.03125 62.691406 2.683594 61.871094 2.683594 Z M 61.867188 3.90625 C 64.390625 3.90625 62.515625 9.296875 62.515625 9.296875 C 62.515625 9.296875 64.375 7.730469 65.832031 7.730469 C 66.300781 7.730469 66.730469 7.890625 67.039062 8.320312 C 68.320312 10.082031 65.507812 12.917969 65.507812 12.917969 C 65.507812 12.917969 65.679688 12.910156 65.960938 12.910156 C 67.261719 12.910156 70.929688 13.066406 71.074219 14.808594 C 71.230469 16.691406 65.78125 19.425781 61.882812 19.425781 C 61.382812 19.425781 60.914062 19.382812 60.484375 19.289062 C 58.328125 18.808594 57.449219 17.3125 57.144531 15.546875 C 56.9375 14.394531 56.984375 13.125 57.078125 11.957031 C 57.292969 9.246094 57.667969 5.523438 60.550781 4.246094 C 61.085938 4.011719 61.519531 3.90625 61.867188 3.90625 " fill-opacity="1" fill-rule="nonzero"/></g><g clip-path="url(#419dc03e31)"><path stroke-linecap="round" transform="matrix(0.0377053, 0, 0, -0.0377053, -27.458181, 621.076172)" fill="none" stroke-linejoin="miter" d="M 2324.385847 16299.96151 C 2324.385847 16299.96151 2303.251576 16251.995004 2291.752047 16196.983741 " stroke="#171121" stroke-width="32.426998" stroke-opacity="1" stroke-miterlimit="10"/></g><g clip-path="url(#6a13b19c7e)"><path stroke-linecap="round" transform="matrix(0.0373783, 0, 0, -0.0373783, -27.458181, 621.076172)" fill="none" stroke-linejoin="miter" d="M 2297.068988 16260.951006 L 2300.935704 16300.036188 " stroke="#171121" stroke-width="32.708" stroke-opacity="1" stroke-miterlimit="10"/></g><path fill="#f4f3f3" d="M 64.210938 14.839844 C 63.035156 15.441406 60.773438 16.789062 61.523438 17.523438 C 62.371094 18.347656 70.585938 16.640625 69.636719 14.898438 C 68.738281 13.25 66.097656 14.070312 64.804688 14.566406 C 64.695312 14.605469 64.480469 14.703125 64.210938 14.839844 " fill-opacity="1" fill-rule="nonzero"/><path fill="#ee2479" d="M 14.953125 71.625 C 14.910156 71.625 14.867188 71.625 14.824219 71.621094 C 12.882812 71.460938 12.449219 68.585938 12.371094 66.753906 C 11.605469 67.3125 10.515625 67.925781 9.449219 67.925781 C 8.914062 67.925781 8.433594 67.773438 8.023438 67.472656 C 7.554688 67.132812 7.269531 66.644531 7.199219 66.070312 C 7.097656 65.210938 7.480469 64.25 7.910156 63.484375 C 7.28125 63.625 6.554688 63.734375 5.886719 63.734375 C 4.789062 63.734375 4.035156 63.425781 3.640625 62.824219 C 3.234375 62.199219 3.269531 61.328125 3.75 60.238281 C 5.210938 56.941406 9.441406 56.605469 11.96875 56.402344 C 12.660156 56.347656 13.222656 56.324219 13.757812 56.324219 C 14.488281 56.324219 15.132812 56.375 15.71875 56.476562 C 18.054688 56.886719 19.476562 58.167969 19.945312 60.289062 C 20.613281 63.273438 19.027344 67.910156 17.1875 70.199219 C 16.429688 71.148438 15.675781 71.625 14.953125 71.625 " fill-opacity="1" fill-rule="nonzero"/><g clip-path="url(#62c1ed3440)"><path fill="#171121" d="M 13.753906 55.714844 C 13.207031 55.714844 12.625 55.742188 11.917969 55.800781 C 9.257812 56.011719 4.796875 56.363281 3.191406 60 C 2.621094 61.289062 2.601562 62.347656 3.125 63.160156 C 3.640625 63.949219 4.566406 64.351562 5.882812 64.351562 C 6.203125 64.351562 6.535156 64.328125 6.863281 64.285156 C 6.644531 64.886719 6.519531 65.527344 6.589844 66.148438 C 6.683594 66.898438 7.054688 67.527344 7.664062 67.972656 C 8.183594 68.347656 8.78125 68.539062 9.449219 68.539062 C 10.292969 68.539062 11.132812 68.214844 11.851562 67.8125 C 11.875 67.988281 11.894531 68.167969 11.921875 68.347656 C 12.386719 71.402344 13.730469 72.148438 14.769531 72.234375 C 14.832031 72.242188 14.890625 72.242188 14.949219 72.242188 C 15.871094 72.242188 16.785156 71.683594 17.667969 70.582031 C 19.589844 68.1875 21.246094 63.316406 20.542969 60.160156 C 20.179688 58.519531 19.066406 56.445312 15.824219 55.882812 C 15.199219 55.769531 14.523438 55.714844 13.753906 55.714844 Z M 13.753906 56.9375 C 14.382812 56.9375 15.011719 56.980469 15.613281 57.085938 C 17.375 57.386719 18.871094 58.269531 19.347656 60.421875 C 20.1875 64.199219 17.074219 71.019531 14.949219 71.019531 C 14.925781 71.019531 14.898438 71.015625 14.871094 71.015625 C 12.75 70.839844 12.980469 65.449219 12.980469 65.449219 C 12.980469 65.449219 11.097656 67.316406 9.449219 67.316406 C 9.074219 67.316406 8.710938 67.21875 8.382812 66.984375 C 6.621094 65.703125 9.359375 62.457031 9.359375 62.457031 C 9.359375 62.457031 7.433594 63.125 5.882812 63.125 C 4.484375 63.125 3.386719 62.578125 4.308594 60.492188 C 5.582031 57.609375 9.308594 57.234375 12.015625 57.019531 C 12.582031 56.972656 13.167969 56.9375 13.753906 56.9375 " fill-opacity="1" fill-rule="nonzero"/></g><g clip-path="url(#c7b8dd4e78)"><path stroke-linecap="round" transform="matrix(0.0344899, 0, 0, -0.0344899, -27.458181, 621.076172)" fill="none" stroke-linejoin="miter" d="M 986.396162 16264.000638 C 986.396162 16264.000638 1038.608042 16288.011307 1098.861231 16300.016642 " stroke="#171121" stroke-width="35.448002" stroke-opacity="1" stroke-miterlimit="10"/></g><g clip-path="url(#e98f03134a)"><path stroke-linecap="round" transform="matrix(0.0345235, 0, 0, -0.0345235, -27.458181, 621.076172)" fill="none" stroke-linejoin="miter" d="M 1180.388839 16299.983564 L 1138.637383 16296.023399 " stroke="#171121" stroke-width="35.414001" stroke-opacity="1" stroke-miterlimit="10"/></g><path fill="#f4f3f3" d="M 14.90625 64.148438 C 15.5 62.972656 16.847656 60.710938 17.582031 61.460938 C 18.40625 62.308594 16.707031 70.523438 14.957031 69.574219 C 13.308594 68.679688 14.132812 66.039062 14.628906 64.742188 C 14.667969 64.636719 14.765625 64.421875 14.90625 64.148438 " fill-opacity="1" fill-rule="nonzero"/><path fill="#fcda94" d="M 58.929688 27.089844 C 58.773438 27.089844 58.617188 27.03125 58.496094 26.910156 L 48.566406 16.984375 C 48.453125 16.867188 48.386719 16.710938 48.386719 16.550781 C 48.386719 16.390625 48.453125 16.230469 48.566406 16.117188 L 52.617188 12.070312 C 52.734375 11.949219 52.890625 11.886719 53.046875 11.886719 C 53.203125 11.886719 53.359375 11.949219 53.480469 12.070312 L 63.410156 22 C 63.527344 22.117188 63.589844 22.269531 63.589844 22.433594 C 63.589844 22.59375 63.527344 22.75 63.410156 22.863281 L 59.363281 26.910156 C 59.242188 27.03125 59.085938 27.089844 58.929688 27.089844 " fill-opacity="1" fill-rule="nonzero"/><path fill="#171121" d="M 53.046875 11.285156 C 52.734375 11.285156 52.421875 11.402344 52.183594 11.640625 L 48.136719 15.6875 C 47.90625 15.917969 47.773438 16.226562 47.773438 16.554688 C 47.773438 16.875 47.90625 17.1875 48.136719 17.417969 L 58.0625 27.34375 C 58.304688 27.585938 58.617188 27.707031 58.929688 27.707031 C 59.242188 27.707031 59.554688 27.585938 59.792969 27.34375 L 63.84375 23.296875 C 64.074219 23.070312 64.199219 22.761719 64.199219 22.433594 C 64.199219 22.109375 64.074219 21.796875 63.84375 21.570312 L 53.914062 11.640625 C 53.675781 11.402344 53.359375 11.285156 53.046875 11.285156 Z M 53.046875 12.507812 L 62.976562 22.433594 L 58.929688 26.484375 L 48.996094 16.554688 L 53.046875 12.507812 " fill-opacity="1" fill-rule="nonzero"/><path fill="#7bd4f1" d="M 54.882812 31.136719 C 54.726562 31.136719 54.566406 31.082031 54.449219 30.960938 L 44.515625 21.03125 C 44.28125 20.792969 44.28125 20.40625 44.515625 20.167969 L 48.566406 16.117188 C 48.6875 16 48.84375 15.941406 48.996094 15.941406 C 49.15625 15.941406 49.3125 16 49.433594 16.117188 L 59.363281 26.050781 C 59.476562 26.164062 59.539062 26.320312 59.539062 26.480469 C 59.539062 26.640625 59.476562 26.796875 59.363281 26.914062 L 55.3125 30.960938 C 55.195312 31.082031 55.039062 31.136719 54.882812 31.136719 " fill-opacity="1" fill-rule="nonzero"/><path fill="#171121" d="M 48.996094 15.328125 C 48.6875 15.328125 48.375 15.445312 48.136719 15.683594 L 44.085938 19.734375 C 43.609375 20.210938 43.609375 20.984375 44.085938 21.460938 L 54.015625 31.390625 C 54.253906 31.628906 54.566406 31.75 54.882812 31.75 C 55.195312 31.75 55.503906 31.628906 55.742188 31.390625 L 59.792969 27.34375 C 60.023438 27.117188 60.152344 26.804688 60.152344 26.480469 C 60.152344 26.15625 60.023438 25.84375 59.792969 25.617188 L 49.863281 15.683594 C 49.625 15.445312 49.3125 15.328125 48.996094 15.328125 Z M 48.996094 16.550781 L 58.929688 26.480469 L 54.882812 30.527344 L 44.949219 20.597656 L 48.996094 16.550781 " fill-opacity="1" fill-rule="nonzero"/><path fill="#f9ad43" d="M 50.832031 35.191406 C 50.667969 35.191406 50.515625 35.128906 50.402344 35.015625 L 40.46875 25.082031 C 40.355469 24.96875 40.289062 24.816406 40.289062 24.652344 C 40.289062 24.492188 40.355469 24.332031 40.46875 24.21875 L 44.515625 20.171875 C 44.640625 20.050781 44.796875 19.992188 44.949219 19.992188 C 45.105469 19.992188 45.261719 20.050781 45.382812 20.171875 L 55.3125 30.097656 C 55.550781 30.335938 55.550781 30.726562 55.3125 30.964844 L 51.261719 35.015625 C 51.148438 35.128906 50.992188 35.191406 50.832031 35.191406 " fill-opacity="1" fill-rule="nonzero"/><path fill="#171121" d="M 44.949219 19.378906 C 44.640625 19.378906 44.328125 19.496094 44.085938 19.738281 L 40.035156 23.785156 C 39.808594 24.015625 39.679688 24.324219 39.679688 24.648438 C 39.679688 24.972656 39.808594 25.285156 40.035156 25.511719 L 49.964844 35.441406 C 50.195312 35.671875 50.507812 35.800781 50.832031 35.800781 C 51.15625 35.800781 51.46875 35.671875 51.695312 35.441406 L 55.742188 31.390625 C 56.222656 30.917969 56.222656 30.140625 55.742188 29.664062 L 45.816406 19.738281 C 45.578125 19.496094 45.261719 19.378906 44.949219 19.378906 Z M 44.949219 20.601562 L 54.882812 30.53125 L 50.832031 34.582031 L 40.902344 24.648438 L 44.949219 20.601562 " fill-opacity="1" fill-rule="nonzero"/><path fill="#fcda94" d="M 46.785156 39.238281 C 46.621094 39.238281 46.46875 39.171875 46.351562 39.058594 L 36.421875 29.128906 C 36.183594 28.890625 36.183594 28.5 36.421875 28.261719 L 40.46875 24.214844 C 40.582031 24.101562 40.738281 24.035156 40.902344 24.035156 C 41.066406 24.035156 41.222656 24.101562 41.335938 24.214844 L 51.265625 34.144531 C 51.378906 34.257812 51.441406 34.414062 51.441406 34.578125 C 51.441406 34.738281 51.378906 34.894531 51.265625 35.007812 L 47.214844 39.058594 C 47.101562 39.171875 46.945312 39.238281 46.785156 39.238281 " fill-opacity="1" fill-rule="nonzero"/><path fill="#171121" d="M 40.902344 23.425781 C 40.578125 23.425781 40.269531 23.550781 40.039062 23.78125 L 35.992188 27.832031 C 35.511719 28.308594 35.511719 29.082031 35.992188 29.558594 L 45.917969 39.488281 C 46.148438 39.71875 46.460938 39.847656 46.785156 39.847656 C 47.109375 39.847656 47.421875 39.71875 47.648438 39.488281 L 51.695312 35.4375 C 51.925781 35.210938 52.054688 34.898438 52.054688 34.578125 C 52.054688 34.25 51.925781 33.9375 51.695312 33.710938 L 41.765625 23.78125 C 41.535156 23.550781 41.226562 23.425781 40.902344 23.425781 Z M 40.902344 24.644531 L 50.832031 34.578125 L 46.785156 38.625 L 36.855469 28.695312 L 40.902344 24.644531 " fill-opacity="1" fill-rule="nonzero"/><path fill="#7bd4f1" d="M 42.734375 43.285156 C 42.574219 43.285156 42.417969 43.222656 42.304688 43.109375 L 32.375 33.179688 C 32.261719 33.0625 32.191406 32.910156 32.191406 32.746094 C 32.191406 32.585938 32.261719 32.429688 32.375 32.3125 L 36.421875 28.265625 C 36.542969 28.144531 36.699219 28.089844 36.855469 28.089844 C 37.011719 28.089844 37.164062 28.144531 37.285156 28.265625 L 47.214844 38.195312 C 47.453125 38.429688 47.453125 38.824219 47.214844 39.058594 L 43.167969 43.109375 C 43.054688 43.222656 42.898438 43.285156 42.734375 43.285156 " fill-opacity="1" fill-rule="nonzero"/><path fill="#171121" d="M 36.855469 27.472656 C 36.542969 27.472656 36.226562 27.59375 35.992188 27.832031 L 31.941406 31.882812 C 31.714844 32.109375 31.582031 32.417969 31.582031 32.742188 C 31.582031 33.070312 31.714844 33.382812 31.941406 33.609375 L 41.871094 43.539062 C 42.097656 43.769531 42.410156 43.898438 42.734375 43.898438 C 43.058594 43.898438 43.371094 43.769531 43.601562 43.539062 L 47.648438 39.492188 C 48.125 39.015625 48.125 38.238281 47.648438 37.761719 L 37.71875 27.832031 C 37.480469 27.59375 37.167969 27.472656 36.855469 27.472656 Z M 36.855469 28.695312 L 46.78125 38.625 L 42.734375 42.675781 L 32.804688 32.742188 L 36.855469 28.695312 " fill-opacity="1" fill-rule="nonzero"/><path fill="#f9ad43" d="M 38.6875 47.332031 C 38.527344 47.332031 38.371094 47.269531 38.257812 47.15625 L 28.328125 37.222656 C 28.089844 36.984375 28.089844 36.597656 28.328125 36.359375 L 32.375 32.3125 C 32.488281 32.199219 32.640625 32.132812 32.804688 32.132812 C 32.96875 32.132812 33.121094 32.199219 33.238281 32.3125 L 43.167969 42.238281 C 43.40625 42.480469 43.40625 42.867188 43.167969 43.105469 L 39.121094 47.15625 C 39.007812 47.269531 38.851562 47.332031 38.6875 47.332031 " fill-opacity="1" fill-rule="nonzero"/><path fill="#171121" d="M 32.804688 31.523438 C 32.480469 31.523438 32.171875 31.65625 31.941406 31.882812 L 27.890625 35.929688 C 27.414062 36.40625 27.414062 37.179688 27.890625 37.65625 L 37.824219 47.589844 C 38.050781 47.816406 38.363281 47.949219 38.6875 47.949219 C 39.011719 47.949219 39.320312 47.816406 39.550781 47.589844 L 43.601562 43.539062 C 44.078125 43.0625 44.078125 42.289062 43.601562 41.808594 L 33.667969 31.882812 C 33.441406 31.65625 33.128906 31.523438 32.804688 31.523438 Z M 32.804688 32.746094 L 42.734375 42.675781 L 38.6875 46.726562 L 28.757812 36.792969 L 32.804688 32.746094 " fill-opacity="1" fill-rule="nonzero"/><path fill="#fcda94" d="M 34.636719 51.382812 C 34.480469 51.382812 34.328125 51.324219 34.207031 51.203125 L 24.277344 41.273438 C 24.164062 41.160156 24.097656 41.003906 24.097656 40.84375 C 24.097656 40.679688 24.164062 40.523438 24.277344 40.410156 L 28.328125 36.363281 C 28.441406 36.246094 28.59375 36.183594 28.757812 36.183594 C 28.917969 36.183594 29.074219 36.246094 29.191406 36.363281 L 39.117188 46.289062 C 39.234375 46.40625 39.300781 46.558594 39.300781 46.722656 C 39.300781 46.886719 39.234375 47.042969 39.117188 47.15625 L 35.070312 51.203125 C 34.953125 51.324219 34.792969 51.382812 34.636719 51.382812 " fill-opacity="1" fill-rule="nonzero"/><path fill="#171121" d="M 28.757812 35.570312 C 28.433594 35.570312 28.121094 35.699219 27.890625 35.929688 L 23.84375 39.976562 C 23.617188 40.207031 23.488281 40.515625 23.488281 40.839844 C 23.488281 41.167969 23.617188 41.476562 23.84375 41.703125 L 33.773438 51.640625 C 34.011719 51.875 34.328125 51.992188 34.636719 51.992188 C 34.953125 51.992188 35.265625 51.875 35.503906 51.640625 L 39.554688 47.589844 C 39.78125 47.359375 39.910156 47.046875 39.910156 46.722656 C 39.910156 46.398438 39.78125 46.089844 39.554688 45.859375 L 29.621094 35.929688 C 29.394531 35.699219 29.082031 35.570312 28.757812 35.570312 Z M 28.757812 36.789062 L 38.6875 46.722656 L 34.636719 50.769531 L 24.710938 40.839844 L 28.757812 36.789062 " fill-opacity="1" fill-rule="nonzero"/><path fill="#7bd4f1" d="M 30.589844 55.429688 C 30.429688 55.429688 30.273438 55.367188 30.15625 55.25 L 20.230469 45.320312 C 20.113281 45.203125 20.050781 45.046875 20.050781 44.890625 C 20.050781 44.726562 20.113281 44.570312 20.230469 44.457031 L 24.277344 40.40625 C 24.394531 40.289062 24.550781 40.230469 24.710938 40.230469 C 24.867188 40.230469 25.023438 40.289062 25.140625 40.40625 L 35.074219 50.335938 C 35.3125 50.574219 35.3125 50.964844 35.074219 51.203125 L 31.023438 55.25 C 30.910156 55.367188 30.753906 55.429688 30.589844 55.429688 " fill-opacity="1" fill-rule="nonzero"/><path fill="#171121" d="M 24.710938 39.621094 C 24.394531 39.621094 24.085938 39.738281 23.84375 39.976562 L 19.796875 44.023438 C 19.566406 44.253906 19.4375 44.570312 19.4375 44.894531 C 19.4375 45.214844 19.566406 45.527344 19.796875 45.753906 L 29.726562 55.6875 C 29.957031 55.914062 30.265625 56.042969 30.589844 56.042969 C 30.914062 56.042969 31.226562 55.914062 31.457031 55.6875 L 35.503906 51.640625 C 35.980469 51.160156 35.980469 50.386719 35.503906 49.910156 L 25.574219 39.976562 C 25.335938 39.738281 25.023438 39.621094 24.710938 39.621094 Z M 24.710938 40.84375 L 34.636719 50.769531 L 30.589844 54.820312 L 20.660156 44.894531 L 24.710938 40.84375 " fill-opacity="1" fill-rule="nonzero"/><path fill="#f9ad43" d="M 26.542969 59.480469 C 26.386719 59.480469 26.230469 59.421875 26.109375 59.300781 L 16.179688 49.371094 C 15.941406 49.128906 15.941406 48.746094 16.179688 48.503906 L 20.230469 44.457031 C 20.34375 44.34375 20.5 44.277344 20.660156 44.277344 C 20.824219 44.277344 20.980469 44.34375 21.089844 44.457031 L 31.023438 54.390625 C 31.136719 54.503906 31.203125 54.660156 31.203125 54.820312 C 31.203125 54.984375 31.136719 55.136719 31.023438 55.25 L 26.976562 59.300781 C 26.855469 59.421875 26.699219 59.480469 26.542969 59.480469 " fill-opacity="1" fill-rule="nonzero"/><path fill="#171121" d="M 20.660156 43.664062 C 20.335938 43.664062 20.023438 43.792969 19.796875 44.023438 L 15.75 48.070312 C 15.269531 48.550781 15.269531 49.320312 15.75 49.800781 L 25.675781 59.730469 C 25.914062 59.972656 26.230469 60.085938 26.542969 60.085938 C 26.855469 60.085938 27.167969 59.972656 27.40625 59.730469 L 31.457031 55.683594 C 31.6875 55.453125 31.8125 55.144531 31.8125 54.816406 C 31.8125 54.492188 31.6875 54.183594 31.457031 53.953125 L 21.527344 44.023438 C 21.296875 43.792969 20.984375 43.664062 20.660156 43.664062 Z M 20.660156 44.886719 L 30.589844 54.816406 L 26.542969 58.863281 L 16.613281 48.9375 L 20.660156 44.886719 " fill-opacity="1" fill-rule="nonzero"/><path fill="#fcda94" d="M 22.496094 63.527344 C 22.335938 63.527344 22.179688 63.46875 22.0625 63.351562 L 12.128906 53.421875 C 12.015625 53.308594 11.953125 53.152344 11.953125 52.988281 C 11.953125 52.828125 12.015625 52.671875 12.128906 52.554688 L 16.179688 48.507812 C 16.292969 48.394531 16.449219 48.328125 16.609375 48.328125 C 16.773438 48.328125 16.929688 48.394531 17.042969 48.507812 L 26.976562 58.441406 C 27.214844 58.679688 27.214844 59.0625 26.976562 59.300781 L 22.925781 63.351562 C 22.804688 63.46875 22.652344 63.527344 22.496094 63.527344 " fill-opacity="1" fill-rule="nonzero"/><path fill="#171121" d="M 16.613281 47.71875 C 16.285156 47.71875 15.976562 47.84375 15.75 48.074219 L 11.699219 52.125 C 11.46875 52.355469 11.339844 52.664062 11.339844 52.988281 C 11.339844 53.3125 11.46875 53.621094 11.699219 53.851562 L 21.628906 63.78125 C 21.867188 64.019531 22.179688 64.140625 22.496094 64.140625 C 22.804688 64.140625 23.117188 64.019531 23.355469 63.78125 L 27.40625 59.730469 C 27.882812 59.257812 27.882812 58.484375 27.40625 58.003906 L 17.480469 48.074219 C 17.246094 47.84375 16.9375 47.71875 16.613281 47.71875 Z M 16.613281 48.941406 L 26.542969 58.871094 L 22.496094 62.917969 L 12.5625 52.988281 L 16.613281 48.941406 " fill-opacity="1" fill-rule="nonzero"/><g clip-path="url(#941c302367)"><path stroke-linecap="round" transform="matrix(0.037094, 0, 0, -0.037094, -27.458181, 621.076172)" fill="none" stroke-linejoin="miter" d="M 2166.715862 16300.051876 L 1981.481418 16115.028045 " stroke="#171121" stroke-width="32.958" stroke-opacity="1" stroke-miterlimit="10"/></g><path stroke-linecap="round" transform="matrix(0.0365989, 0, 0, -0.0365989, -27.458181, 621.076172)" fill="none" stroke-linejoin="miter" d="M 1974.882553 16299.966424 L 1864.30882 16188.965765 " stroke="#171121" stroke-width="33.405998" stroke-opacity="1" stroke-miterlimit="10"/></svg>