<svg xmlns="http://www.w3.org/2000/svg" xmlns:xlink="http://www.w3.org/1999/xlink" width="500" zoomAndPan="magnify" viewBox="0 0 375 131.249995" height="175" preserveAspectRatio="xMidYMid meet" version="1.0"><defs><clipPath id="3b982ac1c7"><path d="M 4.339844 4.582031 L 356 4.582031 L 356 112 L 4.339844 112 Z M 4.339844 4.582031 " clip-rule="nonzero"/></clipPath><clipPath id="e22a98674e"><path d="M 64 107 L 81 107 L 81 126.136719 L 64 126.136719 Z M 64 107 " clip-rule="nonzero"/></clipPath><clipPath id="7fc1659415"><path d="M 81 107 L 99 107 L 99 126.136719 L 81 126.136719 Z M 81 107 " clip-rule="nonzero"/></clipPath><clipPath id="b239739b96"><path d="M 99 107 L 116 107 L 116 126.136719 L 99 126.136719 Z M 99 107 " clip-rule="nonzero"/></clipPath><clipPath id="4fc8aa2e8d"><path d="M 351 68 L 370.496094 68 L 370.496094 86 L 351 86 Z M 351 68 " clip-rule="nonzero"/></clipPath><clipPath id="0354662dc7"><path d="M 351 51 L 370.496094 51 L 370.496094 69 L 351 69 Z M 351 51 " clip-rule="nonzero"/></clipPath><clipPath id="c8e267c289"><path d="M 351 34 L 370.496094 34 L 370.496094 51 L 351 51 Z M 351 34 " clip-rule="nonzero"/></clipPath></defs><path fill="#99dcff" d="M 13.253906 6.222656 L 346.570312 6.222656 C 350.605469 6.222656 353.917969 9.539062 353.917969 13.601562 L 353.917969 102.308594 C 353.917969 106.355469 350.605469 109.675781 346.570312 109.675781 L 13.253906 109.675781 C 9.21875 109.675781 5.90625 106.355469 5.90625 102.308594 L 5.90625 13.601562 C 5.90625 9.539062 9.21875 6.222656 13.253906 6.222656 Z M 13.253906 6.222656 " fill-opacity="1" fill-rule="evenodd"/><g clip-path="url(#3b982ac1c7)"><path fill="#5c3624" d="M 13.253906 4.648438 L 42.808594 4.648438 L 42.808594 7.792969 L 13.253906 7.792969 C 11.671875 7.792969 10.222656 8.445312 9.171875 9.496094 C 8.125 10.546875 7.472656 12 7.472656 13.601562 L 7.472656 102.308594 C 7.472656 103.894531 8.125 105.347656 9.171875 106.398438 C 10.222656 107.449219 11.671875 108.101562 13.253906 108.101562 L 346.570312 108.101562 C 348.152344 108.101562 349.601562 107.449219 350.648438 106.398438 C 351.699219 105.347656 352.351562 103.894531 352.351562 102.308594 L 352.351562 13.601562 C 352.351562 12 351.699219 10.546875 350.648438 9.496094 C 349.601562 8.445312 348.152344 7.792969 346.570312 7.792969 L 62.710938 7.792969 L 62.710938 4.648438 L 346.570312 4.648438 C 349.023438 4.648438 351.253906 5.65625 352.867188 7.273438 C 354.480469 8.902344 355.484375 11.140625 355.484375 13.601562 L 355.484375 102.308594 C 355.484375 104.769531 354.480469 106.992188 352.867188 108.621094 C 351.253906 110.238281 349.023438 111.242188 346.570312 111.242188 L 13.253906 111.242188 C 10.800781 111.242188 8.566406 110.238281 6.957031 108.621094 C 5.34375 106.992188 4.339844 104.769531 4.339844 102.308594 L 4.339844 13.601562 C 4.339844 11.140625 5.34375 8.902344 6.957031 7.273438 C 8.566406 5.65625 10.800781 4.648438 13.253906 4.648438 Z M 56.191406 7.792969 L 49.316406 7.792969 L 49.316406 4.648438 L 56.191406 4.648438 Z M 56.191406 7.792969 " fill-opacity="1" fill-rule="nonzero"/></g><path fill="#fffbf3" d="M 20.453125 13.230469 L 353.769531 13.230469 C 357.804688 13.230469 361.117188 16.550781 361.117188 20.59375 L 361.117188 109.304688 C 361.117188 113.363281 357.804688 116.683594 353.769531 116.683594 L 20.453125 116.683594 C 16.417969 116.683594 13.105469 113.363281 13.105469 109.304688 L 13.105469 20.59375 C 13.105469 16.550781 16.417969 13.230469 20.453125 13.230469 Z M 20.453125 13.230469 " fill-opacity="1" fill-rule="evenodd"/><path fill="#5c3624" d="M 20.453125 11.660156 L 226.257812 11.660156 L 226.257812 14.800781 L 20.453125 14.800781 C 18.871094 14.800781 17.421875 15.453125 16.375 16.503906 C 15.324219 17.558594 14.671875 19.011719 14.671875 20.597656 L 14.671875 109.304688 C 14.671875 110.90625 15.324219 112.355469 16.375 113.410156 C 17.421875 114.460938 18.871094 115.113281 20.453125 115.113281 L 353.769531 115.113281 C 355.351562 115.113281 356.800781 114.460938 357.851562 113.410156 C 358.898438 112.355469 359.550781 110.90625 359.550781 109.304688 L 359.550781 20.597656 C 359.550781 19.011719 358.898438 17.558594 357.851562 16.503906 C 356.800781 15.453125 355.351562 14.800781 353.769531 14.800781 L 246.171875 14.800781 L 246.171875 11.660156 L 353.769531 11.660156 C 356.222656 11.660156 358.457031 12.667969 360.066406 14.28125 C 361.679688 15.898438 362.683594 18.136719 362.683594 20.59375 L 362.683594 109.304688 C 362.683594 111.761719 361.679688 114 360.066406 115.617188 C 358.457031 117.246094 356.222656 118.238281 353.769531 118.238281 L 20.453125 118.238281 C 18 118.238281 15.769531 117.246094 14.15625 115.617188 C 12.542969 114 11.539062 111.761719 11.539062 109.304688 L 11.539062 20.59375 C 11.539062 18.132812 12.542969 15.898438 14.15625 14.28125 C 15.769531 12.667969 18 11.660156 20.453125 11.660156 Z M 239.652344 14.800781 L 232.777344 14.800781 L 232.777344 11.660156 L 239.652344 11.660156 Z M 239.652344 14.800781 " fill-opacity="1" fill-rule="nonzero"/><path fill="#2b7dff" d="M 65.816406 116.683594 L 72.589844 112.757812 L 79.347656 108.84375 L 79.347656 124.507812 L 72.589844 120.597656 Z M 65.816406 116.683594 " fill-opacity="1" fill-rule="evenodd"/><g clip-path="url(#e22a98674e)"><path fill="#5c3624" d="M 65.0625 115.304688 L 71.804688 111.410156 L 78.5625 107.496094 C 79.316406 107.066406 80.261719 107.320312 80.691406 108.058594 C 80.839844 108.3125 80.914062 108.578125 80.914062 108.84375 L 80.914062 124.507812 C 80.914062 125.367188 80.203125 126.082031 79.34375 126.082031 C 79.019531 126.082031 78.722656 125.976562 78.472656 125.8125 L 71.804688 121.945312 C 71.777344 121.929688 71.746094 121.917969 71.714844 121.902344 L 65.03125 118.035156 C 64.292969 117.605469 64.042969 116.65625 64.472656 115.898438 C 64.605469 115.648438 64.828125 115.441406 65.0625 115.304688 Z M 73.359375 114.121094 L 68.9375 116.683594 L 73.285156 119.1875 C 73.3125 119.203125 73.328125 119.21875 73.359375 119.234375 L 77.777344 121.796875 L 77.777344 111.554688 Z M 78.472656 125.8125 C 78.058594 125.53125 77.777344 125.042969 77.777344 124.507812 " fill-opacity="1" fill-rule="nonzero"/></g><path fill="#2b7dff" d="M 83.191406 116.683594 L 89.960938 112.757812 L 96.71875 108.84375 L 96.71875 124.507812 L 89.960938 120.597656 Z M 83.191406 116.683594 " fill-opacity="1" fill-rule="evenodd"/><g clip-path="url(#7fc1659415)"><path fill="#5c3624" d="M 82.4375 115.304688 L 89.179688 111.410156 L 95.9375 107.496094 C 96.691406 107.066406 97.636719 107.320312 98.078125 108.058594 C 98.214844 108.3125 98.285156 108.578125 98.285156 108.84375 L 98.285156 124.507812 C 98.285156 125.367188 97.589844 126.082031 96.71875 126.082031 C 96.394531 126.082031 96.097656 125.976562 95.847656 125.8125 L 89.179688 121.945312 C 89.148438 121.929688 89.121094 121.917969 89.089844 121.902344 L 82.421875 118.035156 C 81.667969 117.605469 81.417969 116.65625 81.847656 115.898438 C 81.992188 115.648438 82.199219 115.441406 82.4375 115.304688 Z M 90.730469 114.121094 L 86.308594 116.683594 L 90.65625 119.1875 C 90.6875 119.203125 90.714844 119.21875 90.746094 119.234375 L 95.152344 121.796875 L 95.152344 111.554688 L 90.746094 114.117188 L 90.730469 114.117188 Z M 95.847656 125.8125 C 95.433594 125.53125 95.152344 125.042969 95.152344 124.507812 " fill-opacity="1" fill-rule="nonzero"/></g><path fill="#2b7dff" d="M 100.5625 116.683594 L 107.335938 112.757812 L 114.09375 108.84375 L 114.09375 124.507812 L 107.335938 120.597656 Z M 100.5625 116.683594 " fill-opacity="1" fill-rule="evenodd"/><g clip-path="url(#b239739b96)"><path fill="#5c3624" d="M 99.808594 115.304688 L 106.550781 111.410156 L 113.308594 107.496094 C 114.0625 107.066406 115.007812 107.320312 115.453125 108.058594 C 115.585938 108.3125 115.660156 108.578125 115.660156 108.84375 L 115.660156 124.507812 C 115.660156 125.367188 114.964844 126.082031 114.09375 126.082031 C 113.769531 126.082031 113.472656 125.976562 113.21875 125.8125 L 106.550781 121.945312 C 106.523438 121.929688 106.492188 121.917969 106.464844 121.902344 L 99.796875 118.035156 C 99.042969 117.605469 98.789062 116.65625 99.21875 115.898438 C 99.367188 115.648438 99.574219 115.441406 99.808594 115.304688 Z M 108.105469 114.121094 L 103.683594 116.683594 L 108.03125 119.1875 C 108.058594 119.203125 108.089844 119.21875 108.117188 119.234375 L 112.527344 121.796875 L 112.527344 111.554688 L 108.117188 114.117188 L 108.105469 114.117188 Z M 113.21875 125.8125 C 112.804688 125.53125 112.523438 125.042969 112.523438 124.507812 " fill-opacity="1" fill-rule="nonzero"/></g><path fill="#2b7dff" d="M 361.117188 84.097656 L 357.214844 77.308594 L 353.3125 70.535156 L 368.925781 70.535156 L 365.019531 77.308594 Z M 361.117188 84.097656 " fill-opacity="1" fill-rule="evenodd"/><g clip-path="url(#4fc8aa2e8d)"><path fill="#5c3624" d="M 359.757812 84.851562 L 355.871094 78.09375 L 351.953125 71.320312 C 351.523438 70.566406 351.773438 69.601562 352.527344 69.171875 C 352.78125 69.039062 353.046875 68.964844 353.3125 68.964844 L 368.925781 68.964844 C 369.800781 68.964844 370.496094 69.660156 370.496094 70.535156 C 370.496094 70.863281 370.40625 71.160156 370.230469 71.410156 L 366.382812 78.09375 C 366.367188 78.125 366.339844 78.152344 366.324219 78.183594 L 362.480469 84.867188 C 362.050781 85.621094 361.089844 85.875 360.351562 85.441406 C 360.082031 85.296875 359.890625 85.089844 359.757812 84.851562 Z M 358.558594 76.539062 L 361.117188 80.96875 L 363.632812 76.613281 C 363.648438 76.582031 363.660156 76.554688 363.675781 76.523438 L 366.21875 72.09375 L 356.019531 72.09375 L 358.5625 76.523438 L 358.5625 76.539062 Z M 370.226562 71.410156 C 369.945312 71.824219 369.472656 72.09375 368.925781 72.09375 " fill-opacity="1" fill-rule="nonzero"/></g><path fill="#2b7dff" d="M 361.117188 66.683594 L 357.214844 59.898438 L 353.3125 53.109375 L 368.925781 53.109375 L 365.019531 59.898438 Z M 361.117188 66.683594 " fill-opacity="1" fill-rule="evenodd"/><g clip-path="url(#0354662dc7)"><path fill="#5c3624" d="M 359.757812 67.4375 L 355.871094 60.679688 L 351.953125 53.894531 C 351.523438 53.152344 351.773438 52.191406 352.527344 51.761719 C 352.78125 51.613281 353.046875 51.554688 353.3125 51.554688 L 368.925781 51.554688 C 369.800781 51.554688 370.496094 52.25 370.496094 53.109375 C 370.496094 53.433594 370.40625 53.746094 370.230469 54 L 366.382812 60.679688 C 366.367188 60.710938 366.339844 60.742188 366.324219 60.753906 L 362.480469 67.453125 C 362.050781 68.210938 361.089844 68.460938 360.351562 68.03125 C 360.082031 67.882812 359.890625 67.675781 359.757812 67.4375 Z M 358.558594 59.125 L 361.117188 63.558594 L 363.632812 59.199219 C 363.648438 59.171875 363.660156 59.140625 363.675781 59.113281 L 366.21875 54.679688 L 356.019531 54.679688 L 358.5625 59.113281 L 358.5625 59.125 Z M 370.226562 54 C 369.945312 54.414062 369.472656 54.679688 368.925781 54.679688 " fill-opacity="1" fill-rule="nonzero"/></g><path fill="#2b7dff" d="M 361.117188 49.257812 L 357.214844 42.484375 L 353.3125 35.695312 L 368.925781 35.695312 L 365.019531 42.484375 Z M 361.117188 49.257812 " fill-opacity="1" fill-rule="evenodd"/><g clip-path="url(#c8e267c289)"><path fill="#5c3624" d="M 359.757812 50.027344 L 355.871094 43.269531 L 351.953125 36.480469 C 351.523438 35.742188 351.773438 34.777344 352.527344 34.347656 C 352.78125 34.199219 353.046875 34.140625 353.3125 34.140625 L 368.925781 34.140625 C 369.800781 34.140625 370.496094 34.835938 370.496094 35.695312 C 370.496094 36.023438 370.40625 36.332031 370.230469 36.585938 L 366.382812 43.269531 C 366.367188 43.296875 366.339844 43.3125 366.324219 43.34375 L 362.480469 50.042969 C 362.050781 50.78125 361.089844 51.050781 360.351562 50.621094 C 360.082031 50.472656 359.890625 50.261719 359.757812 50.027344 Z M 358.558594 41.699219 L 361.117188 46.144531 L 363.632812 41.789062 C 363.648438 41.757812 363.660156 41.730469 363.675781 41.699219 L 366.21875 37.269531 L 356.019531 37.269531 Z M 370.226562 36.585938 C 369.945312 37 369.472656 37.265625 368.925781 37.265625 " fill-opacity="1" fill-rule="nonzero"/></g></svg>