<svg xmlns="http://www.w3.org/2000/svg" xmlns:xlink="http://www.w3.org/1999/xlink" width="100" zoomAndPan="magnify" viewBox="0 0 75 74.999997" height="100" preserveAspectRatio="xMidYMid meet" version="1.0"><defs><clipPath id="42a608be2b"><path d="M 1 2 L 75 2 L 75 73 L 1 73 Z M 1 2 " clip-rule="nonzero"/></clipPath><clipPath id="9ee44ef38f"><path d="M -7.003906 55.59375 L 39.917969 -10.429688 L 82.101562 19.546875 L 35.179688 85.574219 Z M -7.003906 55.59375 " clip-rule="nonzero"/></clipPath><clipPath id="40c7013f27"><path d="M -7.003906 55.59375 L 39.917969 -10.429688 L 82.101562 19.546875 L 35.179688 85.574219 Z M -7.003906 55.59375 " clip-rule="nonzero"/></clipPath><clipPath id="e50c9cd0c8"><path d="M -7.003906 55.59375 L 39.917969 -10.429688 L 82.101562 19.546875 L 35.179688 85.574219 Z M -7.003906 55.59375 " clip-rule="nonzero"/></clipPath><clipPath id="c8f8e20225"><path d="M -6.996094 55.585938 L 39.914062 -10.425781 L 82.132812 19.574219 L 35.21875 85.585938 Z M -6.996094 55.585938 " clip-rule="nonzero"/></clipPath><clipPath id="30cfc25219"><path d="M -6.996094 55.585938 L 39.914062 -10.421875 L 82.09375 19.554688 L 35.183594 85.5625 Z M -6.996094 55.585938 " clip-rule="nonzero"/></clipPath><clipPath id="7ad75b3a4a"><path d="M 36 22 L 43 22 L 43 49 L 36 49 Z M 36 22 " clip-rule="nonzero"/></clipPath><clipPath id="0678b093fe"><path d="M -7.003906 55.59375 L 39.917969 -10.429688 L 82.101562 19.546875 L 35.179688 85.574219 Z M -7.003906 55.59375 " clip-rule="nonzero"/></clipPath><clipPath id="5bf0c5ace1"><path d="M -7.003906 55.59375 L 39.917969 -10.429688 L 82.101562 19.546875 L 35.179688 85.574219 Z M -7.003906 55.59375 " clip-rule="nonzero"/></clipPath><clipPath id="bdd27a3fe4"><path d="M -7.003906 55.59375 L 39.917969 -10.429688 L 82.101562 19.546875 L 35.179688 85.574219 Z M -7.003906 55.59375 " clip-rule="nonzero"/></clipPath><clipPath id="6dba218ff3"><path d="M 27 30 L 54 30 L 54 41 L 27 41 Z M 27 30 " clip-rule="nonzero"/></clipPath><clipPath id="29c67d31cb"><path d="M -7.003906 55.59375 L 39.917969 -10.429688 L 82.101562 19.546875 L 35.179688 85.574219 Z M -7.003906 55.59375 " clip-rule="nonzero"/></clipPath><clipPath id="ed4509c2f6"><path d="M -7.003906 55.59375 L 39.917969 -10.429688 L 82.101562 19.546875 L 35.179688 85.574219 Z M -7.003906 55.59375 " clip-rule="nonzero"/></clipPath><clipPath id="9c44bee826"><path d="M -7.003906 55.59375 L 39.917969 -10.429688 L 82.101562 19.546875 L 35.179688 85.574219 Z M -7.003906 55.59375 " clip-rule="nonzero"/></clipPath><clipPath id="34e24e4875"><path d="M 30 27 L 40 27 L 40 53 L 30 53 Z M 30 27 " clip-rule="nonzero"/></clipPath><clipPath id="8dd5ffb26a"><path d="M -7.003906 55.59375 L 39.917969 -10.429688 L 82.101562 19.546875 L 35.179688 85.574219 Z M -7.003906 55.59375 " clip-rule="nonzero"/></clipPath><clipPath id="1488b61805"><path d="M -7.003906 55.59375 L 39.917969 -10.429688 L 82.101562 19.546875 L 35.179688 85.574219 Z M -7.003906 55.59375 " clip-rule="nonzero"/></clipPath><clipPath id="1b5d998d1e"><path d="M -7.003906 55.59375 L 39.917969 -10.429688 L 82.101562 19.546875 L 35.179688 85.574219 Z M -7.003906 55.59375 " clip-rule="nonzero"/></clipPath><clipPath id="24fb47e805"><path d="M 22 18 L 49 18 L 49 46 L 22 46 Z M 22 18 " clip-rule="nonzero"/></clipPath><clipPath id="00a5746b13"><path d="M -7.003906 55.59375 L 39.917969 -10.429688 L 82.101562 19.546875 L 35.179688 85.574219 Z M -7.003906 55.59375 " clip-rule="nonzero"/></clipPath><clipPath id="c91e5cf93f"><path d="M -7.003906 55.59375 L 39.917969 -10.429688 L 82.101562 19.546875 L 35.179688 85.574219 Z M -7.003906 55.59375 " clip-rule="nonzero"/></clipPath><clipPath id="8110af66fe"><path d="M -7.003906 55.59375 L 39.917969 -10.429688 L 82.101562 19.546875 L 35.179688 85.574219 Z M -7.003906 55.59375 " clip-rule="nonzero"/></clipPath></defs><g clip-path="url(#42a608be2b)"><g clip-path="url(#9ee44ef38f)"><g clip-path="url(#40c7013f27)"><g clip-path="url(#e50c9cd0c8)"><g clip-path="url(#c8f8e20225)"><g clip-path="url(#30cfc25219)"><path fill="#b2667f" d="M 12.519531 57.203125 C 12.519531 57.203125 7.5 71.054688 19.445312 72.839844 C 26.960938 73.960938 33.988281 64.257812 29.28125 55.890625 L 58.445312 32.519531 C 58.445312 32.519531 64.207031 42.675781 72.792969 32.59375 C 76.910156 27.757812 74.65625 16.890625 63.449219 17.875 C 63.449219 17.875 68.539062 8.746094 60.179688 4.066406 C 53.4375 0.292969 42.523438 6.265625 47.316406 17.714844 L 20.804688 40.558594 C 20.804688 40.558594 9.542969 31.300781 2.984375 41.570312 C -0.527344 47.074219 0.246094 57.445312 12.519531 57.203125 " fill-opacity="1" fill-rule="nonzero"/></g></g></g></g></g></g><g clip-path="url(#7ad75b3a4a)"><g clip-path="url(#0678b093fe)"><g clip-path="url(#5bf0c5ace1)"><g clip-path="url(#bdd27a3fe4)"><path fill="#fcfcac" d="M 41.417969 45.378906 C 40.445312 45.269531 39.484375 45.113281 38.535156 44.921875 C 38.15625 44.847656 37.78125 44.765625 37.410156 44.679688 C 37.671875 45.742188 38.113281 47.449219 38.542969 48.46875 L 39.320312 47.84375 L 42.285156 45.46875 C 41.996094 45.445312 41.707031 45.414062 41.417969 45.378906 Z M 41.375 22.835938 C 41.332031 25.867188 41.433594 29.652344 41.898438 33.773438 C 41.160156 33.53125 40.441406 33.277344 39.746094 33.019531 C 38.589844 32.59375 37.503906 32.164062 36.511719 31.746094 C 36.425781 30.234375 36.394531 28.683594 36.425781 27.101562 L 39.382812 24.554688 L 41.375 22.835938 " fill-opacity="1" fill-rule="nonzero"/></g></g></g></g><g clip-path="url(#6dba218ff3)"><g clip-path="url(#29c67d31cb)"><g clip-path="url(#ed4509c2f6)"><g clip-path="url(#9c44bee826)"><path fill="#f47a7a" d="M 29.195312 33.332031 L 27.941406 34.414062 C 28.378906 34.652344 28.820312 34.882812 29.265625 35.105469 C 30.554688 35.753906 31.871094 36.328125 33.1875 36.847656 C 34.53125 37.371094 35.878906 37.835938 37.195312 38.242188 C 38.28125 38.574219 39.34375 38.871094 40.378906 39.132812 C 41.214844 39.347656 42.023438 39.535156 42.808594 39.707031 C 44.808594 40.140625 46.609375 40.445312 48.066406 40.65625 C 48.128906 40.664062 48.195312 40.671875 48.257812 40.683594 L 53.824219 36.222656 C 51.496094 36.113281 49.105469 35.722656 46.78125 35.171875 C 45.101562 34.773438 43.457031 34.292969 41.898438 33.773438 C 41.160156 33.53125 40.441406 33.277344 39.746094 33.019531 C 38.589844 32.59375 37.503906 32.164062 36.511719 31.746094 C 35.136719 31.167969 33.941406 30.621094 32.992188 30.167969 C 32.964844 30.152344 32.9375 30.140625 32.910156 30.128906 L 29.195312 33.332031 " fill-opacity="1" fill-rule="nonzero"/></g></g></g></g><g clip-path="url(#34e24e4875)"><g clip-path="url(#8dd5ffb26a)"><g clip-path="url(#1488b61805)"><g clip-path="url(#1b5d998d1e)"><path fill="#ef6262" d="M 33.078125 29.984375 L 32.992188 30.058594 L 32.9375 30.105469 L 32.867188 30.167969 C 32.867188 30.195312 32.9375 30.160156 32.972656 30.15625 C 32.976562 30.160156 32.984375 30.164062 32.992188 30.167969 C 33.941406 30.621094 35.136719 31.167969 36.511719 31.746094 C 36.425781 30.234375 36.394531 28.683594 36.425781 27.101562 Z M 32.941406 52.957031 C 31.527344 49.4375 30.601562 45.816406 30.019531 42.289062 C 31.273438 42.800781 32.617188 43.300781 34.023438 43.746094 C 35.46875 44.207031 36.984375 44.609375 38.535156 44.921875 C 38.796875 45.988281 39.066406 46.96875 39.320312 47.84375 L 35.503906 50.90625 L 32.941406 52.957031 " fill-opacity="1" fill-rule="nonzero"/></g></g></g></g><g clip-path="url(#24fb47e805)"><g clip-path="url(#00a5746b13)"><g clip-path="url(#c91e5cf93f)"><g clip-path="url(#8110af66fe)"><path fill="#a6ecff" d="M 26.1875 35.921875 L 22.871094 38.78125 C 24.476562 39.707031 26.988281 41.042969 30.019531 42.289062 C 31.273438 42.800781 32.617188 43.300781 34.023438 43.746094 C 35.46875 44.207031 36.984375 44.609375 38.535156 44.921875 C 39.484375 45.113281 40.445312 45.269531 41.417969 45.378906 C 41.707031 45.414062 41.996094 45.445312 42.285156 45.46875 L 43.859375 44.210938 L 46.136719 42.382812 L 48.105469 40.804688 L 48.257812 40.683594 C 48.195312 40.671875 48.128906 40.664062 48.066406 40.65625 C 46.609375 40.445312 44.808594 40.140625 42.808594 39.707031 C 42.023438 39.535156 41.214844 39.347656 40.378906 39.132812 C 39.34375 38.871094 38.28125 38.574219 37.195312 38.242188 C 35.878906 37.835938 34.53125 37.371094 33.1875 36.847656 C 31.871094 36.328125 30.554688 35.753906 29.265625 35.105469 C 28.820312 34.882812 28.378906 34.652344 27.941406 34.414062 Z M 41.375 22.835938 C 41.332031 25.867188 41.433594 29.652344 41.898438 33.773438 C 43.457031 34.292969 45.101562 34.773438 46.78125 35.171875 C 45.890625 30.394531 45.414062 24.730469 46.136719 18.730469 L 41.375 22.835938 " fill-opacity="1" fill-rule="nonzero"/></g></g></g></g></svg>